{
.appVersion = "1342";
DisplayStrings = (
"AÀÁÂÃÄÅ/Abreve/Abreveacute/Abrevedotbelow/Abrevegrave/Abrevehookabove/Abrevetilde/Acircumflexacute/Acircumflexdotbelow/Acircumflexgrave/Acircumflexhookabove/Acircumflextilde/Adotbelow/Ahookabove/Amacron/Aogonek \012OTENESEKILONDEKESU",
"/circumflexcomb_tildecomb.case",
"d/dcaron",

glyphs = (
{
glyphname = exclam;
lastChange = "2021-05-05 04:49:43 +0000";
layers = (
{
background = {
paths = (
{
closed = 1;
nodes = (
"175 232 LINE",
"185 261 OFFCURVE",
"317 530 OFFCURVE",
"401 651 CURVE",
"386 648 OFFCURVE",
"358 654 OFFCURVE",
"332 654 CURVE SMOOTH",
"308 654 OFFCURVE",
"287 649 OFFCURVE",
"280 630 CURVE SMOOTH",
"228 487 OFFCURVE",
"151 261 OFFCURVE",
"134 224 CURVE"
);
},
{
closed = 1;
nodes = (
"106 7 OFFCURVE",
"143 46 OFFCURVE",
"159 49 CURVE",
"160 53 OFFCURVE",
"161 57 OFFCURVE",
"161 60 CURVE SMOOTH",
"161 78 OFFCURVE",
"143 85 OFFCURVE",
"120 85 CURVE SMOOTH",
"96 85 OFFCURVE",
"75 74 OFFCURVE",
"62 60 CURVE SMOOTH",
"54 52 OFFCURVE",
"49 42 OFFCURVE",
"49 33 CURVE SMOOTH",
"49 25 OFFCURVE",
"53 17 OFFCURVE",
"61 11 CURVE SMOOTH",
"74 1 OFFCURVE",
"93 -6 OFFCURVE",
"98 -8 CURVE"
);
}
);
};
layerId = "FDC6D5C2-1E82-4E29-8E0D-3EE46E074C54";
paths = (
{
closed = 1;
nodes = (
"175 232 LINE",
"185 261 OFFCURVE",
"317 530 OFFCURVE",
"401 651 CURVE",
"386 648 OFFCURVE",
"358 654 OFFCURVE",
"332 654 CURVE SMOOTH",
"308 654 OFFCURVE",
"287 649 OFFCURVE",
"280 630 CURVE SMOOTH",
"228 487 OFFCURVE",
"151 261 OFFCURVE",
"134 224 CURVE"
);
},
{
closed = 1;
nodes = (
"106 7 OFFCURVE",
"143 46 OFFCURVE",
"159 49 CURVE",
"160 53 OFFCURVE",
"161 57 OFFCURVE",
"161 60 CURVE SMOOTH",
"161 78 OFFCURVE",
"143 85 OFFCURVE",
"120 85 CURVE SMOOTH",
"96 85 OFFCURVE",
"75 74 OFFCURVE",
"62 60 CURVE SMOOTH",
"54 52 OFFCURVE",
"49 42 OFFCURVE",
"49 33 CURVE SMOOTH",
"49 25 OFFCURVE",
"53 17 OFFCURVE",
"61 11 CURVE SMOOTH",
"74 1 OFFCURVE",
"93 -6 OFFCURVE",
"98 -8 CURVE"
);
}
);
width = 351;
}
);
note = exclam;
unicode = 0021;
},
{
glyphname = quotedbl;
lastChange = "2021-05-05 04:49:43 +0000";
layers = (
{
background = {
paths = (
{
closed = 1;
nodes = (
"190 493 OFFCURVE",
"198 492 OFFCURVE",
"206 492 CURVE SMOOTH",
"215 492 OFFCURVE",
"225 493 OFFCURVE",
"227 496 CURVE SMOOTH",
"237 517 OFFCURVE",
"299 613 OFFCURVE",
"357 688 CURVE SMOOTH",
"364 696 OFFCURVE",
"339 701 OFFCURVE",
"314 701 CURVE SMOOTH",
"293 701 OFFCURVE",
"272 698 OFFCURVE",
"268 689 CURVE SMOOTH",
"241 620 OFFCURVE",
"202 512 OFFCURVE",
"190 495 CURVE"
);
},
{
closed = 1;
nodes = (
"53 493 OFFCURVE",
"61 492 OFFCURVE",
"69 492 CURVE SMOOTH",
"78 492 OFFCURVE",
"88 493 OFFCURVE",
"89 496 CURVE SMOOTH",
"99 517 OFFCURVE",
"162 613 OFFCURVE",
"219 688 CURVE SMOOTH",
"226 696 OFFCURVE",
"201 701 OFFCURVE",
"177 701 CURVE SMOOTH",
"156 701 OFFCURVE",
"135 698 OFFCURVE",
"131 689 CURVE SMOOTH",
"104 620 OFFCURVE",
"64 512 OFFCURVE",
"53 495 CURVE"
);
}
);
};
layerId = "FDC6D5C2-1E82-4E29-8E0D-3EE46E074C54";
paths = (
{
closed = 1;
nodes = (
"190 493 OFFCURVE",
"198 492 OFFCURVE",
"206 492 CURVE SMOOTH",
"215 492 OFFCURVE",
"225 493 OFFCURVE",
"227 496 CURVE SMOOTH",
"237 517 OFFCURVE",
"299 613 OFFCURVE",
"357 688 CURVE SMOOTH",
"364 696 OFFCURVE",
"339 701 OFFCURVE",
"314 701 CURVE SMOOTH",
"293 701 OFFCURVE",
"272 698 OFFCURVE",
"268 689 CURVE SMOOTH",
"241 620 OFFCURVE",
"202 512 OFFCURVE",
"190 495 CURVE"
);
},
{
closed = 1;
nodes = (
"53 493 OFFCURVE",
"61 492 OFFCURVE",
"69 492 CURVE SMOOTH",
"78 492 OFFCURVE",
"88 493 OFFCURVE",
"89 496 CURVE SMOOTH",
"99 517 OFFCURVE",
"162 613 OFFCURVE",
"219 688 CURVE SMOOTH",
"226 696 OFFCURVE",
"201 701 OFFCURVE",
"177 701 CURVE SMOOTH",
"156 701 OFFCURVE",
"135 698 OFFCURVE",
"131 689 CURVE SMOOTH",
"104 620 OFFCURVE",
"64 512 OFFCURVE",
"53 495 CURVE"
);
}
);
width = 373;
}
);
note = quotedbl;
unicode = 0022;
},
{
glyphname = numbersign;
lastChange = "2021-05-05 04:49:43 +0000";
layers = (
{
background = {
paths = (
{
closed = 1;
nodes = (
"269 191 LINE",
"427 191 LINE",
"382 75 LINE SMOOTH",
"377 61 OFFCURVE",
"423 1 OFFCURVE",
"426 9 CURVE SMOOTH",
"496 191 LINE",
"630 191 LINE SMOOTH",
"645 191 OFFCURVE",
"684 256 OFFCURVE",
"676 256 CURVE SMOOTH",
"521 256 LINE",
"578 403 LINE",
"702 403 LINE SMOOTH",
"717 403 OFFCURVE",
"756 468 OFFCURVE",
"748 468 CURVE SMOOTH",
"603 468 LINE",
"631 539 LINE SMOOTH",
"636 553 OFFCURVE",
"589 613 OFFCURVE",
"587 605 CURVE",
"534 468 LINE",
"377 468 LINE",
"404 539 LINE SMOOTH",
"409 553 OFFCURVE",
"363 613 OFFCURVE",
"360 605 CURVE SMOOTH",
"307 468 LINE",
"179 468 LINE SMOOTH",
"164 468 OFFCURVE",
"125 403 OFFCURVE",
"133 403 CURVE SMOOTH",
"282 403 LINE",
"225 256 LINE",
"107 256 LINE SMOOTH",
"93 256 OFFCURVE",
"54 191 OFFCURVE",
"62 191 CURVE SMOOTH",
"200 191 LINE",
"155 75 LINE SMOOTH",
"150 61 OFFCURVE",
"196 1 OFFCURVE",
"199 9 CURVE SMOOTH"
);
},
{
closed = 1;
nodes = (
"351 403 LINE",
"508 403 LINE",
"452 256 LINE",
"295 256 LINE"
);
}
);
};
layerId = "FDC6D5C2-1E82-4E29-8E0D-3EE46E074C54";
paths = (
{
closed = 1;
nodes = (
"269 191 LINE",
"427 191 LINE",
"382 75 LINE SMOOTH",
"377 61 OFFCURVE",
"423 1 OFFCURVE",
"426 9 CURVE SMOOTH",
"496 191 LINE",
"630 191 LINE SMOOTH",
"645 191 OFFCURVE",
"684 256 OFFCURVE",
"676 256 CURVE SMOOTH",
"521 256 LINE",
"578 403 LINE",
"702 403 LINE SMOOTH",
"717 403 OFFCURVE",
"756 468 OFFCURVE",
"748 468 CURVE SMOOTH",
"603 468 LINE",
"631 539 LINE SMOOTH",
"636 553 OFFCURVE",
"589 613 OFFCURVE",
"587 605 CURVE",
"534 468 LINE",
"377 468 LINE",
"404 539 LINE SMOOTH",
"409 553 OFFCURVE",
"363 613 OFFCURVE",
"360 605 CURVE SMOOTH",
"307 468 LINE",
"179 468 LINE SMOOTH",
"164 468 OFFCURVE",
"125 403 OFFCURVE",
"133 403 CURVE SMOOTH",
"282 403 LINE",
"225 256 LINE",
"107 256 LINE SMOOTH",
"93 256 OFFCURVE",
"54 191 OFFCURVE",
"62 191 CURVE SMOOTH",
"200 191 LINE",
"155 75 LINE SMOOTH",
"150 61 OFFCURVE",
"196 1 OFFCURVE",
"199 9 CURVE SMOOTH"
);
},
{
closed = 1;
nodes = (
"351 403 LINE",
"508 403 LINE",
"452 256 LINE",
"295 256 LINE"
);
}
);
width = 781;
}
);
note = numbersign;
unicode = 0023;
},
{
glyphname = dollar;
lastChange = "2021-05-05 04:49:43 +0000";
layers = (
{
background = {
paths = (
{
closed = 1;
nodes = (
"181 84 LINE",
"185 84 LINE SMOOTH",
"218 84 OFFCURVE",
"252 90 OFFCURVE",
"285 103 CURVE SMOOTH",
"354 130 OFFCURVE",
"400 193 OFFCURVE",
"407 243 CURVE SMOOTH",
"408 249 OFFCURVE",
"408 256 OFFCURVE",
"408 262 CURVE SMOOTH",
"408 319 OFFCURVE",
"368 358 OFFCURVE",
"323 389 CURVE SMOOTH",
"304 402 LINE",
"360 549 LINE",
"383 536 OFFCURVE",
"405 513 OFFCURVE",
"405 487 CURVE",
"437 483 OFFCURVE",
"452 508 OFFCURVE",
"452 532 CURVE SMOOTH",
"452 542 OFFCURVE",
"450 551 OFFCURVE",
"445 559 CURVE SMOOTH",
"432 581 OFFCURVE",
"407 593 OFFCURVE",
"379 598 CURVE",
"416 694 LINE SMOOTH",
"418 699 OFFCURVE",
"399 702 OFFCURVE",
"386 702 CURVE SMOOTH",
"379 702 OFFCURVE",
"373 701 OFFCURVE",
"372 699 CURVE SMOOTH",
"334 601 LINE",
"300 600 OFFCURVE",
"266 591 OFFCURVE",
"245 581 CURVE SMOOTH",
"198 558 OFFCURVE",
"172 521 OFFCURVE",
"164 486 CURVE SMOOTH",
"163 480 OFFCURVE",
"162 475 OFFCURVE",
"162 469 CURVE SMOOTH",
"162 424 OFFCURVE",
"199 380 OFFCURVE",
"236 347 CURVE",
"162 154 LINE",
"133 164 OFFCURVE",
"111 187 OFFCURVE",
"105 208 CURVE SMOOTH",
"103 216 OFFCURVE",
"102 224 OFFCURVE",
"102 231 CURVE SMOOTH",
"102 246 OFFCURVE",
"107 260 OFFCURVE",
"124 271 CURVE",
"120 272 OFFCURVE",
"116 272 OFFCURVE",
"113 272 CURVE SMOOTH",
"82 272 OFFCURVE",
"56 243 OFFCURVE",
"49 213 CURVE SMOOTH",
"47 203 OFFCURVE",
"45 193 OFFCURVE",
"45 184 CURVE SMOOTH",
"45 131 OFFCURVE",
"86 100 OFFCURVE",
"137 89 CURVE",
"82 -53 LINE SMOOTH",
"81 -58 OFFCURVE",
"99 -61 OFFCURVE",
"112 -61 CURVE SMOOTH",
"119 -61 OFFCURVE",
"125 -60 OFFCURVE",
"126 -58 CURVE SMOOTH"
);
},
{
closed = 1;
nodes = (
"271 318 LINE",
"288 306 LINE SMOOTH",
"313 288 OFFCURVE",
"325 265 OFFCURVE",
"325 243 CURVE SMOOTH",
"325 198 OFFCURVE",
"279 154 OFFCURVE",
"206 150 CURVE"
);
},
{
closed = 1;
nodes = (
"251 448 OFFCURVE",
"238 468 OFFCURVE",
"238 496 CURVE SMOOTH",
"238 538 OFFCURVE",
"277 566 OFFCURVE",
"319 562 CURVE",
"269 431 LINE"
);
}
);
};
layerId = "FDC6D5C2-1E82-4E29-8E0D-3EE46E074C54";
paths = (
{
closed = 1;
nodes = (
"181 84 LINE",
"185 84 LINE SMOOTH",
"218 84 OFFCURVE",
"252 90 OFFCURVE",
"285 103 CURVE SMOOTH",
"354 130 OFFCURVE",
"400 193 OFFCURVE",
"407 243 CURVE SMOOTH",
"408 249 OFFCURVE",
"408 256 OFFCURVE",
"408 262 CURVE SMOOTH",
"408 319 OFFCURVE",
"368 358 OFFCURVE",
"323 389 CURVE SMOOTH",
"304 402 LINE",
"360 549 LINE",
"383 536 OFFCURVE",
"405 513 OFFCURVE",
"405 487 CURVE",
"437 483 OFFCURVE",
"452 508 OFFCURVE",
"452 532 CURVE SMOOTH",
"452 542 OFFCURVE",
"450 551 OFFCURVE",
"445 559 CURVE SMOOTH",
"432 581 OFFCURVE",
"407 593 OFFCURVE",
"379 598 CURVE",
"416 694 LINE SMOOTH",
"418 699 OFFCURVE",
"399 702 OFFCURVE",
"386 702 CURVE SMOOTH",
"379 702 OFFCURVE",
"373 701 OFFCURVE",
"372 699 CURVE SMOOTH",
"334 601 LINE",
"300 600 OFFCURVE",
"266 591 OFFCURVE",
"245 581 CURVE SMOOTH",
"198 558 OFFCURVE",
"172 521 OFFCURVE",
"164 486 CURVE SMOOTH",
"163 480 OFFCURVE",
"162 475 OFFCURVE",
"162 469 CURVE SMOOTH",
"162 424 OFFCURVE",
"199 380 OFFCURVE",
"236 347 CURVE",
"162 154 LINE",
"133 164 OFFCURVE",
"111 187 OFFCURVE",
"105 208 CURVE SMOOTH",
"103 216 OFFCURVE",
"102 224 OFFCURVE",
"102 231 CURVE SMOOTH",
"102 246 OFFCURVE",
"107 260 OFFCURVE",
"124 271 CURVE",
"120 272 OFFCURVE",
"116 272 OFFCURVE",
"113 272 CURVE SMOOTH",
"82 272 OFFCURVE",
"56 243 OFFCURVE",
"49 213 CURVE SMOOTH",
"47 203 OFFCURVE",
"45 193 OFFCURVE",
"45 184 CURVE SMOOTH",
"45 131 OFFCURVE",
"86 100 OFFCURVE",
"137 89 CURVE",
"82 -53 LINE SMOOTH",
"81 -58 OFFCURVE",
"99 -61 OFFCURVE",
"112 -61 CURVE SMOOTH",
"119 -61 OFFCURVE",
"125 -60 OFFCURVE",
"126 -58 CURVE SMOOTH"
);
},
{
closed = 1;
nodes = (
"271 318 LINE",
"288 306 LINE SMOOTH",
"313 288 OFFCURVE",
"325 265 OFFCURVE",
"325 243 CURVE SMOOTH",
"325 198 OFFCURVE",
"279 154 OFFCURVE",
"206 150 CURVE"
);
},
{
closed = 1;
nodes = (
"251 448 OFFCURVE",
"238 468 OFFCURVE",
"238 496 CURVE SMOOTH",
"238 538 OFFCURVE",
"277 566 OFFCURVE",
"319 562 CURVE",
"269 431 LINE"
);
}
);
width = 455;
}
);
note = dollar;
unicode = 0024;
},
{
glyphname = percent;
lastChange = "2021-05-05 04:49:43 +0000";
layers = (
{
background = {
paths = (
{
closed = 1;
nodes = (
"102 -4 OFFCURVE",
"115 -5 OFFCURVE",
"129 -5 CURVE SMOOTH",
"143 -5 OFFCURVE",
"158 -4 OFFCURVE",
"160 0 CURVE",
"160 0 OFFCURVE",
"371 374 OFFCURVE",
"492 585 CURVE",
"540 621 OFFCURVE",
"563 651 OFFCURVE",
"577 672 CURVE SMOOTH",
"580 676 OFFCURVE",
"581 679 OFFCURVE",
"581 682 CURVE SMOOTH",
"581 695 OFFCURVE",
"562 702 OFFCURVE",
"542 702 CURVE SMOOTH",
"524 702 OFFCURVE",
"506 697 OFFCURVE",
"499 685 CURVE SMOOTH",
"477 646 OFFCURVE",
"425 613 OFFCURVE",
"381 613 CURVE SMOOTH",
"359 613 OFFCURVE",
"340 620 OFFCURVE",
"325 638 CURVE",
"310 664 OFFCURVE",
"285 680 OFFCURVE",
"246 680 CURVE SMOOTH",
"146 680 OFFCURVE",
"86 571 OFFCURVE",
"86 483 CURVE SMOOTH",
"86 422 OFFCURVE",
"114 370 OFFCURVE",
"178 370 CURVE SMOOTH",
"261 370 OFFCURVE",
"317 447 OFFCURVE",
"334 520 CURVE SMOOTH",
"338 535 OFFCURVE",
"339 553 OFFCURVE",
"339 570 CURVE SMOOTH",
"339 579 OFFCURVE",
"339 588 OFFCURVE",
"338 596 CURVE",
"357 577 OFFCURVE",
"382 571 OFFCURVE",
"404 571 CURVE SMOOTH",
"415 571 OFFCURVE",
"425 573 OFFCURVE",
"432 575 CURVE",
"104 0 LINE SMOOTH"
);
},
{
closed = 1;
nodes = (
"513 -5 OFFCURVE",
"568 72 OFFCURVE",
"586 146 CURVE SMOOTH",
"590 162 OFFCURVE",
"592 179 OFFCURVE",
"592 195 CURVE SMOOTH",
"592 254 OFFCURVE",
"566 306 OFFCURVE",
"498 306 CURVE SMOOTH",
"398 306 OFFCURVE",
"338 196 OFFCURVE",
"338 108 CURVE SMOOTH",
"338 46 OFFCURVE",
"366 -5 OFFCURVE",
"430 -5 CURVE SMOOTH"
);
},
{
closed = 1;
nodes = (
"423 54 OFFCURVE",
"411 79 OFFCURVE",
"411 112 CURVE SMOOTH",
"411 132 OFFCURVE",
"416 156 OFFCURVE",
"425 181 CURVE SMOOTH",
"442 228 OFFCURVE",
"472 261 OFFCURVE",
"503 261 CURVE SMOOTH",
"530 261 OFFCURVE",
"546 237 OFFCURVE",
"546 199 CURVE SMOOTH",
"546 181 OFFCURVE",
"542 160 OFFCURVE",
"535 138 CURVE SMOOTH",
"518 87 OFFCURVE",
"485 49 OFFCURVE",
"452 49 CURVE SMOOTH",
"449 49 OFFCURVE",
"446 49 OFFCURVE",
"443 50 CURVE SMOOTH"
);
},
{
closed = 1;
nodes = (
"174 423 OFFCURVE",
"160 449 OFFCURVE",
"160 487 CURVE SMOOTH",
"160 507 OFFCURVE",
"164 531 OFFCURVE",
"173 556 CURVE SMOOTH",
"190 603 OFFCURVE",
"220 636 OFFCURVE",
"251 636 CURVE SMOOTH",
"278 636 OFFCURVE",
"294 612 OFFCURVE",
"294 574 CURVE SMOOTH",
"294 556 OFFCURVE",
"290 535 OFFCURVE",
"283 513 CURVE SMOOTH",
"266 462 OFFCURVE",
"233 423 OFFCURVE",
"200 423 CURVE SMOOTH"
);
}
);
};
layerId = "FDC6D5C2-1E82-4E29-8E0D-3EE46E074C54";
paths = (
{
closed = 1;
nodes = (
"102 -4 OFFCURVE",
"115 -5 OFFCURVE",
"129 -5 CURVE SMOOTH",
"143 -5 OFFCURVE",
"158 -4 OFFCURVE",
"160 0 CURVE",
"160 0 OFFCURVE",
"371 374 OFFCURVE",
"492 585 CURVE",
"540 621 OFFCURVE",
"563 651 OFFCURVE",
"577 672 CURVE SMOOTH",
"580 676 OFFCURVE",
"581 679 OFFCURVE",
"581 682 CURVE SMOOTH",
"581 695 OFFCURVE",
"562 702 OFFCURVE",
"542 702 CURVE SMOOTH",
"524 702 OFFCURVE",
"506 697 OFFCURVE",
"499 685 CURVE SMOOTH",
"477 646 OFFCURVE",
"425 613 OFFCURVE",
"381 613 CURVE SMOOTH",
"359 613 OFFCURVE",
"340 620 OFFCURVE",
"325 638 CURVE",
"310 664 OFFCURVE",
"285 680 OFFCURVE",
"246 680 CURVE SMOOTH",
"146 680 OFFCURVE",
"86 571 OFFCURVE",
"86 483 CURVE SMOOTH",
"86 422 OFFCURVE",
"114 370 OFFCURVE",
"178 370 CURVE SMOOTH",
"261 370 OFFCURVE",
"317 447 OFFCURVE",
"334 520 CURVE SMOOTH",
"338 535 OFFCURVE",
"339 553 OFFCURVE",
"339 570 CURVE SMOOTH",
"339 579 OFFCURVE",
"339 588 OFFCURVE",
"338 596 CURVE",
"357 577 OFFCURVE",
"382 571 OFFCURVE",
"404 571 CURVE SMOOTH",
"415 571 OFFCURVE",
"425 573 OFFCURVE",
"432 575 CURVE",
"104 0 LINE SMOOTH"
);
},
{
closed = 1;
nodes = (
"513 -5 OFFCURVE",
"568 72 OFFCURVE",
"586 146 CURVE SMOOTH",
"590 162 OFFCURVE",
"592 179 OFFCURVE",
"592 195 CURVE SMOOTH",
"592 254 OFFCURVE",
"566 306 OFFCURVE",
"498 306 CURVE SMOOTH",
"398 306 OFFCURVE",
"338 196 OFFCURVE",
"338 108 CURVE SMOOTH",
"338 46 OFFCURVE",
"366 -5 OFFCURVE",
"430 -5 CURVE SMOOTH"
);
},
{
closed = 1;
nodes = (
"423 54 OFFCURVE",
"411 79 OFFCURVE",
"411 112 CURVE SMOOTH",
"411 132 OFFCURVE",
"416 156 OFFCURVE",
"425 181 CURVE SMOOTH",
"442 228 OFFCURVE",
"472 261 OFFCURVE",
"503 261 CURVE SMOOTH",
"530 261 OFFCURVE",
"546 237 OFFCURVE",
"546 199 CURVE SMOOTH",
"546 181 OFFCURVE",
"542 160 OFFCURVE",
"535 138 CURVE SMOOTH",
"518 87 OFFCURVE",
"485 49 OFFCURVE",
"452 49 CURVE SMOOTH",
"449 49 OFFCURVE",
"446 49 OFFCURVE",
"443 50 CURVE SMOOTH"
);
},
{
closed = 1;
nodes = (
"174 423 OFFCURVE",
"160 449 OFFCURVE",
"160 487 CURVE SMOOTH",
"160 507 OFFCURVE",
"164 531 OFFCURVE",
"173 556 CURVE SMOOTH",
"190 603 OFFCURVE",
"220 636 OFFCURVE",
"251 636 CURVE SMOOTH",
"278 636 OFFCURVE",
"294 612 OFFCURVE",
"294 574 CURVE SMOOTH",
"294 556 OFFCURVE",
"290 535 OFFCURVE",
"283 513 CURVE SMOOTH",
"266 462 OFFCURVE",
"233 423 OFFCURVE",
"200 423 CURVE SMOOTH"
);
}
);
width = 670;
}
);
note = percent;
unicode = 0025;
},
{
glyphname = ampersand;
lastChange = "2021-05-05 04:49:43 +0000";
layers = (
{
background = {
paths = (
{
closed = 1;
nodes = (
"360 -32 OFFCURVE",
"535 36 OFFCURVE",
"563 166 CURVE SMOOTH",
"565 175 OFFCURVE",
"566 183 OFFCURVE",
"566 191 CURVE SMOOTH",
"566 229 OFFCURVE",
"545 258 OFFCURVE",
"503 265 CURVE SMOOTH",
"489 267 OFFCURVE",
"473 265 OFFCURVE",
"456 259 CURVE SMOOTH",
"458 260 LINE SMOOTH",
"506 284 OFFCURVE",
"603 301 OFFCURVE",
"659 312 CURVE SMOOTH",
"695 319 OFFCURVE",
"724 330 OFFCURVE",
"738 361 CURVE SMOOTH",
"745 375 OFFCURVE",
"748 393 OFFCURVE",
"748 408 CURVE SMOOTH",
"748 416 OFFCURVE",
"747 423 OFFCURVE",
"745 427 CURVE",
"735 404 OFFCURVE",
"681 381 OFFCURVE",
"631 366 CURVE SMOOTH",
"480 320 LINE SMOOTH",
"423 302 OFFCURVE",
"381 267 OFFCURVE",
"381 228 CURVE SMOOTH",
"381 215 OFFCURVE",
"386 201 OFFCURVE",
"397 188 CURVE",
"398 209 OFFCURVE",
"413 231 OFFCURVE",
"434 246 CURVE",
"477 249 OFFCURVE",
"496 229 OFFCURVE",
"496 188 CURVE SMOOTH",
"496 183 OFFCURVE",
"496 178 OFFCURVE",
"495 172 CURVE SMOOTH",
"488 98 OFFCURVE",
"413 24 OFFCURVE",
"287 10 CURVE SMOOTH",
"278 9 OFFCURVE",
"270 9 OFFCURVE",
"261 9 CURVE SMOOTH",
"170 9 OFFCURVE",
"124 68 OFFCURVE",
"124 137 CURVE SMOOTH",
"124 201 OFFCURVE",
"163 274 OFFCURVE",
"241 316 CURVE SMOOTH",
"275 335 OFFCURVE",
"311 347 OFFCURVE",
"343 347 CURVE SMOOTH",
"357 347 OFFCURVE",
"371 344 OFFCURVE",
"383 340 CURVE SMOOTH",
"396 336 OFFCURVE",
"418 354 OFFCURVE",
"418 367 CURVE SMOOTH",
"418 372 OFFCURVE",
"414 376 OFFCURVE",
"403 377 CURVE SMOOTH",
"392 378 OFFCURVE",
"378 377 OFFCURVE",
"371 377 CURVE SMOOTH",
"335 379 OFFCURVE",
"287 403 OFFCURVE",
"287 465 CURVE SMOOTH",
"287 474 OFFCURVE",
"288 484 OFFCURVE",
"290 494 CURVE SMOOTH",
"303 557 OFFCURVE",
"386 624 OFFCURVE",
"469 624 CURVE SMOOTH",
"518 624 OFFCURVE",
"555 607 OFFCURVE",
"555 566 CURVE SMOOTH",
"555 539 OFFCURVE",
"541 510 OFFCURVE",
"510 493 CURVE",
"515 490 OFFCURVE",
"522 488 OFFCURVE",
"530 488 CURVE SMOOTH",
"555 488 OFFCURVE",
"590 507 OFFCURVE",
"603 536 CURVE SMOOTH",
"609 550 OFFCURVE",
"612 563 OFFCURVE",
"612 575 CURVE SMOOTH",
"612 633 OFFCURVE",
"553 675 OFFCURVE",
"479 675 CURVE SMOOTH",
"366 675 OFFCURVE",
"256 624 OFFCURVE",
"219 519 CURVE SMOOTH",
"214 506 OFFCURVE",
"212 493 OFFCURVE",
"212 481 CURVE SMOOTH",
"212 435 OFFCURVE",
"241 392 OFFCURVE",
"289 368 CURVE",
"266 367 OFFCURVE",
"241 363 OFFCURVE",
"217 356 CURVE SMOOTH",
"107 325 OFFCURVE",
"13 234 OFFCURVE",
"13 117 CURVE SMOOTH",
"13 0 OFFCURVE",
"149 -32 OFFCURVE",
"242 -32 CURVE SMOOTH"
);
}
);
};
layerId = "FDC6D5C2-1E82-4E29-8E0D-3EE46E074C54";
paths = (
{
closed = 1;
nodes = (
"360 -32 OFFCURVE",
"535 36 OFFCURVE",
"563 166 CURVE SMOOTH",
"565 175 OFFCURVE",
"566 183 OFFCURVE",
"566 191 CURVE SMOOTH",
"566 229 OFFCURVE",
"545 258 OFFCURVE",
"503 265 CURVE SMOOTH",
"489 267 OFFCURVE",
"473 265 OFFCURVE",
"456 259 CURVE SMOOTH",
"458 260 LINE SMOOTH",
"506 284 OFFCURVE",
"603 301 OFFCURVE",
"659 312 CURVE SMOOTH",
"695 319 OFFCURVE",
"724 330 OFFCURVE",
"738 361 CURVE SMOOTH",
"745 375 OFFCURVE",
"748 393 OFFCURVE",
"748 408 CURVE SMOOTH",
"748 416 OFFCURVE",
"747 423 OFFCURVE",
"745 427 CURVE",
"735 404 OFFCURVE",
"681 381 OFFCURVE",
"631 366 CURVE SMOOTH",
"480 320 LINE SMOOTH",
"423 302 OFFCURVE",
"381 267 OFFCURVE",
"381 228 CURVE SMOOTH",
"381 215 OFFCURVE",
"386 201 OFFCURVE",
"397 188 CURVE",
"398 209 OFFCURVE",
"413 231 OFFCURVE",
"434 246 CURVE",
"477 249 OFFCURVE",
"496 229 OFFCURVE",
"496 188 CURVE SMOOTH",
"496 183 OFFCURVE",
"496 178 OFFCURVE",
"495 172 CURVE SMOOTH",
"488 98 OFFCURVE",
"413 24 OFFCURVE",
"287 10 CURVE SMOOTH",
"278 9 OFFCURVE",
"270 9 OFFCURVE",
"261 9 CURVE SMOOTH",
"170 9 OFFCURVE",
"124 68 OFFCURVE",
"124 137 CURVE SMOOTH",
"124 201 OFFCURVE",
"163 274 OFFCURVE",
"241 316 CURVE SMOOTH",
"275 335 OFFCURVE",
"311 347 OFFCURVE",
"343 347 CURVE SMOOTH",
"357 347 OFFCURVE",
"371 344 OFFCURVE",
"383 340 CURVE SMOOTH",
"396 336 OFFCURVE",
"418 354 OFFCURVE",
"418 367 CURVE SMOOTH",
"418 372 OFFCURVE",
"414 376 OFFCURVE",
"403 377 CURVE SMOOTH",
"392 378 OFFCURVE",
"378 377 OFFCURVE",
"371 377 CURVE SMOOTH",
"335 379 OFFCURVE",
"287 403 OFFCURVE",
"287 465 CURVE SMOOTH",
"287 474 OFFCURVE",
"288 484 OFFCURVE",
"290 494 CURVE SMOOTH",
"303 557 OFFCURVE",
"386 624 OFFCURVE",
"469 624 CURVE SMOOTH",
"518 624 OFFCURVE",
"555 607 OFFCURVE",
"555 566 CURVE SMOOTH",
"555 539 OFFCURVE",
"541 510 OFFCURVE",
"510 493 CURVE",
"515 490 OFFCURVE",
"522 488 OFFCURVE",
"530 488 CURVE SMOOTH",
"555 488 OFFCURVE",
"590 507 OFFCURVE",
"603 536 CURVE SMOOTH",
"609 550 OFFCURVE",
"612 563 OFFCURVE",
"612 575 CURVE SMOOTH",
"612 633 OFFCURVE",
"553 675 OFFCURVE",
"479 675 CURVE SMOOTH",
"366 675 OFFCURVE",
"256 624 OFFCURVE",
"219 519 CURVE SMOOTH",
"214 506 OFFCURVE",
"212 493 OFFCURVE",
"212 481 CURVE SMOOTH",
"212 435 OFFCURVE",
"241 392 OFFCURVE",
"289 368 CURVE",
"266 367 OFFCURVE",
"241 363 OFFCURVE",
"217 356 CURVE SMOOTH",
"107 325 OFFCURVE",
"13 234 OFFCURVE",
"13 117 CURVE SMOOTH",
"13 0 OFFCURVE",
"149 -32 OFFCURVE",
"242 -32 CURVE SMOOTH"
);
}
);
width = 789;
}
);
note = ampersand;
unicode = 0026;
},
{
glyphname = quotesingle;
lastChange = "2021-05-05 04:49:43 +0000";
layers = (
{
background = {
paths = (
{
closed = 1;
nodes = (
"99 453 OFFCURVE",
"104 452 OFFCURVE",
"108 452 CURVE SMOOTH",
"116 452 OFFCURVE",
"122 456 OFFCURVE",
"128 460 CURVE SMOOTH",
"167 490 OFFCURVE",
"227 582 OFFCURVE",
"256 650 CURVE SMOOTH",
"260 660 OFFCURVE",
"236 665 OFFCURVE",
"212 665 CURVE SMOOTH",
"192 665 OFFCURVE",
"172 661 OFFCURVE",
"171 652 CURVE SMOOTH",
"164 607 OFFCURVE",
"142 528 OFFCURVE",
"94 456 CURVE"
);
}
);
};
layerId = "FDC6D5C2-1E82-4E29-8E0D-3EE46E074C54";
paths = (
{
closed = 1;
nodes = (
"99 453 OFFCURVE",
"104 452 OFFCURVE",
"108 452 CURVE SMOOTH",
"116 452 OFFCURVE",
"122 456 OFFCURVE",
"128 460 CURVE SMOOTH",
"167 490 OFFCURVE",
"227 582 OFFCURVE",
"256 650 CURVE SMOOTH",
"260 660 OFFCURVE",
"236 665 OFFCURVE",
"212 665 CURVE SMOOTH",
"192 665 OFFCURVE",
"172 661 OFFCURVE",
"171 652 CURVE SMOOTH",
"164 607 OFFCURVE",
"142 528 OFFCURVE",
"94 456 CURVE"
);
}
);
width = 143;
}
);
note = quotesingle;
unicode = 0027;
},
{
glyphname = parenleft;
lastChange = "2021-05-05 05:19:32 +0000";
layers = (
{
background = {
paths = (
{
closed = 1;
nodes = (
"180 -56 OFFCURVE",
"237 -47 OFFCURVE",
"262 -37 CURVE",
"269 -7 LINE",
"262 -8 OFFCURVE",
"250 -9 OFFCURVE",
"236 -9 CURVE SMOOTH",
"228 -9 OFFCURVE",
"220 -9 OFFCURVE",
"211 -7 CURVE SMOOTH",
"157 4 OFFCURVE",
"142 59 OFFCURVE",
"142 115 CURVE SMOOTH",
"142 153 OFFCURVE",
"148 192 OFFCURVE",
"156 219 CURVE SMOOTH",
"215 432 OFFCURVE",
"391 626 OFFCURVE",
"604 679 CURVE",
"612 706 LINE",
"381 668 OFFCURVE",
"128 442 OFFCURVE",
"66 211 CURVE SMOOTH",
"57 176 OFFCURVE",
"50 136 OFFCURVE",
"50 97 CURVE SMOOTH",
"50 25 OFFCURVE",
"74 -41 OFFCURVE",
"154 -52 CURVE SMOOTH"
);
}
);
};
layerId = "FDC6D5C2-1E82-4E29-8E0D-3EE46E074C54";
paths = (
{
closed = 1;
nodes = (
"180 -56 OFFCURVE",
"237 -47 OFFCURVE",
"262 -37 CURVE",
"269 -7 LINE",
"262 -8 OFFCURVE",
"250 -9 OFFCURVE",
"236 -9 CURVE SMOOTH",
"228 -9 OFFCURVE",
"220 -9 OFFCURVE",
"211 -7 CURVE SMOOTH",
"157 4 OFFCURVE",
"142 59 OFFCURVE",
"142 115 CURVE SMOOTH",
"142 153 OFFCURVE",
"148 192 OFFCURVE",
"156 219 CURVE SMOOTH",
"215 432 OFFCURVE",
"391 626 OFFCURVE",
"604 679 CURVE",
"612 706 LINE",
"381 668 OFFCURVE",
"128 442 OFFCURVE",
"66 211 CURVE SMOOTH",
"57 176 OFFCURVE",
"50 136 OFFCURVE",
"50 97 CURVE SMOOTH",
"50 25 OFFCURVE",
"74 -41 OFFCURVE",
"154 -52 CURVE SMOOTH"
);
}
);
width = 620;
}
);
note = parenleft;
unicode = 0028;
},
{
glyphname = parenright;
lastChange = "2021-05-05 04:49:43 +0000";
layers = (
{
background = {
paths = (
{
closed = 1;
nodes = (
"232 -13 OFFCURVE",
"486 212 OFFCURVE",
"547 443 CURVE SMOOTH",
"556 478 OFFCURVE",
"564 518 OFFCURVE",
"564 557 CURVE SMOOTH",
"564 629 OFFCURVE",
"539 694 OFFCURVE",
"459 706 CURVE SMOOTH",
"433 710 OFFCURVE",
"376 701 OFFCURVE",
"351 691 CURVE",
"344 661 LINE",
"352 662 OFFCURVE",
"364 663 OFFCURVE",
"377 663 CURVE SMOOTH",
"385 663 OFFCURVE",
"394 663 OFFCURVE",
"402 661 CURVE SMOOTH",
"456 651 OFFCURVE",
"471 596 OFFCURVE",
"471 539 CURVE SMOOTH",
"471 502 OFFCURVE",
"465 463 OFFCURVE",
"457 436 CURVE SMOOTH",
"398 223 OFFCURVE",
"222 29 OFFCURVE",
"9 -25 CURVE",
"1 -52 LINE"
);
}
);
};
layerId = "FDC6D5C2-1E82-4E29-8E0D-3EE46E074C54";
paths = (
{
closed = 1;
nodes = (
"232 -13 OFFCURVE",
"486 212 OFFCURVE",
"547 443 CURVE SMOOTH",
"556 478 OFFCURVE",
"564 518 OFFCURVE",
"564 557 CURVE SMOOTH",
"564 629 OFFCURVE",
"539 694 OFFCURVE",
"459 706 CURVE SMOOTH",
"433 710 OFFCURVE",
"376 701 OFFCURVE",
"351 691 CURVE",
"344 661 LINE",
"352 662 OFFCURVE",
"364 663 OFFCURVE",
"377 663 CURVE SMOOTH",
"385 663 OFFCURVE",
"394 663 OFFCURVE",
"402 661 CURVE SMOOTH",
"456 651 OFFCURVE",
"471 596 OFFCURVE",
"471 539 CURVE SMOOTH",
"471 502 OFFCURVE",
"465 463 OFFCURVE",
"457 436 CURVE SMOOTH",
"398 223 OFFCURVE",
"222 29 OFFCURVE",
"9 -25 CURVE",
"1 -52 LINE"
);
}
);
width = 575;
}
);
note = parenright;
unicode = 0029;
},
{
glyphname = asterisk;
lastChange = "2021-05-05 04:49:43 +0000";
layers = (
{
background = {
paths = (
{
closed = 1;
nodes = (
"278 139 LINE",
"321 379 LINE",
"328 382 LINE",
"493 239 LINE",
"562 314 LINE",
"352 410 LINE",
"353 413 LINE",
"622 512 LINE",
"598 586 LINE",
"345 441 LINE",
"341 443 LINE",
"443 686 LINE",
"353 686 LINE",
"309 443 LINE",
"303 441 LINE",
"137 585 LINE",
"68 511 LINE",
"278 413 LINE",
"277 409 LINE",
"8 313 LINE",
"32 239 LINE",
"285 382 LINE",
"289 379 LINE",
"187 139 LINE"
);
}
);
};
layerId = "FDC6D5C2-1E82-4E29-8E0D-3EE46E074C54";
paths = (
{
closed = 1;
nodes = (
"278 139 LINE",
"321 379 LINE",
"328 382 LINE",
"493 239 LINE",
"562 314 LINE",
"352 410 LINE",
"353 413 LINE",
"622 512 LINE",
"598 586 LINE",
"345 441 LINE",
"341 443 LINE",
"443 686 LINE",
"353 686 LINE",
"309 443 LINE",
"303 441 LINE",
"137 585 LINE",
"68 511 LINE",
"278 413 LINE",
"277 409 LINE",
"8 313 LINE",
"32 239 LINE",
"285 382 LINE",
"289 379 LINE",
"187 139 LINE"
);
}
);
width = 652;
}
);
note = asterisk;
unicode = 002A;
},
{
glyphname = plus;
lastChange = "2021-05-05 04:49:43 +0000";
layers = (
{
background = {
paths = (
{
closed = 1;
nodes = (
"190 26 OFFCURVE",
"292 54 OFFCURVE",
"296 74 CURVE SMOOTH",
"306 117 OFFCURVE",
"353 245 OFFCURVE",
"386 311 CURVE SMOOTH",
"389 317 LINE",
"472 316 OFFCURVE",
"598 311 OFFCURVE",
"636 308 CURVE SMOOTH",
"656 306 OFFCURVE",
"710 373 OFFCURVE",
"699 373 CURVE SMOOTH",
"655 371 OFFCURVE",
"514 369 OFFCURVE",
"411 368 CURVE",
"451 459 OFFCURVE",
"502 570 OFFCURVE",
"521 612 CURVE SMOOTH",
"526 622 OFFCURVE",
"428 594 OFFCURVE",
"422 574 CURVE SMOOTH",
"410 536 OFFCURVE",
"374 440 OFFCURVE",
"345 368 CURVE",
"274 368 OFFCURVE",
"149 369 OFFCURVE",
"108 376 CURVE SMOOTH",
"89 379 OFFCURVE",
"35 310 OFFCURVE",
"46 311 CURVE SMOOTH",
"124 317 OFFCURVE",
"240 318 OFFCURVE",
"325 318 CURVE",
"290 234 OFFCURVE",
"238 114 OFFCURVE",
"196 36 CURVE SMOOTH"
);
}
);
};
layerId = "FDC6D5C2-1E82-4E29-8E0D-3EE46E074C54";
paths = (
{
closed = 1;
nodes = (
"190 26 OFFCURVE",
"292 54 OFFCURVE",
"296 74 CURVE SMOOTH",
"306 117 OFFCURVE",
"353 245 OFFCURVE",
"386 311 CURVE SMOOTH",
"389 317 LINE",
"472 316 OFFCURVE",
"598 311 OFFCURVE",
"636 308 CURVE SMOOTH",
"656 306 OFFCURVE",
"710 373 OFFCURVE",
"699 373 CURVE SMOOTH",
"655 371 OFFCURVE",
"514 369 OFFCURVE",
"411 368 CURVE",
"451 459 OFFCURVE",
"502 570 OFFCURVE",
"521 612 CURVE SMOOTH",
"526 622 OFFCURVE",
"428 594 OFFCURVE",
"422 574 CURVE SMOOTH",
"410 536 OFFCURVE",
"374 440 OFFCURVE",
"345 368 CURVE",
"274 368 OFFCURVE",
"149 369 OFFCURVE",
"108 376 CURVE SMOOTH",
"89 379 OFFCURVE",
"35 310 OFFCURVE",
"46 311 CURVE SMOOTH",
"124 317 OFFCURVE",
"240 318 OFFCURVE",
"325 318 CURVE",
"290 234 OFFCURVE",
"238 114 OFFCURVE",
"196 36 CURVE SMOOTH"
);
}
);
width = 721;
}
);
note = plus;
unicode = 002B;
},
{
glyphname = comma;
lastChange = "2021-05-05 04:49:43 +0000";
layers = (
{
background = {
paths = (
{
closed = 1;
nodes = (
"89 -133 OFFCURVE",
"94 -134 OFFCURVE",
"98 -134 CURVE SMOOTH",
"106 -134 OFFCURVE",
"112 -130 OFFCURVE",
"118 -126 CURVE SMOOTH",
"157 -96 OFFCURVE",
"217 -4 OFFCURVE",
"246 64 CURVE SMOOTH",
"250 74 OFFCURVE",
"226 79 OFFCURVE",
"202 79 CURVE SMOOTH",
"182 79 OFFCURVE",
"162 75 OFFCURVE",
"161 66 CURVE SMOOTH",
"154 21 OFFCURVE",
"132 -58 OFFCURVE",
"84 -130 CURVE"
);
}
);
};
layerId = "FDC6D5C2-1E82-4E29-8E0D-3EE46E074C54";
paths = (
{
closed = 1;
nodes = (
"89 -133 OFFCURVE",
"94 -134 OFFCURVE",
"98 -134 CURVE SMOOTH",
"106 -134 OFFCURVE",
"112 -130 OFFCURVE",
"118 -126 CURVE SMOOTH",
"157 -96 OFFCURVE",
"217 -4 OFFCURVE",
"246 64 CURVE SMOOTH",
"250 74 OFFCURVE",
"226 79 OFFCURVE",
"202 79 CURVE SMOOTH",
"182 79 OFFCURVE",
"162 75 OFFCURVE",
"161 66 CURVE SMOOTH",
"154 21 OFFCURVE",
"132 -58 OFFCURVE",
"84 -130 CURVE"
);
}
);
width = 271;
}
);
note = comma;
unicode = 002C;
},
{
glyphname = hyphen;
lastChange = "2021-05-05 04:49:43 +0000";
layers = (
{
background = {
paths = (
{
closed = 1;
nodes = (
"433 223 LINE SMOOTH",
"448 223 OFFCURVE",
"487 288 OFFCURVE",
"479 288 CURVE SMOOTH",
"200 288 LINE SMOOTH",
"186 288 OFFCURVE",
"146 223 OFFCURVE",
"154 223 CURVE SMOOTH"
);
}
);
};
layerId = "FDC6D5C2-1E82-4E29-8E0D-3EE46E074C54";
paths = (
{
closed = 1;
nodes = (
"433 223 LINE SMOOTH",
"448 223 OFFCURVE",
"487 288 OFFCURVE",
"479 288 CURVE SMOOTH",
"200 288 LINE SMOOTH",
"186 288 OFFCURVE",
"146 223 OFFCURVE",
"154 223 CURVE SMOOTH"
);
}
);
width = 490;
}
);
note = hyphen;
unicode = 002D;
},
{
glyphname = period;
lastChange = "2021-05-05 04:49:43 +0000";
layers = (
{
background = {
paths = (
{
closed = 1;
nodes = (
"169 7 OFFCURVE",
"206 46 OFFCURVE",
"222 49 CURVE",
"223 53 OFFCURVE",
"224 57 OFFCURVE",
"224 60 CURVE SMOOTH",
"224 78 OFFCURVE",
"206 85 OFFCURVE",
"183 85 CURVE SMOOTH",
"159 85 OFFCURVE",
"138 74 OFFCURVE",
"125 60 CURVE SMOOTH",
"117 52 OFFCURVE",
"112 42 OFFCURVE",
"112 33 CURVE SMOOTH",
"112 25 OFFCURVE",
"116 17 OFFCURVE",
"124 11 CURVE SMOOTH",
"137 1 OFFCURVE",
"156 -6 OFFCURVE",
"161 -8 CURVE"
);
}
);
};
layerId = "FDC6D5C2-1E82-4E29-8E0D-3EE46E074C54";
paths = (
{
closed = 1;
nodes = (
"169 7 OFFCURVE",
"206 46 OFFCURVE",
"222 49 CURVE",
"223 53 OFFCURVE",
"224 57 OFFCURVE",
"224 60 CURVE SMOOTH",
"224 78 OFFCURVE",
"206 85 OFFCURVE",
"183 85 CURVE SMOOTH",
"159 85 OFFCURVE",
"138 74 OFFCURVE",
"125 60 CURVE SMOOTH",
"117 52 OFFCURVE",
"112 42 OFFCURVE",
"112 33 CURVE SMOOTH",
"112 25 OFFCURVE",
"116 17 OFFCURVE",
"124 11 CURVE SMOOTH",
"137 1 OFFCURVE",
"156 -6 OFFCURVE",
"161 -8 CURVE"
);
}
);
width = 271;
}
);
note = period;
unicode = 002E;
},
{
glyphname = slash;
lastChange = "2021-05-05 04:49:43 +0000";
layers = (
{
background = {
paths = (
{
closed = 1;
nodes = (
"678 694 LINE SMOOTH",
"681 699 OFFCURVE",
"660 702 OFFCURVE",
"643 702 CURVE SMOOTH",
"635 702 OFFCURVE",
"628 701 OFFCURVE",
"626 699 CURVE SMOOTH",
"70 -53 LINE SMOOTH",
"67 -58 OFFCURVE",
"88 -61 OFFCURVE",
"105 -61 CURVE SMOOTH",
"113 -61 OFFCURVE",
"120 -60 OFFCURVE",
"122 -58 CURVE SMOOTH"
);
}
);
};
layerId = "FDC6D5C2-1E82-4E29-8E0D-3EE46E074C54";
paths = (
{
closed = 1;
nodes = (
"678 694 LINE SMOOTH",
"681 699 OFFCURVE",
"660 702 OFFCURVE",
"643 702 CURVE SMOOTH",
"635 702 OFFCURVE",
"628 701 OFFCURVE",
"626 699 CURVE SMOOTH",
"70 -53 LINE SMOOTH",
"67 -58 OFFCURVE",
"88 -61 OFFCURVE",
"105 -61 CURVE SMOOTH",
"113 -61 OFFCURVE",
"120 -60 OFFCURVE",
"122 -58 CURVE SMOOTH"
);
}
);
width = 455;
}
);
note = slash;
unicode = 002F;
},
{
glyphname = zero;
lastChange = "2021-05-05 04:49:43 +0000";
layers = (
{
background = {
paths = (
{
closed = 1;
nodes = (
"403 -12 OFFCURVE",
"545 166 OFFCURVE",
"596 340 CURVE SMOOTH",
"609 385 OFFCURVE",
"616 431 OFFCURVE",
"616 474 CURVE SMOOTH",
"616 596 OFFCURVE",
"560 695 OFFCURVE",
"426 695 CURVE SMOOTH",
"230 695 OFFCURVE",
"92 518 OFFCURVE",
"43 343 CURVE SMOOTH",
"32 300 OFFCURVE",
"25 256 OFFCURVE",
"25 214 CURVE SMOOTH",
"25 90 OFFCURVE",
"81 -12 OFFCURVE",
"211 -12 CURVE SMOOTH"
);
},
{
closed = 1;
nodes = (
"159 56 OFFCURVE",
"130 129 OFFCURVE",
"130 222 CURVE SMOOTH",
"130 284 OFFCURVE",
"143 355 OFFCURVE",
"168 422 CURVE SMOOTH",
"213 549 OFFCURVE",
"295 652 OFFCURVE",
"390 652 CURVE SMOOTH",
"401 652 OFFCURVE",
"411 651 OFFCURVE",
"422 648 CURVE SMOOTH",
"491 632 OFFCURVE",
"521 559 OFFCURVE",
"521 467 CURVE SMOOTH",
"521 412 OFFCURVE",
"510 350 OFFCURVE",
"490 289 CURVE SMOOTH",
"447 153 OFFCURVE",
"359 36 OFFCURVE",
"258 36 CURVE SMOOTH",
"247 36 OFFCURVE",
"236 37 OFFCURVE",
"225 40 CURVE SMOOTH"
);
}
);
};
layerId = "FDC6D5C2-1E82-4E29-8E0D-3EE46E074C54";
paths = (
{
closed = 1;
nodes = (
"403 -12 OFFCURVE",
"545 166 OFFCURVE",
"596 340 CURVE SMOOTH",
"609 385 OFFCURVE",
"616 431 OFFCURVE",
"616 474 CURVE SMOOTH",
"616 596 OFFCURVE",
"560 695 OFFCURVE",
"426 695 CURVE SMOOTH",
"230 695 OFFCURVE",
"92 518 OFFCURVE",
"43 343 CURVE SMOOTH",
"32 300 OFFCURVE",
"25 256 OFFCURVE",
"25 214 CURVE SMOOTH",
"25 90 OFFCURVE",
"81 -12 OFFCURVE",
"211 -12 CURVE SMOOTH"
);
},
{
closed = 1;
nodes = (
"159 56 OFFCURVE",
"130 129 OFFCURVE",
"130 222 CURVE SMOOTH",
"130 284 OFFCURVE",
"143 355 OFFCURVE",
"168 422 CURVE SMOOTH",
"213 549 OFFCURVE",
"295 652 OFFCURVE",
"390 652 CURVE SMOOTH",
"401 652 OFFCURVE",
"411 651 OFFCURVE",
"422 648 CURVE SMOOTH",
"491 632 OFFCURVE",
"521 559 OFFCURVE",
"521 467 CURVE SMOOTH",
"521 412 OFFCURVE",
"510 350 OFFCURVE",
"490 289 CURVE SMOOTH",
"447 153 OFFCURVE",
"359 36 OFFCURVE",
"258 36 CURVE SMOOTH",
"247 36 OFFCURVE",
"236 37 OFFCURVE",
"225 40 CURVE SMOOTH"
);
}
);
width = 610;
}
);
note = zero;
unicode = 0030;
},
{
glyphname = one;
lastChange = "2021-05-05 04:49:43 +0000";
layers = (
{
background = {
paths = (
{
closed = 1;
nodes = (
"145 0 LINE",
"164 101 OFFCURVE",
"320 546 OFFCURVE",
"390 708 CURVE",
"264 708 LINE",
"89 500 LINE",
"124 500 LINE",
"266 632 LINE",
"266 632 OFFCURVE",
"59 82 OFFCURVE",
"24 0 CURVE"
);
}
);
};
layerId = "FDC6D5C2-1E82-4E29-8E0D-3EE46E074C54";
paths = (
{
closed = 1;
nodes = (
"145 0 LINE",
"164 101 OFFCURVE",
"320 546 OFFCURVE",
"390 708 CURVE",
"264 708 LINE",
"89 500 LINE",
"124 500 LINE",
"266 632 LINE",
"266 632 OFFCURVE",
"59 82 OFFCURVE",
"24 0 CURVE"
);
}
);
width = 349;
}
);
note = one;
unicode = 0031;
},
{
glyphname = two;
lastChange = "2021-05-05 04:49:43 +0000";
layers = (
{
background = {
paths = (
{
closed = 1;
nodes = (
"499 -17 OFFCURVE",
"554 62 OFFCURVE",
"557 150 CURVE",
"530 150 LINE",
"529 92 OFFCURVE",
"481 77 OFFCURVE",
"430 77 CURVE SMOOTH",
"421 77 OFFCURVE",
"413 77 OFFCURVE",
"404 78 CURVE SMOOTH",
"359 80 OFFCURVE",
"269 97 OFFCURVE",
"226 112 CURVE SMOOTH",
"206 118 OFFCURVE",
"144 138 OFFCURVE",
"113 134 CURVE",
"146 197 OFFCURVE",
"305 274 OFFCURVE",
"386 316 CURVE SMOOTH",
"484 365 OFFCURVE",
"602 454 OFFCURVE",
"602 575 CURVE SMOOTH",
"602 638 OFFCURVE",
"568 677 OFFCURVE",
"524 696 CURVE SMOOTH",
"492 710 OFFCURVE",
"452 716 OFFCURVE",
"412 716 CURVE SMOOTH",
"382 716 OFFCURVE",
"351 712 OFFCURVE",
"324 706 CURVE SMOOTH",
"254 688 OFFCURVE",
"169 642 OFFCURVE",
"154 568 CURVE SMOOTH",
"152 557 OFFCURVE",
"150 546 OFFCURVE",
"150 537 CURVE SMOOTH",
"150 500 OFFCURVE",
"169 481 OFFCURVE",
"195 481 CURVE SMOOTH",
"208 481 OFFCURVE",
"223 486 OFFCURVE",
"239 496 CURVE",
"236 505 OFFCURVE",
"235 514 OFFCURVE",
"235 524 CURVE SMOOTH",
"235 599 OFFCURVE",
"315 683 OFFCURVE",
"390 683 CURVE SMOOTH",
"459 683 OFFCURVE",
"491 642 OFFCURVE",
"491 591 CURVE SMOOTH",
"491 559 OFFCURVE",
"479 523 OFFCURVE",
"454 491 CURVE SMOOTH",
"341 347 OFFCURVE",
"127 247 OFFCURVE",
"56 122 CURVE SMOOTH",
"41 95 OFFCURVE",
"30 64 OFFCURVE",
"30 30 CURVE SMOOTH",
"30 0 OFFCURVE",
"44 -12 OFFCURVE",
"60 -12 CURVE SMOOTH",
"77 -12 OFFCURVE",
"97 3 OFFCURVE",
"100 26 CURVE SMOOTH",
"103 47 OFFCURVE",
"101 64 OFFCURVE",
"118 82 CURVE SMOOTH",
"124 89 OFFCURVE",
"132 92 OFFCURVE",
"142 92 CURVE SMOOTH",
"184 92 OFFCURVE",
"250 38 OFFCURVE",
"272 20 CURVE SMOOTH",
"305 -4 OFFCURVE",
"351 -17 OFFCURVE",
"393 -17 CURVE SMOOTH"
);
}
);
};
layerId = "FDC6D5C2-1E82-4E29-8E0D-3EE46E074C54";
paths = (
{
closed = 1;
nodes = (
"499 -17 OFFCURVE",
"554 62 OFFCURVE",
"557 150 CURVE",
"530 150 LINE",
"529 92 OFFCURVE",
"481 77 OFFCURVE",
"430 77 CURVE SMOOTH",
"421 77 OFFCURVE",
"413 77 OFFCURVE",
"404 78 CURVE SMOOTH",
"359 80 OFFCURVE",
"269 97 OFFCURVE",
"226 112 CURVE SMOOTH",
"206 118 OFFCURVE",
"144 138 OFFCURVE",
"113 134 CURVE",
"146 197 OFFCURVE",
"305 274 OFFCURVE",
"386 316 CURVE SMOOTH",
"484 365 OFFCURVE",
"602 454 OFFCURVE",
"602 575 CURVE SMOOTH",
"602 638 OFFCURVE",
"568 677 OFFCURVE",
"524 696 CURVE SMOOTH",
"492 710 OFFCURVE",
"452 716 OFFCURVE",
"412 716 CURVE SMOOTH",
"382 716 OFFCURVE",
"351 712 OFFCURVE",
"324 706 CURVE SMOOTH",
"254 688 OFFCURVE",
"169 642 OFFCURVE",
"154 568 CURVE SMOOTH",
"152 557 OFFCURVE",
"150 546 OFFCURVE",
"150 537 CURVE SMOOTH",
"150 500 OFFCURVE",
"169 481 OFFCURVE",
"195 481 CURVE SMOOTH",
"208 481 OFFCURVE",
"223 486 OFFCURVE",
"239 496 CURVE",
"236 505 OFFCURVE",
"235 514 OFFCURVE",
"235 524 CURVE SMOOTH",
"235 599 OFFCURVE",
"315 683 OFFCURVE",
"390 683 CURVE SMOOTH",
"459 683 OFFCURVE",
"491 642 OFFCURVE",
"491 591 CURVE SMOOTH",
"491 559 OFFCURVE",
"479 523 OFFCURVE",
"454 491 CURVE SMOOTH",
"341 347 OFFCURVE",
"127 247 OFFCURVE",
"56 122 CURVE SMOOTH",
"41 95 OFFCURVE",
"30 64 OFFCURVE",
"30 30 CURVE SMOOTH",
"30 0 OFFCURVE",
"44 -12 OFFCURVE",
"60 -12 CURVE SMOOTH",
"77 -12 OFFCURVE",
"97 3 OFFCURVE",
"100 26 CURVE SMOOTH",
"103 47 OFFCURVE",
"101 64 OFFCURVE",
"118 82 CURVE SMOOTH",
"124 89 OFFCURVE",
"132 92 OFFCURVE",
"142 92 CURVE SMOOTH",
"184 92 OFFCURVE",
"250 38 OFFCURVE",
"272 20 CURVE SMOOTH",
"305 -4 OFFCURVE",
"351 -17 OFFCURVE",
"393 -17 CURVE SMOOTH"
);
}
);
width = 568;
}
);
note = two;
unicode = 0032;
},
{
glyphname = three;
lastChange = "2021-05-05 04:49:43 +0000";
layers = (
{
background = {
paths = (
{
closed = 1;
nodes = (
"317 -13 OFFCURVE",
"412 12 OFFCURVE",
"476 66 CURVE SMOOTH",
"526 108 OFFCURVE",
"554 165 OFFCURVE",
"554 218 CURVE SMOOTH",
"554 280 OFFCURVE",
"518 338 OFFCURVE",
"439 366 CURVE SMOOTH",
"425 372 OFFCURVE",
"408 377 OFFCURVE",
"389 380 CURVE",
"508 413 OFFCURVE",
"583 488 OFFCURVE",
"592 559 CURVE SMOOTH",
"593 566 OFFCURVE",
"593 572 OFFCURVE",
"593 578 CURVE SMOOTH",
"593 639 OFFCURVE",
"559 678 OFFCURVE",
"516 696 CURVE SMOOTH",
"482 710 OFFCURVE",
"435 718 OFFCURVE",
"390 718 CURVE SMOOTH",
"359 718 OFFCURVE",
"330 714 OFFCURVE",
"306 708 CURVE SMOOTH",
"236 690 OFFCURVE",
"161 647 OFFCURVE",
"152 581 CURVE SMOOTH",
"151 574 OFFCURVE",
"150 567 OFFCURVE",
"150 560 CURVE SMOOTH",
"150 517 OFFCURVE",
"173 493 OFFCURVE",
"200 493 CURVE SMOOTH",
"208 493 OFFCURVE",
"215 495 OFFCURVE",
"223 498 CURVE",
"219 511 OFFCURVE",
"217 524 OFFCURVE",
"217 537 CURVE SMOOTH",
"217 616 OFFCURVE",
"283 690 OFFCURVE",
"364 690 CURVE SMOOTH",
"447 690 OFFCURVE",
"478 641 OFFCURVE",
"478 586 CURVE SMOOTH",
"478 547 OFFCURVE",
"463 506 OFFCURVE",
"440 475 CURVE SMOOTH",
"410 433 OFFCURVE",
"359 400 OFFCURVE",
"304 386 CURVE",
"280 397 OFFCURVE",
"252 404 OFFCURVE",
"228 404 CURVE SMOOTH",
"218 404 OFFCURVE",
"208 402 OFFCURVE",
"200 400 CURVE SMOOTH",
"180 393 OFFCURVE",
"172 377 OFFCURVE",
"172 364 CURVE SMOOTH",
"172 349 OFFCURVE",
"181 336 OFFCURVE",
"196 336 CURVE SMOOTH",
"200 336 OFFCURVE",
"204 336 OFFCURVE",
"208 338 CURVE",
"235 351 OFFCURVE",
"262 356 OFFCURVE",
"286 356 CURVE SMOOTH",
"372 356 OFFCURVE",
"435 288 OFFCURVE",
"435 203 CURVE SMOOTH",
"435 182 OFFCURVE",
"432 161 OFFCURVE",
"424 139 CURVE SMOOTH",
"397 68 OFFCURVE",
"330 19 OFFCURVE",
"249 19 CURVE SMOOTH",
"175 19 OFFCURVE",
"113 53 OFFCURVE",
"113 132 CURVE SMOOTH",
"113 164 OFFCURVE",
"127 198 OFFCURVE",
"151 233 CURVE",
"139 239 OFFCURVE",
"125 243 OFFCURVE",
"112 243 CURVE SMOOTH",
"96 243 OFFCURVE",
"80 238 OFFCURVE",
"67 228 CURVE SMOOTH",
"36 206 OFFCURVE",
"20 170 OFFCURVE",
"20 133 CURVE SMOOTH",
"20 105 OFFCURVE",
"29 77 OFFCURVE",
"47 54 CURVE SMOOTH",
"85 4 OFFCURVE",
"161 -13 OFFCURVE",
"236 -13 CURVE SMOOTH"
);
}
);
};
layerId = "FDC6D5C2-1E82-4E29-8E0D-3EE46E074C54";
paths = (
{
closed = 1;
nodes = (
"317 -13 OFFCURVE",
"412 12 OFFCURVE",
"476 66 CURVE SMOOTH",
"526 108 OFFCURVE",
"554 165 OFFCURVE",
"554 218 CURVE SMOOTH",
"554 280 OFFCURVE",
"518 338 OFFCURVE",
"439 366 CURVE SMOOTH",
"425 372 OFFCURVE",
"408 377 OFFCURVE",
"389 380 CURVE",
"508 413 OFFCURVE",
"583 488 OFFCURVE",
"592 559 CURVE SMOOTH",
"593 566 OFFCURVE",
"593 572 OFFCURVE",
"593 578 CURVE SMOOTH",
"593 639 OFFCURVE",
"559 678 OFFCURVE",
"516 696 CURVE SMOOTH",
"482 710 OFFCURVE",
"435 718 OFFCURVE",
"390 718 CURVE SMOOTH",
"359 718 OFFCURVE",
"330 714 OFFCURVE",
"306 708 CURVE SMOOTH",
"236 690 OFFCURVE",
"161 647 OFFCURVE",
"152 581 CURVE SMOOTH",
"151 574 OFFCURVE",
"150 567 OFFCURVE",
"150 560 CURVE SMOOTH",
"150 517 OFFCURVE",
"173 493 OFFCURVE",
"200 493 CURVE SMOOTH",
"208 493 OFFCURVE",
"215 495 OFFCURVE",
"223 498 CURVE",
"219 511 OFFCURVE",
"217 524 OFFCURVE",
"217 537 CURVE SMOOTH",
"217 616 OFFCURVE",
"283 690 OFFCURVE",
"364 690 CURVE SMOOTH",
"447 690 OFFCURVE",
"478 641 OFFCURVE",
"478 586 CURVE SMOOTH",
"478 547 OFFCURVE",
"463 506 OFFCURVE",
"440 475 CURVE SMOOTH",
"410 433 OFFCURVE",
"359 400 OFFCURVE",
"304 386 CURVE",
"280 397 OFFCURVE",
"252 404 OFFCURVE",
"228 404 CURVE SMOOTH",
"218 404 OFFCURVE",
"208 402 OFFCURVE",
"200 400 CURVE SMOOTH",
"180 393 OFFCURVE",
"172 377 OFFCURVE",
"172 364 CURVE SMOOTH",
"172 349 OFFCURVE",
"181 336 OFFCURVE",
"196 336 CURVE SMOOTH",
"200 336 OFFCURVE",
"204 336 OFFCURVE",
"208 338 CURVE",
"235 351 OFFCURVE",
"262 356 OFFCURVE",
"286 356 CURVE SMOOTH",
"372 356 OFFCURVE",
"435 288 OFFCURVE",
"435 203 CURVE SMOOTH",
"435 182 OFFCURVE",
"432 161 OFFCURVE",
"424 139 CURVE SMOOTH",
"397 68 OFFCURVE",
"330 19 OFFCURVE",
"249 19 CURVE SMOOTH",
"175 19 OFFCURVE",
"113 53 OFFCURVE",
"113 132 CURVE SMOOTH",
"113 164 OFFCURVE",
"127 198 OFFCURVE",
"151 233 CURVE",
"139 239 OFFCURVE",
"125 243 OFFCURVE",
"112 243 CURVE SMOOTH",
"96 243 OFFCURVE",
"80 238 OFFCURVE",
"67 228 CURVE SMOOTH",
"36 206 OFFCURVE",
"20 170 OFFCURVE",
"20 133 CURVE SMOOTH",
"20 105 OFFCURVE",
"29 77 OFFCURVE",
"47 54 CURVE SMOOTH",
"85 4 OFFCURVE",
"161 -13 OFFCURVE",
"236 -13 CURVE SMOOTH"
);
}
);
width = 600;
}
);
note = three;
unicode = 0033;
},
{
glyphname = four;
lastChange = "2021-05-05 04:49:43 +0000";
layers = (
{
background = {
paths = (
{
closed = 1;
nodes = (
"397 0 LINE",
"407 40 OFFCURVE",
"430 120 OFFCURVE",
"462 220 CURVE",
"475 218 OFFCURVE",
"488 217 OFFCURVE",
"500 217 CURVE SMOOTH",
"515 217 OFFCURVE",
"530 219 OFFCURVE",
"545 221 CURVE SMOOTH",
"640 236 OFFCURVE",
"685 299 OFFCURVE",
"685 348 CURVE SMOOTH",
"685 355 OFFCURVE",
"684 361 OFFCURVE",
"682 367 CURVE SMOOTH",
"675 388 OFFCURVE",
"658 410 OFFCURVE",
"637 410 CURVE SMOOTH",
"630 410 OFFCURVE",
"622 408 OFFCURVE",
"614 402 CURVE",
"622 392 OFFCURVE",
"625 377 OFFCURVE",
"623 366 CURVE SMOOTH",
"614 314 OFFCURVE",
"559 295 OFFCURVE",
"486 290 CURVE",
"539 450 OFFCURVE",
"600 613 OFFCURVE",
"640 708 CURVE",
"516 708 LINE",
"47 306 LINE",
"21 293 OFFCURVE",
"4 270 OFFCURVE",
"4 239 CURVE SMOOTH",
"4 211 OFFCURVE",
"17 198 OFFCURVE",
"31 197 CURVE SMOOTH",
"44 197 OFFCURVE",
"58 205 OFFCURVE",
"58 222 CURVE SMOOTH",
"58 241 OFFCURVE",
"60 260 OFFCURVE",
"83 275 CURVE SMOOTH",
"97 283 OFFCURVE",
"115 287 OFFCURVE",
"135 287 CURVE SMOOTH",
"151 287 OFFCURVE",
"169 285 OFFCURVE",
"187 281 CURVE SMOOTH",
"244 268 OFFCURVE",
"302 248 OFFCURVE",
"368 233 CURVE",
"329 127 OFFCURVE",
"295 38 OFFCURVE",
"278 0 CURVE"
);
},
{
closed = 1;
nodes = (
"336 294 OFFCURVE",
"290 301 OFFCURVE",
"271 304 CURVE SMOOTH",
"253 306 OFFCURVE",
"226 311 OFFCURVE",
"194 314 CURVE SMOOTH",
"172 318 OFFCURVE",
"163 318 OFFCURVE",
"125 320 CURVE",
"527 659 LINE",
"527 659 OFFCURVE",
"451 458 OFFCURVE",
"390 292 CURVE"
);
}
);
};
layerId = "FDC6D5C2-1E82-4E29-8E0D-3EE46E074C54";
paths = (
{
closed = 1;
nodes = (
"397 0 LINE",
"407 40 OFFCURVE",
"430 120 OFFCURVE",
"462 220 CURVE",
"475 218 OFFCURVE",
"488 217 OFFCURVE",
"500 217 CURVE SMOOTH",
"515 217 OFFCURVE",
"530 219 OFFCURVE",
"545 221 CURVE SMOOTH",
"640 236 OFFCURVE",
"685 299 OFFCURVE",
"685 348 CURVE SMOOTH",
"685 355 OFFCURVE",
"684 361 OFFCURVE",
"682 367 CURVE SMOOTH",
"675 388 OFFCURVE",
"658 410 OFFCURVE",
"637 410 CURVE SMOOTH",
"630 410 OFFCURVE",
"622 408 OFFCURVE",
"614 402 CURVE",
"622 392 OFFCURVE",
"625 377 OFFCURVE",
"623 366 CURVE SMOOTH",
"614 314 OFFCURVE",
"559 295 OFFCURVE",
"486 290 CURVE",
"539 450 OFFCURVE",
"600 613 OFFCURVE",
"640 708 CURVE",
"516 708 LINE",
"47 306 LINE",
"21 293 OFFCURVE",
"4 270 OFFCURVE",
"4 239 CURVE SMOOTH",
"4 211 OFFCURVE",
"17 198 OFFCURVE",
"31 197 CURVE SMOOTH",
"44 197 OFFCURVE",
"58 205 OFFCURVE",
"58 222 CURVE SMOOTH",
"58 241 OFFCURVE",
"60 260 OFFCURVE",
"83 275 CURVE SMOOTH",
"97 283 OFFCURVE",
"115 287 OFFCURVE",
"135 287 CURVE SMOOTH",
"151 287 OFFCURVE",
"169 285 OFFCURVE",
"187 281 CURVE SMOOTH",
"244 268 OFFCURVE",
"302 248 OFFCURVE",
"368 233 CURVE",
"329 127 OFFCURVE",
"295 38 OFFCURVE",
"278 0 CURVE"
);
},
{
closed = 1;
nodes = (
"336 294 OFFCURVE",
"290 301 OFFCURVE",
"271 304 CURVE SMOOTH",
"253 306 OFFCURVE",
"226 311 OFFCURVE",
"194 314 CURVE SMOOTH",
"172 318 OFFCURVE",
"163 318 OFFCURVE",
"125 320 CURVE",
"527 659 LINE",
"527 659 OFFCURVE",
"451 458 OFFCURVE",
"390 292 CURVE"
);
}
);
width = 688;
}
);
note = four;
unicode = 0034;
},
{
glyphname = five;
lastChange = "2021-05-05 04:49:43 +0000";
layers = (
{
background = {
paths = (
{
closed = 1;
nodes = (
"367 -8 OFFCURVE",
"535 65 OFFCURVE",
"551 247 CURVE SMOOTH",
"562 367 OFFCURVE",
"462 466 OFFCURVE",
"302 466 CURVE SMOOTH",
"280 466 OFFCURVE",
"258 464 OFFCURVE",
"234 460 CURVE SMOOTH",
"221 457 OFFCURVE",
"210 454 OFFCURVE",
"185 446 CURVE",
"210 506 OFFCURVE",
"274 643 OFFCURVE",
"274 643 CURVE",
"297 643 OFFCURVE",
"322 643 OFFCURVE",
"350 643 CURVE SMOOTH",
"364 643 OFFCURVE",
"379 643 OFFCURVE",
"394 643 CURVE SMOOTH",
"475 642 OFFCURVE",
"531 636 OFFCURVE",
"534 576 CURVE SMOOTH",
"534 570 OFFCURVE",
"532 558 OFFCURVE",
"528 547 CURVE SMOOTH",
"523 530 LINE",
"543 529 LINE",
"571 602 LINE SMOOTH",
"583 629 OFFCURVE",
"593 659 OFFCURVE",
"593 681 CURVE SMOOTH",
"593 687 OFFCURVE",
"592 692 OFFCURVE",
"591 697 CURVE SMOOTH",
"586 710 OFFCURVE",
"571 713 OFFCURVE",
"545 713 CURVE SMOOTH",
"520 712 OFFCURVE",
"484 708 OFFCURVE",
"439 708 CURVE SMOOTH",
"249 708 LINE",
"220 646 OFFCURVE",
"163 524 OFFCURVE",
"127 437 CURVE SMOOTH",
"123 428 OFFCURVE",
"121 420 OFFCURVE",
"121 415 CURVE SMOOTH",
"121 407 OFFCURVE",
"126 404 OFFCURVE",
"134 404 CURVE SMOOTH",
"143 404 OFFCURVE",
"155 407 OFFCURVE",
"169 412 CURVE SMOOTH",
"193 420 OFFCURVE",
"219 424 OFFCURVE",
"243 424 CURVE SMOOTH",
"281 424 OFFCURVE",
"316 415 OFFCURVE",
"345 397 CURVE SMOOTH",
"395 366 OFFCURVE",
"431 312 OFFCURVE",
"431 241 CURVE SMOOTH",
"431 215 OFFCURVE",
"426 187 OFFCURVE",
"415 157 CURVE SMOOTH",
"387 79 OFFCURVE",
"328 25 OFFCURVE",
"255 22 CURVE SMOOTH",
"179 18 OFFCURVE",
"111 53 OFFCURVE",
"111 142 CURVE SMOOTH",
"111 178 OFFCURVE",
"124 227 OFFCURVE",
"156 262 CURVE",
"143 271 OFFCURVE",
"127 276 OFFCURVE",
"111 276 CURVE SMOOTH",
"94 276 OFFCURVE",
"76 271 OFFCURVE",
"61 259 CURVE SMOOTH",
"30 234 OFFCURVE",
"14 194 OFFCURVE",
"14 153 CURVE SMOOTH",
"14 122 OFFCURVE",
"23 91 OFFCURVE",
"41 65 CURVE SMOOTH",
"77 12 OFFCURVE",
"148 -8 OFFCURVE",
"220 -8 CURVE SMOOTH"
);
}
);
};
layerId = "FDC6D5C2-1E82-4E29-8E0D-3EE46E074C54";
paths = (
{
closed = 1;
nodes = (
"367 -8 OFFCURVE",
"535 65 OFFCURVE",
"551 247 CURVE SMOOTH",
"562 367 OFFCURVE",
"462 466 OFFCURVE",
"302 466 CURVE SMOOTH",
"280 466 OFFCURVE",
"258 464 OFFCURVE",
"234 460 CURVE SMOOTH",
"221 457 OFFCURVE",
"210 454 OFFCURVE",
"185 446 CURVE",
"210 506 OFFCURVE",
"274 643 OFFCURVE",
"274 643 CURVE",
"297 643 OFFCURVE",
"322 643 OFFCURVE",
"350 643 CURVE SMOOTH",
"364 643 OFFCURVE",
"379 643 OFFCURVE",
"394 643 CURVE SMOOTH",
"475 642 OFFCURVE",
"531 636 OFFCURVE",
"534 576 CURVE SMOOTH",
"534 570 OFFCURVE",
"532 558 OFFCURVE",
"528 547 CURVE SMOOTH",
"523 530 LINE",
"543 529 LINE",
"571 602 LINE SMOOTH",
"583 629 OFFCURVE",
"593 659 OFFCURVE",
"593 681 CURVE SMOOTH",
"593 687 OFFCURVE",
"592 692 OFFCURVE",
"591 697 CURVE SMOOTH",
"586 710 OFFCURVE",
"571 713 OFFCURVE",
"545 713 CURVE SMOOTH",
"520 712 OFFCURVE",
"484 708 OFFCURVE",
"439 708 CURVE SMOOTH",
"249 708 LINE",
"220 646 OFFCURVE",
"163 524 OFFCURVE",
"127 437 CURVE SMOOTH",
"123 428 OFFCURVE",
"121 420 OFFCURVE",
"121 415 CURVE SMOOTH",
"121 407 OFFCURVE",
"126 404 OFFCURVE",
"134 404 CURVE SMOOTH",
"143 404 OFFCURVE",
"155 407 OFFCURVE",
"169 412 CURVE SMOOTH",
"193 420 OFFCURVE",
"219 424 OFFCURVE",
"243 424 CURVE SMOOTH",
"281 424 OFFCURVE",
"316 415 OFFCURVE",
"345 397 CURVE SMOOTH",
"395 366 OFFCURVE",
"431 312 OFFCURVE",
"431 241 CURVE SMOOTH",
"431 215 OFFCURVE",
"426 187 OFFCURVE",
"415 157 CURVE SMOOTH",
"387 79 OFFCURVE",
"328 25 OFFCURVE",
"255 22 CURVE SMOOTH",
"179 18 OFFCURVE",
"111 53 OFFCURVE",
"111 142 CURVE SMOOTH",
"111 178 OFFCURVE",
"124 227 OFFCURVE",
"156 262 CURVE",
"143 271 OFFCURVE",
"127 276 OFFCURVE",
"111 276 CURVE SMOOTH",
"94 276 OFFCURVE",
"76 271 OFFCURVE",
"61 259 CURVE SMOOTH",
"30 234 OFFCURVE",
"14 194 OFFCURVE",
"14 153 CURVE SMOOTH",
"14 122 OFFCURVE",
"23 91 OFFCURVE",
"41 65 CURVE SMOOTH",
"77 12 OFFCURVE",
"148 -8 OFFCURVE",
"220 -8 CURVE SMOOTH"
);
}
);
width = 582;
}
);
note = five;
unicode = 0035;
},
{
glyphname = six;
lastChange = "2021-05-05 04:49:43 +0000";
layers = (
{
background = {
paths = (
{
closed = 1;
nodes = (
"398 -2 OFFCURVE",
"533 91 OFFCURVE",
"546 263 CURVE SMOOTH",
"554 377 OFFCURVE",
"484 456 OFFCURVE",
"360 456 CURVE SMOOTH",
"296 456 OFFCURVE",
"224 439 OFFCURVE",
"167 392 CURVE",
"208 508 OFFCURVE",
"268 596 OFFCURVE",
"340 642 CURVE SMOOTH",
"366 659 OFFCURVE",
"400 674 OFFCURVE",
"433 674 CURVE SMOOTH",
"477 674 OFFCURVE",
"514 655 OFFCURVE",
"514 608 CURVE SMOOTH",
"514 590 OFFCURVE",
"507 565 OFFCURVE",
"488 553 CURVE",
"498 529 OFFCURVE",
"514 520 OFFCURVE",
"531 520 CURVE SMOOTH",
"543 520 OFFCURVE",
"555 525 OFFCURVE",
"566 532 CURVE SMOOTH",
"581 541 OFFCURVE",
"589 563 OFFCURVE",
"589 588 CURVE SMOOTH",
"589 598 OFFCURVE",
"588 610 OFFCURVE",
"584 618 CURVE",
"575 659 OFFCURVE",
"546 685 OFFCURVE",
"510 700 CURVE SMOOTH",
"486 709 OFFCURVE",
"459 713 OFFCURVE",
"432 713 CURVE SMOOTH",
"399 713 OFFCURVE",
"365 707 OFFCURVE",
"336 697 CURVE SMOOTH",
"152 633 OFFCURVE",
"31 386 OFFCURVE",
"31 196 CURVE SMOOTH",
"31 74 OFFCURVE",
"79 -12 OFFCURVE",
"250 -6 CURVE SMOOTH"
);
},
{
closed = 1;
nodes = (
"168 28 OFFCURVE",
"132 94 OFFCURVE",
"132 175 CURVE SMOOTH",
"132 184 OFFCURVE",
"132 193 OFFCURVE",
"133 202 CURVE SMOOTH",
"144 312 OFFCURVE",
"191 407 OFFCURVE",
"310 413 CURVE SMOOTH",
"395 416 OFFCURVE",
"440 345 OFFCURVE",
"440 261 CURVE SMOOTH",
"440 253 OFFCURVE",
"440 244 OFFCURVE",
"439 236 CURVE SMOOTH",
"430 135 OFFCURVE",
"351 28 OFFCURVE",
"246 28 CURVE SMOOTH"
);
}
);
};
layerId = "FDC6D5C2-1E82-4E29-8E0D-3EE46E074C54";
paths = (
{
closed = 1;
nodes = (
"398 -2 OFFCURVE",
"533 91 OFFCURVE",
"546 263 CURVE SMOOTH",
"554 377 OFFCURVE",
"484 456 OFFCURVE",
"360 456 CURVE SMOOTH",
"296 456 OFFCURVE",
"224 439 OFFCURVE",
"167 392 CURVE",
"208 508 OFFCURVE",
"268 596 OFFCURVE",
"340 642 CURVE SMOOTH",
"366 659 OFFCURVE",
"400 674 OFFCURVE",
"433 674 CURVE SMOOTH",
"477 674 OFFCURVE",
"514 655 OFFCURVE",
"514 608 CURVE SMOOTH",
"514 590 OFFCURVE",
"507 565 OFFCURVE",
"488 553 CURVE",
"498 529 OFFCURVE",
"514 520 OFFCURVE",
"531 520 CURVE SMOOTH",
"543 520 OFFCURVE",
"555 525 OFFCURVE",
"566 532 CURVE SMOOTH",
"581 541 OFFCURVE",
"589 563 OFFCURVE",
"589 588 CURVE SMOOTH",
"589 598 OFFCURVE",
"588 610 OFFCURVE",
"584 618 CURVE",
"575 659 OFFCURVE",
"546 685 OFFCURVE",
"510 700 CURVE SMOOTH",
"486 709 OFFCURVE",
"459 713 OFFCURVE",
"432 713 CURVE SMOOTH",
"399 713 OFFCURVE",
"365 707 OFFCURVE",
"336 697 CURVE SMOOTH",
"152 633 OFFCURVE",
"31 386 OFFCURVE",
"31 196 CURVE SMOOTH",
"31 74 OFFCURVE",
"79 -12 OFFCURVE",
"250 -6 CURVE SMOOTH"
);
},
{
closed = 1;
nodes = (
"168 28 OFFCURVE",
"132 94 OFFCURVE",
"132 175 CURVE SMOOTH",
"132 184 OFFCURVE",
"132 193 OFFCURVE",
"133 202 CURVE SMOOTH",
"144 312 OFFCURVE",
"191 407 OFFCURVE",
"310 413 CURVE SMOOTH",
"395 416 OFFCURVE",
"440 345 OFFCURVE",
"440 261 CURVE SMOOTH",
"440 253 OFFCURVE",
"440 244 OFFCURVE",
"439 236 CURVE SMOOTH",
"430 135 OFFCURVE",
"351 28 OFFCURVE",
"246 28 CURVE SMOOTH"
);
}
);
width = 583;
}
);
note = six;
unicode = 0036;
},
{
glyphname = seven;
lastChange = "2021-05-05 04:49:43 +0000";
layers = (
{
background = {
paths = (
{
closed = 1;
nodes = (
"222 20 OFFCURVE",
"236 38 OFFCURVE",
"242 66 CURVE",
"235 64 OFFCURVE",
"228 63 OFFCURVE",
"222 63 CURVE SMOOTH",
"215 63 OFFCURVE",
"208 64 OFFCURVE",
"204 67 CURVE SMOOTH",
"187 77 OFFCURVE",
"181 93 OFFCURVE",
"181 112 CURVE SMOOTH",
"181 149 OFFCURVE",
"204 195 OFFCURVE",
"217 221 CURVE SMOOTH",
"251 283 OFFCURVE",
"306 358 OFFCURVE",
"364 433 CURVE SMOOTH",
"420 508 OFFCURVE",
"479 581 OFFCURVE",
"523 637 CURVE SMOOTH",
"541 660 OFFCURVE",
"544 673 OFFCURVE",
"544 682 CURVE SMOOTH",
"544 690 OFFCURVE",
"542 708 OFFCURVE",
"529 708 CURVE SMOOTH",
"276 708 LINE SMOOTH",
"229 708 OFFCURVE",
"192 713 OFFCURVE",
"165 713 CURVE SMOOTH",
"140 713 OFFCURVE",
"124 709 OFFCURVE",
"110 697 CURVE SMOOTH",
"98 685 OFFCURVE",
"89 652 OFFCURVE",
"79 613 CURVE SMOOTH",
"71 576 OFFCURVE",
"62 534 OFFCURVE",
"52 504 CURVE SMOOTH",
"50 499 OFFCURVE",
"53 496 OFFCURVE",
"61 494 CURVE",
"72 494 OFFCURVE",
"80 498 OFFCURVE",
"83 502 CURVE SMOOTH",
"85 506 OFFCURVE",
"88 512 OFFCURVE",
"91 520 CURVE SMOOTH",
"94 527 OFFCURVE",
"96 534 OFFCURVE",
"98 541 CURVE SMOOTH",
"102 550 OFFCURVE",
"104 558 OFFCURVE",
"107 564 CURVE SMOOTH",
"115 584 OFFCURVE",
"126 605 OFFCURVE",
"146 617 CURVE SMOOTH",
"163 628 OFFCURVE",
"187 634 OFFCURVE",
"233 634 CURVE SMOOTH",
"445 634 LINE",
"447 629 OFFCURVE",
"447 625 OFFCURVE",
"447 620 CURVE SMOOTH",
"447 604 OFFCURVE",
"438 588 OFFCURVE",
"419 564 CURVE SMOOTH",
"400 538 OFFCURVE",
"370 506 OFFCURVE",
"337 473 CURVE SMOOTH",
"305 440 OFFCURVE",
"269 406 OFFCURVE",
"239 376 CURVE SMOOTH",
"143 281 OFFCURVE",
"52 175 OFFCURVE",
"52 77 CURVE SMOOTH",
"52 20 OFFCURVE",
"94 -11 OFFCURVE",
"141 -11 CURVE SMOOTH",
"163 -11 OFFCURVE",
"186 -4 OFFCURVE",
"206 10 CURVE SMOOTH"
);
}
);
};
layerId = "FDC6D5C2-1E82-4E29-8E0D-3EE46E074C54";
paths = (
{
closed = 1;
nodes = (
"222 20 OFFCURVE",
"236 38 OFFCURVE",
"242 66 CURVE",
"235 64 OFFCURVE",
"228 63 OFFCURVE",
"222 63 CURVE SMOOTH",
"215 63 OFFCURVE",
"208 64 OFFCURVE",
"204 67 CURVE SMOOTH",
"187 77 OFFCURVE",
"181 93 OFFCURVE",
"181 112 CURVE SMOOTH",
"181 149 OFFCURVE",
"204 195 OFFCURVE",
"217 221 CURVE SMOOTH",
"251 283 OFFCURVE",
"306 358 OFFCURVE",
"364 433 CURVE SMOOTH",
"420 508 OFFCURVE",
"479 581 OFFCURVE",
"523 637 CURVE SMOOTH",
"541 660 OFFCURVE",
"544 673 OFFCURVE",
"544 682 CURVE SMOOTH",
"544 690 OFFCURVE",
"542 708 OFFCURVE",
"529 708 CURVE SMOOTH",
"276 708 LINE SMOOTH",
"229 708 OFFCURVE",
"192 713 OFFCURVE",
"165 713 CURVE SMOOTH",
"140 713 OFFCURVE",
"124 709 OFFCURVE",
"110 697 CURVE SMOOTH",
"98 685 OFFCURVE",
"89 652 OFFCURVE",
"79 613 CURVE SMOOTH",
"71 576 OFFCURVE",
"62 534 OFFCURVE",
"52 504 CURVE SMOOTH",
"50 499 OFFCURVE",
"53 496 OFFCURVE",
"61 494 CURVE",
"72 494 OFFCURVE",
"80 498 OFFCURVE",
"83 502 CURVE SMOOTH",
"85 506 OFFCURVE",
"88 512 OFFCURVE",
"91 520 CURVE SMOOTH",
"94 527 OFFCURVE",
"96 534 OFFCURVE",
"98 541 CURVE SMOOTH",
"102 550 OFFCURVE",
"104 558 OFFCURVE",
"107 564 CURVE SMOOTH",
"115 584 OFFCURVE",
"126 605 OFFCURVE",
"146 617 CURVE SMOOTH",
"163 628 OFFCURVE",
"187 634 OFFCURVE",
"233 634 CURVE SMOOTH",
"445 634 LINE",
"447 629 OFFCURVE",
"447 625 OFFCURVE",
"447 620 CURVE SMOOTH",
"447 604 OFFCURVE",
"438 588 OFFCURVE",
"419 564 CURVE SMOOTH",
"400 538 OFFCURVE",
"370 506 OFFCURVE",
"337 473 CURVE SMOOTH",
"305 440 OFFCURVE",
"269 406 OFFCURVE",
"239 376 CURVE SMOOTH",
"143 281 OFFCURVE",
"52 175 OFFCURVE",
"52 77 CURVE SMOOTH",
"52 20 OFFCURVE",
"94 -11 OFFCURVE",
"141 -11 CURVE SMOOTH",
"163 -11 OFFCURVE",
"186 -4 OFFCURVE",
"206 10 CURVE SMOOTH"
);
}
);
width = 539;
}
);
note = seven;
unicode = 0037;
},
{
glyphname = eight;
lastChange = "2021-05-05 04:49:43 +0000";
layers = (
{
background = {
paths = (
{
closed = 1;
nodes = (
"370 -11 OFFCURVE",
"514 83 OFFCURVE",
"536 203 CURVE SMOOTH",
"538 215 OFFCURVE",
"540 227 OFFCURVE",
"540 239 CURVE SMOOTH",
"540 300 OFFCURVE",
"507 356 OFFCURVE",
"440 394 CURVE",
"529 427 OFFCURVE",
"584 478 OFFCURVE",
"598 547 CURVE SMOOTH",
"600 557 OFFCURVE",
"601 567 OFFCURVE",
"601 576 CURVE SMOOTH",
"601 662 OFFCURVE",
"526 720 OFFCURVE",
"406 720 CURVE SMOOTH",
"242 720 OFFCURVE",
"149 631 OFFCURVE",
"149 519 CURVE SMOOTH",
"149 465 OFFCURVE",
"174 429 OFFCURVE",
"222 396 CURVE",
"108 359 OFFCURVE",
"24 283 OFFCURVE",
"7 194 CURVE SMOOTH",
"5 183 OFFCURVE",
"4 172 OFFCURVE",
"4 161 CURVE SMOOTH",
"4 61 OFFCURVE",
"98 -11 OFFCURVE",
"224 -11 CURVE SMOOTH"
);
},
{
closed = 1;
nodes = (
"158 35 OFFCURVE",
"103 87 OFFCURVE",
"103 153 CURVE SMOOTH",
"103 178 OFFCURVE",
"110 204 OFFCURVE",
"126 230 CURVE SMOOTH",
"156 281 OFFCURVE",
"218 317 OFFCURVE",
"284 343 CURVE",
"372 320 OFFCURVE",
"456 289 OFFCURVE",
"448 196 CURVE SMOOTH",
"437 85 OFFCURVE",
"337 35 OFFCURVE",
"248 35 CURVE SMOOTH"
);
},
{
closed = 1;
nodes = (
"335 439 OFFCURVE",
"281 474 OFFCURVE",
"255 511 CURVE SMOOTH",
"242 530 OFFCURVE",
"236 548 OFFCURVE",
"236 566 CURVE SMOOTH",
"236 631 OFFCURVE",
"314 684 OFFCURVE",
"397 684 CURVE SMOOTH",
"464 684 OFFCURVE",
"533 634 OFFCURVE",
"532 572 CURVE SMOOTH",
"529 503 OFFCURVE",
"462 456 OFFCURVE",
"386 427 CURVE"
);
}
);
};
layerId = "FDC6D5C2-1E82-4E29-8E0D-3EE46E074C54";
paths = (
{
closed = 1;
nodes = (
"370 -11 OFFCURVE",
"514 83 OFFCURVE",
"536 203 CURVE SMOOTH",
"538 215 OFFCURVE",
"540 227 OFFCURVE",
"540 239 CURVE SMOOTH",
"540 300 OFFCURVE",
"507 356 OFFCURVE",
"440 394 CURVE",
"529 427 OFFCURVE",
"584 478 OFFCURVE",
"598 547 CURVE SMOOTH",
"600 557 OFFCURVE",
"601 567 OFFCURVE",
"601 576 CURVE SMOOTH",
"601 662 OFFCURVE",
"526 720 OFFCURVE",
"406 720 CURVE SMOOTH",
"242 720 OFFCURVE",
"149 631 OFFCURVE",
"149 519 CURVE SMOOTH",
"149 465 OFFCURVE",
"174 429 OFFCURVE",
"222 396 CURVE",
"108 359 OFFCURVE",
"24 283 OFFCURVE",
"7 194 CURVE SMOOTH",
"5 183 OFFCURVE",
"4 172 OFFCURVE",
"4 161 CURVE SMOOTH",
"4 61 OFFCURVE",
"98 -11 OFFCURVE",
"224 -11 CURVE SMOOTH"
);
},
{
closed = 1;
nodes = (
"158 35 OFFCURVE",
"103 87 OFFCURVE",
"103 153 CURVE SMOOTH",
"103 178 OFFCURVE",
"110 204 OFFCURVE",
"126 230 CURVE SMOOTH",
"156 281 OFFCURVE",
"218 317 OFFCURVE",
"284 343 CURVE",
"372 320 OFFCURVE",
"456 289 OFFCURVE",
"448 196 CURVE SMOOTH",
"437 85 OFFCURVE",
"337 35 OFFCURVE",
"248 35 CURVE SMOOTH"
);
},
{
closed = 1;
nodes = (
"335 439 OFFCURVE",
"281 474 OFFCURVE",
"255 511 CURVE SMOOTH",
"242 530 OFFCURVE",
"236 548 OFFCURVE",
"236 566 CURVE SMOOTH",
"236 631 OFFCURVE",
"314 684 OFFCURVE",
"397 684 CURVE SMOOTH",
"464 684 OFFCURVE",
"533 634 OFFCURVE",
"532 572 CURVE SMOOTH",
"529 503 OFFCURVE",
"462 456 OFFCURVE",
"386 427 CURVE"
);
}
);
width = 587;
}
);
note = eight;
unicode = 0038;
},
{
glyphname = nine;
lastChange = "2021-05-05 04:49:43 +0000";
layers = (
{
background = {
paths = (
{
closed = 1;
nodes = (
"298 -13 OFFCURVE",
"396 38 OFFCURVE",
"466 126 CURVE SMOOTH",
"541 220 OFFCURVE",
"595 374 OFFCURVE",
"595 497 CURVE SMOOTH",
"595 623 OFFCURVE",
"538 714 OFFCURVE",
"359 714 CURVE SMOOTH",
"208 714 OFFCURVE",
"79 625 OFFCURVE",
"79 455 CURVE SMOOTH",
"79 338 OFFCURVE",
"163 253 OFFCURVE",
"295 253 CURVE SMOOTH",
"348 253 OFFCURVE",
"413 271 OFFCURVE",
"467 310 CURVE",
"442 244 OFFCURVE",
"417 192 OFFCURVE",
"389 148 CURVE SMOOTH",
"366 110 OFFCURVE",
"324 67 OFFCURVE",
"277 41 CURVE SMOOTH",
"253 27 OFFCURVE",
"224 19 OFFCURVE",
"198 19 CURVE SMOOTH",
"151 19 OFFCURVE",
"111 43 OFFCURVE",
"111 102 CURVE SMOOTH",
"111 127 OFFCURVE",
"113 159 OFFCURVE",
"130 185 CURVE",
"118 191 OFFCURVE",
"106 194 OFFCURVE",
"93 194 CURVE SMOOTH",
"77 194 OFFCURVE",
"61 189 OFFCURVE",
"49 178 CURVE SMOOTH",
"29 159 OFFCURVE",
"20 133 OFFCURVE",
"20 107 CURVE SMOOTH",
"20 96 OFFCURVE",
"21 84 OFFCURVE",
"25 73 CURVE SMOOTH",
"47 1 OFFCURVE",
"109 -13 OFFCURVE",
"179 -13 CURVE SMOOTH"
);
},
{
closed = 1;
nodes = (
"235 295 OFFCURVE",
"183 375 OFFCURVE",
"183 464 CURVE SMOOTH",
"183 566 OFFCURVE",
"254 678 OFFCURVE",
"360 678 CURVE SMOOTH",
"448 678 OFFCURVE",
"492 602 OFFCURVE",
"492 511 CURVE SMOOTH",
"492 395 OFFCURVE",
"449 295 OFFCURVE",
"325 295 CURVE SMOOTH"
);
}
);
};
layerId = "FDC6D5C2-1E82-4E29-8E0D-3EE46E074C54";
paths = (
{
closed = 1;
nodes = (
"298 -13 OFFCURVE",
"396 38 OFFCURVE",
"466 126 CURVE SMOOTH",
"541 220 OFFCURVE",
"595 374 OFFCURVE",
"595 497 CURVE SMOOTH",
"595 623 OFFCURVE",
"538 714 OFFCURVE",
"359 714 CURVE SMOOTH",
"208 714 OFFCURVE",
"79 625 OFFCURVE",
"79 455 CURVE SMOOTH",
"79 338 OFFCURVE",
"163 253 OFFCURVE",
"295 253 CURVE SMOOTH",
"348 253 OFFCURVE",
"413 271 OFFCURVE",
"467 310 CURVE",
"442 244 OFFCURVE",
"417 192 OFFCURVE",
"389 148 CURVE SMOOTH",
"366 110 OFFCURVE",
"324 67 OFFCURVE",
"277 41 CURVE SMOOTH",
"253 27 OFFCURVE",
"224 19 OFFCURVE",
"198 19 CURVE SMOOTH",
"151 19 OFFCURVE",
"111 43 OFFCURVE",
"111 102 CURVE SMOOTH",
"111 127 OFFCURVE",
"113 159 OFFCURVE",
"130 185 CURVE",
"118 191 OFFCURVE",
"106 194 OFFCURVE",
"93 194 CURVE SMOOTH",
"77 194 OFFCURVE",
"61 189 OFFCURVE",
"49 178 CURVE SMOOTH",
"29 159 OFFCURVE",
"20 133 OFFCURVE",
"20 107 CURVE SMOOTH",
"20 96 OFFCURVE",
"21 84 OFFCURVE",
"25 73 CURVE SMOOTH",
"47 1 OFFCURVE",
"109 -13 OFFCURVE",
"179 -13 CURVE SMOOTH"
);
},
{
closed = 1;
nodes = (
"235 295 OFFCURVE",
"183 375 OFFCURVE",
"183 464 CURVE SMOOTH",
"183 566 OFFCURVE",
"254 678 OFFCURVE",
"360 678 CURVE SMOOTH",
"448 678 OFFCURVE",
"492 602 OFFCURVE",
"492 511 CURVE SMOOTH",
"492 395 OFFCURVE",
"449 295 OFFCURVE",
"325 295 CURVE SMOOTH"
);
}
);
width = 613;
}
);
note = nine;
unicode = 0039;
},
{
glyphname = colon;
lastChange = "2021-05-05 04:49:43 +0000";
layers = (
{
background = {
paths = (
{
closed = 1;
nodes = (
"273 312 OFFCURVE",
"310 351 OFFCURVE",
"326 354 CURVE",
"327 358 OFFCURVE",
"328 362 OFFCURVE",
"328 365 CURVE SMOOTH",
"328 383 OFFCURVE",
"310 390 OFFCURVE",
"287 390 CURVE SMOOTH",
"263 390 OFFCURVE",
"242 379 OFFCURVE",
"229 365 CURVE SMOOTH",
"221 357 OFFCURVE",
"216 347 OFFCURVE",
"216 338 CURVE SMOOTH",
"216 330 OFFCURVE",
"220 322 OFFCURVE",
"228 316 CURVE SMOOTH",
"241 306 OFFCURVE",
"260 299 OFFCURVE",
"265 297 CURVE"
);
},
{
closed = 1;
nodes = (
"169 7 OFFCURVE",
"206 46 OFFCURVE",
"222 49 CURVE",
"223 53 OFFCURVE",
"224 57 OFFCURVE",
"224 60 CURVE SMOOTH",
"224 78 OFFCURVE",
"206 85 OFFCURVE",
"183 85 CURVE SMOOTH",
"159 85 OFFCURVE",
"138 74 OFFCURVE",
"125 60 CURVE SMOOTH",
"117 52 OFFCURVE",
"112 42 OFFCURVE",
"112 33 CURVE SMOOTH",
"112 25 OFFCURVE",
"116 17 OFFCURVE",
"124 11 CURVE SMOOTH",
"137 1 OFFCURVE",
"156 -6 OFFCURVE",
"161 -8 CURVE"
);
}
);
};
layerId = "FDC6D5C2-1E82-4E29-8E0D-3EE46E074C54";
paths = (
{
closed = 1;
nodes = (
"273 312 OFFCURVE",
"310 351 OFFCURVE",
"326 354 CURVE",
"327 358 OFFCURVE",
"328 362 OFFCURVE",
"328 365 CURVE SMOOTH",
"328 383 OFFCURVE",
"310 390 OFFCURVE",
"287 390 CURVE SMOOTH",
"263 390 OFFCURVE",
"242 379 OFFCURVE",
"229 365 CURVE SMOOTH",
"221 357 OFFCURVE",
"216 347 OFFCURVE",
"216 338 CURVE SMOOTH",
"216 330 OFFCURVE",
"220 322 OFFCURVE",
"228 316 CURVE SMOOTH",
"241 306 OFFCURVE",
"260 299 OFFCURVE",
"265 297 CURVE"
);
},
{
closed = 1;
nodes = (
"169 7 OFFCURVE",
"206 46 OFFCURVE",
"222 49 CURVE",
"223 53 OFFCURVE",
"224 57 OFFCURVE",
"224 60 CURVE SMOOTH",
"224 78 OFFCURVE",
"206 85 OFFCURVE",
"183 85 CURVE SMOOTH",
"159 85 OFFCURVE",
"138 74 OFFCURVE",
"125 60 CURVE SMOOTH",
"117 52 OFFCURVE",
"112 42 OFFCURVE",
"112 33 CURVE SMOOTH",
"112 25 OFFCURVE",
"116 17 OFFCURVE",
"124 11 CURVE SMOOTH",
"137 1 OFFCURVE",
"156 -6 OFFCURVE",
"161 -8 CURVE"
);
}
);
width = 284;
}
);
note = colon;
unicode = 003A;
},
{
glyphname = semicolon;
lastChange = "2021-05-05 04:49:43 +0000";
layers = (
{
background = {
paths = (
{
closed = 1;
nodes = (
"89 -133 OFFCURVE",
"94 -134 OFFCURVE",
"98 -134 CURVE SMOOTH",
"106 -134 OFFCURVE",
"112 -130 OFFCURVE",
"118 -126 CURVE SMOOTH",
"157 -96 OFFCURVE",
"217 -4 OFFCURVE",
"246 64 CURVE SMOOTH",
"250 74 OFFCURVE",
"226 79 OFFCURVE",
"202 79 CURVE SMOOTH",
"182 79 OFFCURVE",
"162 75 OFFCURVE",
"161 66 CURVE SMOOTH",
"154 21 OFFCURVE",
"132 -58 OFFCURVE",
"84 -130 CURVE"
);
},
{
closed = 1;
nodes = (
"300 295 OFFCURVE",
"337 334 OFFCURVE",
"353 337 CURVE",
"354 341 OFFCURVE",
"355 345 OFFCURVE",
"355 348 CURVE SMOOTH",
"355 366 OFFCURVE",
"337 373 OFFCURVE",
"314 373 CURVE SMOOTH",
"290 373 OFFCURVE",
"269 362 OFFCURVE",
"256 348 CURVE SMOOTH",
"248 340 OFFCURVE",
"243 330 OFFCURVE",
"243 321 CURVE SMOOTH",
"243 313 OFFCURVE",
"247 305 OFFCURVE",
"255 299 CURVE SMOOTH",
"268 289 OFFCURVE",
"287 282 OFFCURVE",
"292 280 CURVE"
);
}
);
};
layerId = "FDC6D5C2-1E82-4E29-8E0D-3EE46E074C54";
paths = (
{
closed = 1;
nodes = (
"89 -133 OFFCURVE",
"94 -134 OFFCURVE",
"98 -134 CURVE SMOOTH",
"106 -134 OFFCURVE",
"112 -130 OFFCURVE",
"118 -126 CURVE SMOOTH",
"157 -96 OFFCURVE",
"217 -4 OFFCURVE",
"246 64 CURVE SMOOTH",
"250 74 OFFCURVE",
"226 79 OFFCURVE",
"202 79 CURVE SMOOTH",
"182 79 OFFCURVE",
"162 75 OFFCURVE",
"161 66 CURVE SMOOTH",
"154 21 OFFCURVE",
"132 -58 OFFCURVE",
"84 -130 CURVE"
);
},
{
closed = 1;
nodes = (
"300 295 OFFCURVE",
"337 334 OFFCURVE",
"353 337 CURVE",
"354 341 OFFCURVE",
"355 345 OFFCURVE",
"355 348 CURVE SMOOTH",
"355 366 OFFCURVE",
"337 373 OFFCURVE",
"314 373 CURVE SMOOTH",
"290 373 OFFCURVE",
"269 362 OFFCURVE",
"256 348 CURVE SMOOTH",
"248 340 OFFCURVE",
"243 330 OFFCURVE",
"243 321 CURVE SMOOTH",
"243 313 OFFCURVE",
"247 305 OFFCURVE",
"255 299 CURVE SMOOTH",
"268 289 OFFCURVE",
"287 282 OFFCURVE",
"292 280 CURVE"
);
}
);
width = 342;
}
);
note = semicolon;
unicode = 003B;
},
{
glyphname = less;
lastChange = "2021-05-05 04:49:43 +0000";
layers = (
{
background = {
paths = (
{
closed = 1;
nodes = (
"310 13 OFFCURVE",
"374 60 OFFCURVE",
"362 80 CURVE SMOOTH",
"321 151 OFFCURVE",
"197 249 OFFCURVE",
"124 301 CURVE",
"197 345 OFFCURVE",
"406 487 OFFCURVE",
"447 536 CURVE SMOOTH",
"458 550 OFFCURVE",
"469 586 OFFCURVE",
"457 577 CURVE SMOOTH",
"329 480 OFFCURVE",
"194 391 OFFCURVE",
"56 313 CURVE SMOOTH",
"35 301 OFFCURVE",
"26 293 OFFCURVE",
"26 285 CURVE SMOOTH",
"26 276 OFFCURVE",
"35 268 OFFCURVE",
"51 257 CURVE SMOOTH",
"148 187 OFFCURVE",
"217 118 OFFCURVE",
"302 22 CURVE SMOOTH"
);
}
);
};
layerId = "FDC6D5C2-1E82-4E29-8E0D-3EE46E074C54";
paths = (
{
closed = 1;
nodes = (
"310 13 OFFCURVE",
"374 60 OFFCURVE",
"362 80 CURVE SMOOTH",
"321 151 OFFCURVE",
"197 249 OFFCURVE",
"124 301 CURVE",
"197 345 OFFCURVE",
"406 487 OFFCURVE",
"447 536 CURVE SMOOTH",
"458 550 OFFCURVE",
"469 586 OFFCURVE",
"457 577 CURVE SMOOTH",
"329 480 OFFCURVE",
"194 391 OFFCURVE",
"56 313 CURVE SMOOTH",
"35 301 OFFCURVE",
"26 293 OFFCURVE",
"26 285 CURVE SMOOTH",
"26 276 OFFCURVE",
"35 268 OFFCURVE",
"51 257 CURVE SMOOTH",
"148 187 OFFCURVE",
"217 118 OFFCURVE",
"302 22 CURVE SMOOTH"
);
}
);
width = 479;
}
);
note = less;
unicode = 003C;
},
{
glyphname = equal;
lastChange = "2021-05-05 04:49:43 +0000";
layers = (
{
background = {
paths = (
{
closed = 1;
nodes = (
"470 367 LINE SMOOTH",
"485 367 OFFCURVE",
"521 425 OFFCURVE",
"513 425 CURVE SMOOTH",
"194 425 LINE SMOOTH",
"179 425 OFFCURVE",
"143 367 OFFCURVE",
"151 367 CURVE SMOOTH"
);
},
{
closed = 1;
nodes = (
"416 180 LINE SMOOTH",
"431 180 OFFCURVE",
"467 238 OFFCURVE",
"459 238 CURVE SMOOTH",
"140 238 LINE SMOOTH",
"125 238 OFFCURVE",
"89 180 OFFCURVE",
"97 180 CURVE SMOOTH"
);
}
);
};
layerId = "FDC6D5C2-1E82-4E29-8E0D-3EE46E074C54";
paths = (
{
closed = 1;
nodes = (
"470 367 LINE SMOOTH",
"485 367 OFFCURVE",
"521 425 OFFCURVE",
"513 425 CURVE SMOOTH",
"194 425 LINE SMOOTH",
"179 425 OFFCURVE",
"143 367 OFFCURVE",
"151 367 CURVE SMOOTH"
);
},
{
closed = 1;
nodes = (
"416 180 LINE SMOOTH",
"431 180 OFFCURVE",
"467 238 OFFCURVE",
"459 238 CURVE SMOOTH",
"140 238 LINE SMOOTH",
"125 238 OFFCURVE",
"89 180 OFFCURVE",
"97 180 CURVE SMOOTH"
);
}
);
width = 531;
}
);
note = equal;
unicode = 003D;
},
{
glyphname = greater;
lastChange = "2021-05-05 04:49:43 +0000";
layers = (
{
background = {
paths = (
{
closed = 1;
nodes = (
"213 119 OFFCURVE",
"348 207 OFFCURVE",
"486 285 CURVE SMOOTH",
"507 297 OFFCURVE",
"516 306 OFFCURVE",
"516 314 CURVE SMOOTH",
"516 323 OFFCURVE",
"507 331 OFFCURVE",
"491 342 CURVE SMOOTH",
"394 412 OFFCURVE",
"325 481 OFFCURVE",
"240 577 CURVE SMOOTH",
"232 586 OFFCURVE",
"168 539 OFFCURVE",
"180 519 CURVE SMOOTH",
"221 448 OFFCURVE",
"345 349 OFFCURVE",
"418 298 CURVE",
"345 253 OFFCURVE",
"135 112 OFFCURVE",
"95 62 CURVE",
"83 50 OFFCURVE",
"73 13 OFFCURVE",
"85 22 CURVE SMOOTH"
);
}
);
};
layerId = "FDC6D5C2-1E82-4E29-8E0D-3EE46E074C54";
paths = (
{
closed = 1;
nodes = (
"213 119 OFFCURVE",
"348 207 OFFCURVE",
"486 285 CURVE SMOOTH",
"507 297 OFFCURVE",
"516 306 OFFCURVE",
"516 314 CURVE SMOOTH",
"516 323 OFFCURVE",
"507 331 OFFCURVE",
"491 342 CURVE SMOOTH",
"394 412 OFFCURVE",
"325 481 OFFCURVE",
"240 577 CURVE SMOOTH",
"232 586 OFFCURVE",
"168 539 OFFCURVE",
"180 519 CURVE SMOOTH",
"221 448 OFFCURVE",
"345 349 OFFCURVE",
"418 298 CURVE",
"345 253 OFFCURVE",
"135 112 OFFCURVE",
"95 62 CURVE",
"83 50 OFFCURVE",
"73 13 OFFCURVE",
"85 22 CURVE SMOOTH"
);
}
);
width = 478;
}
);
note = greater;
unicode = 003E;
},
{
glyphname = question;
lastChange = "2021-05-05 04:49:43 +0000";
layers = (
{
background = {
paths = (
{
closed = 1;
nodes = (
"154 197 OFFCURVE",
"163 192 OFFCURVE",
"174 192 CURVE SMOOTH",
"193 192 OFFCURVE",
"216 207 OFFCURVE",
"212 225 CURVE SMOOTH",
"211 228 OFFCURVE",
"211 232 OFFCURVE",
"211 236 CURVE SMOOTH",
"211 250 OFFCURVE",
"217 265 OFFCURVE",
"226 279 CURVE SMOOTH",
"259 330 OFFCURVE",
"331 361 OFFCURVE",
"394 387 CURVE SMOOTH",
"471 419 OFFCURVE",
"543 453 OFFCURVE",
"553 539 CURVE SMOOTH",
"554 545 OFFCURVE",
"554 551 OFFCURVE",
"554 556 CURVE SMOOTH",
"554 608 OFFCURVE",
"522 642 OFFCURVE",
"481 657 CURVE SMOOTH",
"450 669 OFFCURVE",
"408 675 OFFCURVE",
"367 675 CURVE SMOOTH",
"339 675 OFFCURVE",
"312 672 OFFCURVE",
"290 667 CURVE SMOOTH",
"222 652 OFFCURVE",
"146 610 OFFCURVE",
"146 544 CURVE SMOOTH",
"146 503 OFFCURVE",
"172 478 OFFCURVE",
"202 478 CURVE SMOOTH",
"211 478 OFFCURVE",
"221 481 OFFCURVE",
"230 486 CURVE",
"226 497 OFFCURVE",
"224 507 OFFCURVE",
"224 517 CURVE SMOOTH",
"224 570 OFFCURVE",
"274 616 OFFCURVE",
"302 629 CURVE SMOOTH",
"320 637 OFFCURVE",
"338 641 OFFCURVE",
"354 641 CURVE SMOOTH",
"403 641 OFFCURVE",
"441 607 OFFCURVE",
"440 547 CURVE SMOOTH",
"438 455 OFFCURVE",
"221 326 OFFCURVE",
"216 322 CURVE SMOOTH",
"184 298 OFFCURVE",
"151 260 OFFCURVE",
"151 219 CURVE SMOOTH",
"151 216 OFFCURVE",
"152 212 OFFCURVE",
"152 209 CURVE SMOOTH"
);
},
{
closed = 1;
nodes = (
"142 7 OFFCURVE",
"179 46 OFFCURVE",
"195 49 CURVE",
"196 53 OFFCURVE",
"197 57 OFFCURVE",
"197 60 CURVE SMOOTH",
"197 78 OFFCURVE",
"179 85 OFFCURVE",
"156 85 CURVE SMOOTH",
"132 85 OFFCURVE",
"111 74 OFFCURVE",
"98 60 CURVE SMOOTH",
"90 52 OFFCURVE",
"85 42 OFFCURVE",
"85 33 CURVE SMOOTH",
"85 25 OFFCURVE",
"89 17 OFFCURVE",
"97 11 CURVE SMOOTH",
"110 1 OFFCURVE",
"129 -6 OFFCURVE",
"134 -8 CURVE"
);
}
);
};
layerId = "FDC6D5C2-1E82-4E29-8E0D-3EE46E074C54";
paths = (
{
closed = 1;
nodes = (
"154 197 OFFCURVE",
"163 192 OFFCURVE",
"174 192 CURVE SMOOTH",
"193 192 OFFCURVE",
"216 207 OFFCURVE",
"212 225 CURVE SMOOTH",
"211 228 OFFCURVE",
"211 232 OFFCURVE",
"211 236 CURVE SMOOTH",
"211 250 OFFCURVE",
"217 265 OFFCURVE",
"226 279 CURVE SMOOTH",
"259 330 OFFCURVE",
"331 361 OFFCURVE",
"394 387 CURVE SMOOTH",
"471 419 OFFCURVE",
"543 453 OFFCURVE",
"553 539 CURVE SMOOTH",
"554 545 OFFCURVE",
"554 551 OFFCURVE",
"554 556 CURVE SMOOTH",
"554 608 OFFCURVE",
"522 642 OFFCURVE",
"481 657 CURVE SMOOTH",
"450 669 OFFCURVE",
"408 675 OFFCURVE",
"367 675 CURVE SMOOTH",
"339 675 OFFCURVE",
"312 672 OFFCURVE",
"290 667 CURVE SMOOTH",
"222 652 OFFCURVE",
"146 610 OFFCURVE",
"146 544 CURVE SMOOTH",
"146 503 OFFCURVE",
"172 478 OFFCURVE",
"202 478 CURVE SMOOTH",
"211 478 OFFCURVE",
"221 481 OFFCURVE",
"230 486 CURVE",
"226 497 OFFCURVE",
"224 507 OFFCURVE",
"224 517 CURVE SMOOTH",
"224 570 OFFCURVE",
"274 616 OFFCURVE",
"302 629 CURVE SMOOTH",
"320 637 OFFCURVE",
"338 641 OFFCURVE",
"354 641 CURVE SMOOTH",
"403 641 OFFCURVE",
"441 607 OFFCURVE",
"440 547 CURVE SMOOTH",
"438 455 OFFCURVE",
"221 326 OFFCURVE",
"216 322 CURVE SMOOTH",
"184 298 OFFCURVE",
"151 260 OFFCURVE",
"151 219 CURVE SMOOTH",
"151 216 OFFCURVE",
"152 212 OFFCURVE",
"152 209 CURVE SMOOTH"
);
},
{
closed = 1;
nodes = (
"142 7 OFFCURVE",
"179 46 OFFCURVE",
"195 49 CURVE",
"196 53 OFFCURVE",
"197 57 OFFCURVE",
"197 60 CURVE SMOOTH",
"197 78 OFFCURVE",
"179 85 OFFCURVE",
"156 85 CURVE SMOOTH",
"132 85 OFFCURVE",
"111 74 OFFCURVE",
"98 60 CURVE SMOOTH",
"90 52 OFFCURVE",
"85 42 OFFCURVE",
"85 33 CURVE SMOOTH",
"85 25 OFFCURVE",
"89 17 OFFCURVE",
"97 11 CURVE SMOOTH",
"110 1 OFFCURVE",
"129 -6 OFFCURVE",
"134 -8 CURVE"
);
}
);
width = 551;
}
);
note = question;
unicode = 003F;
},
{
glyphname = at;
lastChange = "2021-05-05 04:49:43 +0000";
layers = (
{
background = {
paths = (
{
closed = 1;
nodes = (
"568 -65 OFFCURVE",
"698 -38 OFFCURVE",
"802 46 CURVE SMOOTH",
"831 69 OFFCURVE",
"842 114 OFFCURVE",
"842 139 CURVE SMOOTH",
"842 149 OFFCURVE",
"840 156 OFFCURVE",
"837 156 CURVE SMOOTH",
"835 156 OFFCURVE",
"833 154 OFFCURVE",
"831 150 CURVE SMOOTH",
"777 61 OFFCURVE",
"609 -32 OFFCURVE",
"460 -32 CURVE SMOOTH",
"314 -32 OFFCURVE",
"166 47 OFFCURVE",
"166 262 CURVE SMOOTH",
"166 442 OFFCURVE",
"298 639 OFFCURVE",
"490 660 CURVE SMOOTH",
"505 662 OFFCURVE",
"519 662 OFFCURVE",
"533 662 CURVE SMOOTH",
"716 662 OFFCURVE",
"805 526 OFFCURVE",
"805 379 CURVE SMOOTH",
"805 317 OFFCURVE",
"789 252 OFFCURVE",
"757 196 CURVE SMOOTH",
"729 147 OFFCURVE",
"674 107 OFFCURVE",
"634 107 CURVE SMOOTH",
"607 107 OFFCURVE",
"587 126 OFFCURVE",
"587 172 CURVE SMOOTH",
"587 206 OFFCURVE",
"597 254 OFFCURVE",
"624 322 CURVE SMOOTH",
"652 391 OFFCURVE",
"699 474 OFFCURVE",
"735 502 CURVE",
"679 502 LINE SMOOTH",
"632 502 OFFCURVE",
"620 484 OFFCURVE",
"603 450 CURVE SMOOTH",
"600 444 LINE",
"599 447 OFFCURVE",
"598 451 OFFCURVE",
"598 453 CURVE",
"588 502 OFFCURVE",
"550 516 OFFCURVE",
"516 516 CURVE SMOOTH",
"378 516 OFFCURVE",
"282 350 OFFCURVE",
"282 214 CURVE SMOOTH",
"282 155 OFFCURVE",
"315 123 OFFCURVE",
"352 122 CURVE SMOOTH",
"384 122 OFFCURVE",
"417 141 OFFCURVE",
"451 179 CURVE SMOOTH",
"474 205 OFFCURVE",
"498 238 OFFCURVE",
"519 271 CURVE",
"511 241 OFFCURVE",
"507 215 OFFCURVE",
"507 192 CURVE SMOOTH",
"507 113 OFFCURVE",
"554 82 OFFCURVE",
"613 82 CURVE SMOOTH",
"685 82 OFFCURVE",
"773 128 OFFCURVE",
"812 190 CURVE SMOOTH",
"855 257 OFFCURVE",
"875 325 OFFCURVE",
"875 389 CURVE SMOOTH",
"875 551 OFFCURVE",
"745 682 OFFCURVE",
"531 682 CURVE SMOOTH",
"511 682 OFFCURVE",
"492 681 OFFCURVE",
"471 679 CURVE SMOOTH",
"231 653 OFFCURVE",
"88 439 OFFCURVE",
"88 245 CURVE SMOOTH",
"88 24 OFFCURVE",
"247 -65 OFFCURVE",
"443 -65 CURVE SMOOTH"
);
},
{
closed = 1;
nodes = (
"386 191 OFFCURVE",
"372 213 OFFCURVE",
"371 255 CURVE SMOOTH",
"371 338 OFFCURVE",
"420 448 OFFCURVE",
"508 474 CURVE SMOOTH",
"517 477 OFFCURVE",
"526 478 OFFCURVE",
"535 478 CURVE SMOOTH",
"564 478 OFFCURVE",
"592 464 OFFCURVE",
"596 436 CURVE",
"574 393 LINE SMOOTH",
"543 332 OFFCURVE",
"454 192 OFFCURVE",
"406 191 CURVE SMOOTH"
);
}
);
};
layerId = "FDC6D5C2-1E82-4E29-8E0D-3EE46E074C54";
paths = (
{
closed = 1;
nodes = (
"568 -65 OFFCURVE",
"698 -38 OFFCURVE",
"802 46 CURVE SMOOTH",
"831 69 OFFCURVE",
"842 114 OFFCURVE",
"842 139 CURVE SMOOTH",
"842 149 OFFCURVE",
"840 156 OFFCURVE",
"837 156 CURVE SMOOTH",
"835 156 OFFCURVE",
"833 154 OFFCURVE",
"831 150 CURVE SMOOTH",
"777 61 OFFCURVE",
"609 -32 OFFCURVE",
"460 -32 CURVE SMOOTH",
"314 -32 OFFCURVE",
"166 47 OFFCURVE",
"166 262 CURVE SMOOTH",
"166 442 OFFCURVE",
"298 639 OFFCURVE",
"490 660 CURVE SMOOTH",
"505 662 OFFCURVE",
"519 662 OFFCURVE",
"533 662 CURVE SMOOTH",
"716 662 OFFCURVE",
"805 526 OFFCURVE",
"805 379 CURVE SMOOTH",
"805 317 OFFCURVE",
"789 252 OFFCURVE",
"757 196 CURVE SMOOTH",
"729 147 OFFCURVE",
"674 107 OFFCURVE",
"634 107 CURVE SMOOTH",
"607 107 OFFCURVE",
"587 126 OFFCURVE",
"587 172 CURVE SMOOTH",
"587 206 OFFCURVE",
"597 254 OFFCURVE",
"624 322 CURVE SMOOTH",
"652 391 OFFCURVE",
"699 474 OFFCURVE",
"735 502 CURVE",
"679 502 LINE SMOOTH",
"632 502 OFFCURVE",
"620 484 OFFCURVE",
"603 450 CURVE SMOOTH",
"600 444 LINE",
"599 447 OFFCURVE",
"598 451 OFFCURVE",
"598 453 CURVE",
"588 502 OFFCURVE",
"550 516 OFFCURVE",
"516 516 CURVE SMOOTH",
"378 516 OFFCURVE",
"282 350 OFFCURVE",
"282 214 CURVE SMOOTH",
"282 155 OFFCURVE",
"315 123 OFFCURVE",
"352 122 CURVE SMOOTH",
"384 122 OFFCURVE",
"417 141 OFFCURVE",
"451 179 CURVE SMOOTH",
"474 205 OFFCURVE",
"498 238 OFFCURVE",
"519 271 CURVE",
"511 241 OFFCURVE",
"507 215 OFFCURVE",
"507 192 CURVE SMOOTH",
"507 113 OFFCURVE",
"554 82 OFFCURVE",
"613 82 CURVE SMOOTH",
"685 82 OFFCURVE",
"773 128 OFFCURVE",
"812 190 CURVE SMOOTH",
"855 257 OFFCURVE",
"875 325 OFFCURVE",
"875 389 CURVE SMOOTH",
"875 551 OFFCURVE",
"745 682 OFFCURVE",
"531 682 CURVE SMOOTH",
"511 682 OFFCURVE",
"492 681 OFFCURVE",
"471 679 CURVE SMOOTH",
"231 653 OFFCURVE",
"88 439 OFFCURVE",
"88 245 CURVE SMOOTH",
"88 24 OFFCURVE",
"247 -65 OFFCURVE",
"443 -65 CURVE SMOOTH"
);
},
{
closed = 1;
nodes = (
"386 191 OFFCURVE",
"372 213 OFFCURVE",
"371 255 CURVE SMOOTH",
"371 338 OFFCURVE",
"420 448 OFFCURVE",
"508 474 CURVE SMOOTH",
"517 477 OFFCURVE",
"526 478 OFFCURVE",
"535 478 CURVE SMOOTH",
"564 478 OFFCURVE",
"592 464 OFFCURVE",
"596 436 CURVE",
"574 393 LINE SMOOTH",
"543 332 OFFCURVE",
"454 192 OFFCURVE",
"406 191 CURVE SMOOTH"
);
}
);
width = 917;
}
);
note = at;
unicode = 0040;
},
{
color = 4;
glyphname = A;
lastChange = "2021-05-06 03:31:56 +0000";
layers = (
{
anchors = (
{
name = bottom;
position = "{352, 0}";
},
{
name = ogonek;
position = "{710, 15}";
},
{
name = top;
position = "{770, 706}";
}
);
background = {
anchors = (
{
name = bottom;
position = "{352, 0}";
},
{
name = ogonek;
position = "{710, 15}";
},
{
name = top;
position = "{770, 706}";
}
);
paths = (
{
closed = 1;
nodes = (
"701 -8 OFFCURVE",
"758 13 OFFCURVE",
"776 40 CURVE",
"770 49 LINE",
"756 40 OFFCURVE",
"744 36 OFFCURVE",
"733 36 CURVE SMOOTH",
"694 36 OFFCURVE",
"677 87 OFFCURVE",
"675 125 CURVE SMOOTH",
"668 230 OFFCURVE",
"702 374 OFFCURVE",
"728 482 CURVE SMOOTH",
"746 554 OFFCURVE",
"780 665 OFFCURVE",
"815 698 CURVE",
"743 698 LINE SMOOTH",
"678 698 OFFCURVE",
"652 645 OFFCURVE",
"612 601 CURVE SMOOTH",
"449 420 OFFCURVE",
"115 94 OFFCURVE",
"12 0 CURVE",
"112 0 LINE",
"185 87 OFFCURVE",
"261 169 OFFCURVE",
"346 259 CURVE",
"575 259 LINE",
"571 234 OFFCURVE",
"561 165 OFFCURVE",
"562 127 CURVE SMOOTH",
"565 60 OFFCURVE",
"579 -8 OFFCURVE",
"656 -8 CURVE SMOOTH"
);
},
{
closed = 1;
nodes = (
"473 395 OFFCURVE",
"558 480 OFFCURVE",
"640 557 CURVE",
"622 490 OFFCURVE",
"598 397 OFFCURVE",
"582 309 CURVE",
"390 309 LINE"
);
},
{
closed = 1;
nodes = (
"255 563 OFFCURVE",
"292 611 OFFCURVE",
"363 627 CURVE SMOOTH",
"443 646 OFFCURVE",
"635 642 OFFCURVE",
"692 698 CURVE",
"526 698 LINE SMOOTH",
"509 698 OFFCURVE",
"489 698 OFFCURVE",
"468 698 CURVE SMOOTH",
"394 698 OFFCURVE",
"301 692 OFFCURVE",
"254 638 CURVE SMOOTH",
"238 620 OFFCURVE",
"225 595 OFFCURVE",
"225 568 CURVE SMOOTH",
"225 546 OFFCURVE",
"234 522 OFFCURVE",
"256 499 CURVE"
);
}
);
};
layerId = "FDC6D5C2-1E82-4E29-8E0D-3EE46E074C54";
paths = (
{
closed = 1;
nodes = (
"701 -8 OFFCURVE",
"758 13 OFFCURVE",
"776 40 CURVE",
"770 49 LINE",
"756 40 OFFCURVE",
"744 36 OFFCURVE",
"733 36 CURVE SMOOTH",
"694 36 OFFCURVE",
"677 87 OFFCURVE",
"675 125 CURVE SMOOTH",
"668 230 OFFCURVE",
"702 374 OFFCURVE",
"728 482 CURVE SMOOTH",
"746 554 OFFCURVE",
"780 665 OFFCURVE",
"815 698 CURVE",
"743 698 LINE SMOOTH",
"678 698 OFFCURVE",
"652 645 OFFCURVE",
"612 601 CURVE SMOOTH",
"449 420 OFFCURVE",
"115 94 OFFCURVE",
"12 0 CURVE",
"112 0 LINE",
"185 87 OFFCURVE",
"261 169 OFFCURVE",
"346 259 CURVE",
"575 259 LINE",
"571 234 OFFCURVE",
"561 165 OFFCURVE",
"562 127 CURVE SMOOTH",
"565 60 OFFCURVE",
"579 -8 OFFCURVE",
"656 -8 CURVE SMOOTH"
);
},
{
closed = 1;
nodes = (
"473 395 OFFCURVE",
"558 480 OFFCURVE",
"640 557 CURVE",
"622 490 OFFCURVE",
"598 397 OFFCURVE",
"582 309 CURVE",
"390 309 LINE"
);
},
{
closed = 1;
nodes = (
"255 563 OFFCURVE",
"292 611 OFFCURVE",
"363 627 CURVE SMOOTH",
"443 646 OFFCURVE",
"635 642 OFFCURVE",
"692 698 CURVE",
"526 698 LINE SMOOTH",
"509 698 OFFCURVE",
"489 698 OFFCURVE",
"468 698 CURVE SMOOTH",
"394 698 OFFCURVE",
"301 692 OFFCURVE",
"254 638 CURVE SMOOTH",
"238 620 OFFCURVE",
"225 595 OFFCURVE",
"225 568 CURVE SMOOTH",
"225 546 OFFCURVE",
"234 522 OFFCURVE",
"256 499 CURVE"
);
}
);
width = 750;
}
);
leftKerningGroup = A;
note = A.script;
rightKerningGroup = A;
unicode = 0041;
},
{
color = 4;
glyphname = B;
lastChange = "2021-05-06 03:37:28 +0000";
layers = (
{
background = {
paths = (
{
closed = 1;
nodes = (
"81 -4 OFFCURVE",
"140 -17 OFFCURVE",
"203 -17 CURVE SMOOTH",
"314 -17 OFFCURVE",
"441 22 OFFCURVE",
"501 74 CURVE SMOOTH",
"547 114 OFFCURVE",
"577 165 OFFCURVE",
"577 222 CURVE SMOOTH",
"577 294 OFFCURVE",
"533 349 OFFCURVE",
"421 370 CURVE",
"492 385 OFFCURVE",
"604 436 OFFCURVE",
"614 548 CURVE SMOOTH",
"621 626 OFFCURVE",
"567 698 OFFCURVE",
"430 698 CURVE SMOOTH",
"267 698 LINE SMOOTH",
"260 698 OFFCURVE",
"248 698 OFFCURVE",
"233 698 CURVE SMOOTH",
"174 698 OFFCURVE",
"69 694 OFFCURVE",
"25 649 CURVE SMOOTH",
"6 630 OFFCURVE",
"-16 596 OFFCURVE",
"-29 561 CURVE SMOOTH",
"-31 554 OFFCURVE",
"-28 548 OFFCURVE",
"-25 548 CURVE SMOOTH",
"-23 548 OFFCURVE",
"-22 549 OFFCURVE",
"-21 551 CURVE SMOOTH",
"12 608 OFFCURVE",
"121 641 OFFCURVE",
"211 653 CURVE SMOOTH",
"247 658 LINE",
"242 650 OFFCURVE",
"237 640 OFFCURVE",
"232 630 CURVE SMOOTH",
"196 560 OFFCURVE",
"52 273 OFFCURVE",
"27 139 CURVE SMOOTH",
"24 122 OFFCURVE",
"22 105 OFFCURVE",
"22 89 CURVE SMOOTH",
"22 64 OFFCURVE",
"27 42 OFFCURVE",
"45 27 CURVE SMOOTH"
);
},
{
closed = 1;
nodes = (
"138 32 OFFCURVE",
"129 53 OFFCURVE",
"129 83 CURVE SMOOTH",
"129 120 OFFCURVE",
"145 171 OFFCURVE",
"158 213 CURVE SMOOTH",
"185 302 OFFCURVE",
"230 402 OFFCURVE",
"267 482 CURVE SMOOTH",
"293 539 OFFCURVE",
"334 620 OFFCURVE",
"371 668 CURVE",
"445 665 OFFCURVE",
"511 642 OFFCURVE",
"511 561 CURVE SMOOTH",
"511 519 OFFCURVE",
"493 473 OFFCURVE",
"461 440 CURVE SMOOTH",
"441 420 OFFCURVE",
"414 394 OFFCURVE",
"372 381 CURVE",
"352 384 OFFCURVE",
"334 385 OFFCURVE",
"317 385 CURVE SMOOTH",
"301 385 OFFCURVE",
"287 384 OFFCURVE",
"275 382 CURVE SMOOTH",
"261 380 OFFCURVE",
"228 357 OFFCURVE",
"228 345 CURVE SMOOTH",
"228 341 OFFCURVE",
"232 338 OFFCURVE",
"244 338 CURVE SMOOTH",
"278 338 OFFCURVE",
"342 349 OFFCURVE",
"364 355 CURVE",
"430 347 OFFCURVE",
"461 290 OFFCURVE",
"461 227 CURVE SMOOTH",
"461 207 OFFCURVE",
"458 187 OFFCURVE",
"452 168 CURVE SMOOTH",
"422 64 OFFCURVE",
"321 23 OFFCURVE",
"223 23 CURVE SMOOTH",
"204 23 OFFCURVE",
"185 24 OFFCURVE",
"167 27 CURVE SMOOTH"
);
}
);
};
layerId = "FDC6D5C2-1E82-4E29-8E0D-3EE46E074C54";
paths = (
{
closed = 1;
nodes = (
"81 -4 OFFCURVE",
"140 -17 OFFCURVE",
"203 -17 CURVE SMOOTH",
"314 -17 OFFCURVE",
"441 22 OFFCURVE",
"501 74 CURVE SMOOTH",
"547 114 OFFCURVE",
"577 165 OFFCURVE",
"577 222 CURVE SMOOTH",
"577 294 OFFCURVE",
"533 349 OFFCURVE",
"421 370 CURVE",
"492 385 OFFCURVE",
"604 436 OFFCURVE",
"614 548 CURVE SMOOTH",
"621 626 OFFCURVE",
"567 698 OFFCURVE",
"430 698 CURVE SMOOTH",
"267 698 LINE SMOOTH",
"260 698 OFFCURVE",
"248 698 OFFCURVE",
"233 698 CURVE SMOOTH",
"174 698 OFFCURVE",
"69 694 OFFCURVE",
"25 649 CURVE SMOOTH",
"6 630 OFFCURVE",
"-16 596 OFFCURVE",
"-29 561 CURVE SMOOTH",
"-31 554 OFFCURVE",
"-28 548 OFFCURVE",
"-25 548 CURVE SMOOTH",
"-23 548 OFFCURVE",
"-22 549 OFFCURVE",
"-21 551 CURVE SMOOTH",
"12 608 OFFCURVE",
"121 641 OFFCURVE",
"211 653 CURVE SMOOTH",
"247 658 LINE",
"242 650 OFFCURVE",
"237 640 OFFCURVE",
"232 630 CURVE SMOOTH",
"196 560 OFFCURVE",
"52 273 OFFCURVE",
"27 139 CURVE SMOOTH",
"24 122 OFFCURVE",
"22 105 OFFCURVE",
"22 89 CURVE SMOOTH",
"22 64 OFFCURVE",
"27 42 OFFCURVE",
"45 27 CURVE SMOOTH"
);
},
{
closed = 1;
nodes = (
"138 32 OFFCURVE",
"129 53 OFFCURVE",
"129 83 CURVE SMOOTH",
"129 120 OFFCURVE",
"145 171 OFFCURVE",
"158 213 CURVE SMOOTH",
"185 302 OFFCURVE",
"230 402 OFFCURVE",
"267 482 CURVE SMOOTH",
"293 539 OFFCURVE",
"334 620 OFFCURVE",
"371 668 CURVE",
"445 665 OFFCURVE",
"511 642 OFFCURVE",
"511 561 CURVE SMOOTH",
"511 519 OFFCURVE",
"493 473 OFFCURVE",
"461 440 CURVE SMOOTH",
"441 420 OFFCURVE",
"414 394 OFFCURVE",
"372 381 CURVE",
"352 384 OFFCURVE",
"334 385 OFFCURVE",
"317 385 CURVE SMOOTH",
"301 385 OFFCURVE",
"287 384 OFFCURVE",
"275 382 CURVE SMOOTH",
"261 380 OFFCURVE",
"228 357 OFFCURVE",
"228 345 CURVE SMOOTH",
"228 341 OFFCURVE",
"232 338 OFFCURVE",
"244 338 CURVE SMOOTH",
"278 338 OFFCURVE",
"342 349 OFFCURVE",
"364 355 CURVE",
"430 347 OFFCURVE",
"461 290 OFFCURVE",
"461 227 CURVE SMOOTH",
"461 207 OFFCURVE",
"458 187 OFFCURVE",
"452 168 CURVE SMOOTH",
"422 64 OFFCURVE",
"321 23 OFFCURVE",
"223 23 CURVE SMOOTH",
"204 23 OFFCURVE",
"185 24 OFFCURVE",
"167 27 CURVE SMOOTH"
);
}
);
width = 581;
}
);
leftKerningGroup = H;
note = B.script;
rightKerningGroup = B;
unicode = 0042;
},
{
color = 4;
glyphname = C;
lastChange = "2021-05-06 03:01:41 +0000";
layers = (
{
anchors = (
{
name = bottom;
position = "{281, -20}";
},
{
name = top;
position = "{529, 706}";
}
);
background = {
anchors = (
{
name = bottom;
position = "{281, -20}";
},
{
name = top;
position = "{529, 706}";
}
);
paths = (
{
closed = 1;
nodes = (
"238 -28 OFFCURVE",
"263 -30 OFFCURVE",
"288 -30 CURVE SMOOTH",
"421 -30 OFFCURVE",
"559 24 OFFCURVE",
"653 121 CURVE SMOOTH",
"673 141 OFFCURVE",
"711 190 OFFCURVE",
"711 227 CURVE SMOOTH",
"711 241 OFFCURVE",
"706 253 OFFCURVE",
"692 262 CURVE",
"672 213 OFFCURVE",
"633 169 OFFCURVE",
"586 128 CURVE SMOOTH",
"510 62 OFFCURVE",
"416 15 OFFCURVE",
"328 15 CURVE SMOOTH",
"301 15 OFFCURVE",
"274 20 OFFCURVE",
"248 30 CURVE SMOOTH",
"191 53 OFFCURVE",
"166 115 OFFCURVE",
"166 193 CURVE SMOOTH",
"166 253 OFFCURVE",
"181 321 OFFCURVE",
"208 387 CURVE SMOOTH",
"262 520 OFFCURVE",
"394 630 OFFCURVE",
"509 661 CURVE SMOOTH",
"525 665 OFFCURVE",
"553 671 OFFCURVE",
"580 671 CURVE SMOOTH",
"620 671 OFFCURVE",
"658 659 OFFCURVE",
"658 613 CURVE SMOOTH",
"658 561 OFFCURVE",
"602 521 OFFCURVE",
"553 521 CURVE SMOOTH",
"544 521 OFFCURVE",
"536 522 OFFCURVE",
"528 525 CURVE",
"520 514 OFFCURVE",
"516 504 OFFCURVE",
"516 495 CURVE SMOOTH",
"516 476 OFFCURVE",
"533 462 OFFCURVE",
"555 460 CURVE SMOOTH",
"622 455 OFFCURVE",
"693 498 OFFCURVE",
"716 556 CURVE SMOOTH",
"722 570 OFFCURVE",
"724 583 OFFCURVE",
"724 596 CURVE SMOOTH",
"724 661 OFFCURVE",
"654 708 OFFCURVE",
"548 708 CURVE SMOOTH",
"521 708 OFFCURVE",
"492 705 OFFCURVE",
"462 699 CURVE SMOOTH",
"216 650 OFFCURVE",
"53 385 OFFCURVE",
"53 189 CURVE SMOOTH",
"53 81 OFFCURVE",
"102 -6 OFFCURVE",
"214 -24 CURVE SMOOTH"
);
}
);
};
layerId = "FDC6D5C2-1E82-4E29-8E0D-3EE46E074C54";
paths = (
{
closed = 1;
nodes = (
"238 -28 OFFCURVE",
"263 -30 OFFCURVE",
"288 -30 CURVE SMOOTH",
"421 -30 OFFCURVE",
"559 24 OFFCURVE",
"653 121 CURVE SMOOTH",
"673 141 OFFCURVE",
"711 190 OFFCURVE",
"711 227 CURVE SMOOTH",
"711 241 OFFCURVE",
"706 253 OFFCURVE",
"692 262 CURVE",
"672 213 OFFCURVE",
"633 169 OFFCURVE",
"586 128 CURVE SMOOTH",
"510 62 OFFCURVE",
"416 15 OFFCURVE",
"328 15 CURVE SMOOTH",
"301 15 OFFCURVE",
"274 20 OFFCURVE",
"248 30 CURVE SMOOTH",
"191 53 OFFCURVE",
"166 115 OFFCURVE",
"166 193 CURVE SMOOTH",
"166 253 OFFCURVE",
"181 321 OFFCURVE",
"208 387 CURVE SMOOTH",
"262 520 OFFCURVE",
"394 630 OFFCURVE",
"509 661 CURVE SMOOTH",
"525 665 OFFCURVE",
"553 671 OFFCURVE",
"580 671 CURVE SMOOTH",
"620 671 OFFCURVE",
"658 659 OFFCURVE",
"658 613 CURVE SMOOTH",
"658 561 OFFCURVE",
"602 521 OFFCURVE",
"553 521 CURVE SMOOTH",
"544 521 OFFCURVE",
"536 522 OFFCURVE",
"528 525 CURVE",
"520 514 OFFCURVE",
"516 504 OFFCURVE",
"516 495 CURVE SMOOTH",
"516 476 OFFCURVE",
"533 462 OFFCURVE",
"555 460 CURVE SMOOTH",
"622 455 OFFCURVE",
"693 498 OFFCURVE",
"716 556 CURVE SMOOTH",
"722 570 OFFCURVE",
"724 583 OFFCURVE",
"724 596 CURVE SMOOTH",
"724 661 OFFCURVE",
"654 708 OFFCURVE",
"548 708 CURVE SMOOTH",
"521 708 OFFCURVE",
"492 705 OFFCURVE",
"462 699 CURVE SMOOTH",
"216 650 OFFCURVE",
"53 385 OFFCURVE",
"53 189 CURVE SMOOTH",
"53 81 OFFCURVE",
"102 -6 OFFCURVE",
"214 -24 CURVE SMOOTH"
);
}
);
width = 680;
}
);
leftKerningGroup = O;
note = C.script;
rightKerningGroup = C;
unicode = 0043;
},
{
color = 4;
glyphname = D;
lastChange = "2021-05-06 03:02:15 +0000";
layers = (
{
anchors = (
{
name = bottom;
position = "{184, -17}";
},
{
name = center;
position = "{346, 353}";
},
{
name = top;
position = "{448, 698}";
}
);
background = {
anchors = (
{
name = bottom;
position = "{184, -17}";
},
{
name = center;
position = "{346, 353}";
},
{
name = top;
position = "{448, 698}";
}
);
paths = (
{
closed = 1;
nodes = (
"184 -17 OFFCURVE",
"216 -19 OFFCURVE",
"247 -19 CURVE SMOOTH",
"479 -19 OFFCURVE",
"683 115 OFFCURVE",
"723 358 CURVE SMOOTH",
"727 381 OFFCURVE",
"728 403 OFFCURVE",
"728 426 CURVE SMOOTH",
"728 570 OFFCURVE",
"649 698 OFFCURVE",
"448 698 CURVE SMOOTH",
"277 698 LINE SMOOTH",
"270 698 OFFCURVE",
"258 698 OFFCURVE",
"243 698 CURVE SMOOTH",
"184 698 OFFCURVE",
"79 694 OFFCURVE",
"35 649 CURVE SMOOTH",
"16 630 OFFCURVE",
"-6 596 OFFCURVE",
"-19 561 CURVE SMOOTH",
"-21 554 OFFCURVE",
"-18 548 OFFCURVE",
"-15 548 CURVE SMOOTH",
"-13 548 OFFCURVE",
"-12 549 OFFCURVE",
"-11 551 CURVE SMOOTH",
"22 608 OFFCURVE",
"132 640 OFFCURVE",
"221 653 CURVE SMOOTH",
"231 654 OFFCURVE",
"244 657 OFFCURVE",
"257 658 CURVE",
"252 650 OFFCURVE",
"247 640 OFFCURVE",
"242 630 CURVE SMOOTH",
"213 573 OFFCURVE",
"111 366 OFFCURVE",
"60 217 CURVE SMOOTH",
"49 183 OFFCURVE",
"30 133 OFFCURVE",
"30 91 CURVE SMOOTH",
"30 65 OFFCURVE",
"37 43 OFFCURVE",
"55 27 CURVE SMOOTH",
"79 7 OFFCURVE",
"113 -6 OFFCURVE",
"152 -12 CURVE SMOOTH"
);
},
{
closed = 1;
nodes = (
"148 31 OFFCURVE",
"138 55 OFFCURVE",
"138 85 CURVE SMOOTH",
"138 117 OFFCURVE",
"149 157 OFFCURVE",
"159 187 CURVE SMOOTH",
"191 288 OFFCURVE",
"232 385 OFFCURVE",
"277 482 CURVE SMOOTH",
"303 538 OFFCURVE",
"345 619 OFFCURVE",
"381 667 CURVE",
"393 667 OFFCURVE",
"405 666 OFFCURVE",
"417 665 CURVE SMOOTH",
"467 661 OFFCURVE",
"536 639 OFFCURVE",
"572 599 CURVE SMOOTH",
"612 555 OFFCURVE",
"629 498 OFFCURVE",
"629 438 CURVE SMOOTH",
"629 409 OFFCURVE",
"625 379 OFFCURVE",
"618 350 CURVE SMOOTH",
"576 167 OFFCURVE",
"418 23 OFFCURVE",
"229 23 CURVE SMOOTH",
"212 23 OFFCURVE",
"194 25 OFFCURVE",
"177 27 CURVE SMOOTH"
);
}
);
};
layerId = "FDC6D5C2-1E82-4E29-8E0D-3EE46E074C54";
paths = (
{
closed = 1;
nodes = (
"184 -17 OFFCURVE",
"216 -19 OFFCURVE",
"247 -19 CURVE SMOOTH",
"479 -19 OFFCURVE",
"683 115 OFFCURVE",
"723 358 CURVE SMOOTH",
"727 381 OFFCURVE",
"728 403 OFFCURVE",
"728 426 CURVE SMOOTH",
"728 570 OFFCURVE",
"649 698 OFFCURVE",
"448 698 CURVE SMOOTH",
"277 698 LINE SMOOTH",
"270 698 OFFCURVE",
"258 698 OFFCURVE",
"243 698 CURVE SMOOTH",
"184 698 OFFCURVE",
"79 694 OFFCURVE",
"35 649 CURVE SMOOTH",
"16 630 OFFCURVE",
"-6 596 OFFCURVE",
"-19 561 CURVE SMOOTH",
"-21 554 OFFCURVE",
"-18 548 OFFCURVE",
"-15 548 CURVE SMOOTH",
"-13 548 OFFCURVE",
"-12 549 OFFCURVE",
"-11 551 CURVE SMOOTH",
"22 608 OFFCURVE",
"132 640 OFFCURVE",
"221 653 CURVE SMOOTH",
"231 654 OFFCURVE",
"244 657 OFFCURVE",
"257 658 CURVE",
"252 650 OFFCURVE",
"247 640 OFFCURVE",
"242 630 CURVE SMOOTH",
"213 573 OFFCURVE",
"111 366 OFFCURVE",
"60 217 CURVE SMOOTH",
"49 183 OFFCURVE",
"30 133 OFFCURVE",
"30 91 CURVE SMOOTH",
"30 65 OFFCURVE",
"37 43 OFFCURVE",
"55 27 CURVE SMOOTH",
"79 7 OFFCURVE",
"113 -6 OFFCURVE",
"152 -12 CURVE SMOOTH"
);
},
{
closed = 1;
nodes = (
"148 31 OFFCURVE",
"138 55 OFFCURVE",
"138 85 CURVE SMOOTH",
"138 117 OFFCURVE",
"149 157 OFFCURVE",
"159 187 CURVE SMOOTH",
"191 288 OFFCURVE",
"232 385 OFFCURVE",
"277 482 CURVE SMOOTH",
"303 538 OFFCURVE",
"345 619 OFFCURVE",
"381 667 CURVE",
"393 667 OFFCURVE",
"405 666 OFFCURVE",
"417 665 CURVE SMOOTH",
"467 661 OFFCURVE",
"536 639 OFFCURVE",
"572 599 CURVE SMOOTH",
"612 555 OFFCURVE",
"629 498 OFFCURVE",
"629 438 CURVE SMOOTH",
"629 409 OFFCURVE",
"625 379 OFFCURVE",
"618 350 CURVE SMOOTH",
"576 167 OFFCURVE",
"418 23 OFFCURVE",
"229 23 CURVE SMOOTH",
"212 23 OFFCURVE",
"194 25 OFFCURVE",
"177 27 CURVE SMOOTH"
);
}
);
width = 710;
}
);
leftKerningGroup = H;
note = D.script;
rightKerningGroup = O;
unicode = 0044;
},
{
color = 4;
glyphname = E;
lastChange = "2021-05-06 03:38:36 +0000";
layers = (
{
anchors = (
{
name = bottom;
position = "{207, 9}";
},
{
name = ogonek;
position = "{444, 19}";
},
{
name = top;
position = "{411, 706}";
},
{
name = topleft;
position = "{-10, 706}";
}
);
background = {
anchors = (
{
name = bottom;
position = "{207, 9}";
},
{
name = ogonek;
position = "{444, 19}";
},
{
name = top;
position = "{411, 706}";
},
{
name = topleft;
position = "{-10, 706}";
}
);
paths = (
{
closed = 1;
nodes = (
"311 0 LINE SMOOTH",
"324 0 OFFCURVE",
"338 0 OFFCURVE",
"353 0 CURVE SMOOTH",
"411 0 OFFCURVE",
"476 4 OFFCURVE",
"513 49 CURVE SMOOTH",
"529 68 OFFCURVE",
"544 94 OFFCURVE",
"555 129 CURVE SMOOTH",
"556 134 OFFCURVE",
"557 138 OFFCURVE",
"557 141 CURVE SMOOTH",
"557 149 OFFCURVE",
"554 152 OFFCURVE",
"550 152 CURVE SMOOTH",
"548 152 OFFCURVE",
"545 150 OFFCURVE",
"544 148 CURVE SMOOTH",
"523 104 OFFCURVE",
"472 75 OFFCURVE",
"412 58 CURVE SMOOTH",
"343 38 OFFCURVE",
"270 34 OFFCURVE",
"198 34 CURVE SMOOTH",
"146 34 OFFCURVE",
"128 51 OFFCURVE",
"128 85 CURVE SMOOTH",
"128 97 OFFCURVE",
"130 112 OFFCURVE",
"134 128 CURVE SMOOTH",
"147 183 OFFCURVE",
"184 285 OFFCURVE",
"207 342 CURVE",
"454 342 LINE SMOOTH",
"468 342 OFFCURVE",
"496 391 OFFCURVE",
"490 391 CURVE SMOOTH",
"229 391 LINE",
"266 477 OFFCURVE",
"309 560 OFFCURVE",
"362 639 CURVE SMOOTH",
"377 662 OFFCURVE",
"400 665 OFFCURVE",
"437 665 CURVE SMOOTH",
"488 665 OFFCURVE",
"526 640 OFFCURVE",
"526 598 CURVE SMOOTH",
"526 575 OFFCURVE",
"513 536 OFFCURVE",
"520 532 CURVE SMOOTH",
"522 531 OFFCURVE",
"525 530 OFFCURVE",
"529 530 CURVE SMOOTH",
"534 530 OFFCURVE",
"541 532 OFFCURVE",
"543 539 CURVE SMOOTH",
"554 568 OFFCURVE",
"588 632 OFFCURVE",
"588 672 CURVE SMOOTH",
"588 678 OFFCURVE",
"587 683 OFFCURVE",
"586 688 CURVE SMOOTH",
"582 700 OFFCURVE",
"570 703 OFFCURVE",
"550 703 CURVE SMOOTH",
"525 703 OFFCURVE",
"488 698 OFFCURVE",
"441 698 CURVE SMOOTH",
"277 698 LINE SMOOTH",
"270 698 OFFCURVE",
"258 698 OFFCURVE",
"243 698 CURVE SMOOTH",
"184 698 OFFCURVE",
"79 694 OFFCURVE",
"35 649 CURVE SMOOTH",
"16 630 OFFCURVE",
"-6 596 OFFCURVE",
"-19 561 CURVE SMOOTH",
"-21 554 OFFCURVE",
"-18 548 OFFCURVE",
"-15 548 CURVE SMOOTH",
"-13 548 OFFCURVE",
"-12 549 OFFCURVE",
"-11 551 CURVE SMOOTH",
"24 611 OFFCURVE",
"154 646 OFFCURVE",
"262 660 CURVE",
"250 646 OFFCURVE",
"241 629 OFFCURVE",
"231 611 CURVE SMOOTH",
"187 533 OFFCURVE",
"162 470 OFFCURVE",
"129 391 CURVE",
"95 391 LINE SMOOTH",
"78 391 OFFCURVE",
"45 360 OFFCURVE",
"45 348 CURVE SMOOTH",
"45 344 OFFCURVE",
"47 342 OFFCURVE",
"53 342 CURVE SMOOTH",
"108 342 LINE",
"78 270 OFFCURVE",
"19 123 OFFCURVE",
"19 47 CURVE SMOOTH",
"19 19 OFFCURVE",
"28 0 OFFCURVE",
"50 0 CURVE SMOOTH"
);
}
);
};
layerId = "FDC6D5C2-1E82-4E29-8E0D-3EE46E074C54";
paths = (
{
closed = 1;
nodes = (
"311 0 LINE SMOOTH",
"324 0 OFFCURVE",
"338 0 OFFCURVE",
"353 0 CURVE SMOOTH",
"411 0 OFFCURVE",
"476 4 OFFCURVE",
"513 49 CURVE SMOOTH",
"529 68 OFFCURVE",
"544 94 OFFCURVE",
"555 129 CURVE SMOOTH",
"556 134 OFFCURVE",
"557 138 OFFCURVE",
"557 141 CURVE SMOOTH",
"557 149 OFFCURVE",
"554 152 OFFCURVE",
"550 152 CURVE SMOOTH",
"548 152 OFFCURVE",
"545 150 OFFCURVE",
"544 148 CURVE SMOOTH",
"523 104 OFFCURVE",
"472 75 OFFCURVE",
"412 58 CURVE SMOOTH",
"343 38 OFFCURVE",
"270 34 OFFCURVE",
"198 34 CURVE SMOOTH",
"146 34 OFFCURVE",
"128 51 OFFCURVE",
"128 85 CURVE SMOOTH",
"128 97 OFFCURVE",
"130 112 OFFCURVE",
"134 128 CURVE SMOOTH",
"147 183 OFFCURVE",
"184 285 OFFCURVE",
"207 342 CURVE",
"454 342 LINE SMOOTH",
"468 342 OFFCURVE",
"496 391 OFFCURVE",
"490 391 CURVE SMOOTH",
"229 391 LINE",
"266 477 OFFCURVE",
"309 560 OFFCURVE",
"362 639 CURVE SMOOTH",
"377 662 OFFCURVE",
"400 665 OFFCURVE",
"437 665 CURVE SMOOTH",
"488 665 OFFCURVE",
"526 640 OFFCURVE",
"526 598 CURVE SMOOTH",
"526 575 OFFCURVE",
"513 536 OFFCURVE",
"520 532 CURVE SMOOTH",
"522 531 OFFCURVE",
"525 530 OFFCURVE",
"529 530 CURVE SMOOTH",
"534 530 OFFCURVE",
"541 532 OFFCURVE",
"543 539 CURVE SMOOTH",
"554 568 OFFCURVE",
"588 632 OFFCURVE",
"588 672 CURVE SMOOTH",
"588 678 OFFCURVE",
"587 683 OFFCURVE",
"586 688 CURVE SMOOTH",
"582 700 OFFCURVE",
"570 703 OFFCURVE",
"550 703 CURVE SMOOTH",
"525 703 OFFCURVE",
"488 698 OFFCURVE",
"441 698 CURVE SMOOTH",
"277 698 LINE SMOOTH",
"270 698 OFFCURVE",
"258 698 OFFCURVE",
"243 698 CURVE SMOOTH",
"184 698 OFFCURVE",
"79 694 OFFCURVE",
"35 649 CURVE SMOOTH",
"16 630 OFFCURVE",
"-6 596 OFFCURVE",
"-19 561 CURVE SMOOTH",
"-21 554 OFFCURVE",
"-18 548 OFFCURVE",
"-15 548 CURVE SMOOTH",
"-13 548 OFFCURVE",
"-12 549 OFFCURVE",
"-11 551 CURVE SMOOTH",
"24 611 OFFCURVE",
"154 646 OFFCURVE",
"262 660 CURVE",
"250 646 OFFCURVE",
"241 629 OFFCURVE",
"231 611 CURVE SMOOTH",
"187 533 OFFCURVE",
"162 470 OFFCURVE",
"129 391 CURVE",
"95 391 LINE SMOOTH",
"78 391 OFFCURVE",
"45 360 OFFCURVE",
"45 348 CURVE SMOOTH",
"45 344 OFFCURVE",
"47 342 OFFCURVE",
"53 342 CURVE SMOOTH",
"108 342 LINE",
"78 270 OFFCURVE",
"19 123 OFFCURVE",
"19 47 CURVE SMOOTH",
"19 19 OFFCURVE",
"28 0 OFFCURVE",
"50 0 CURVE SMOOTH"
);
}
);
width = 570;
}
);
leftKerningGroup = H;
note = E.script;
rightKerningGroup = E;
unicode = 0045;
},
{
color = 4;
glyphname = F;
lastChange = "2021-05-06 03:05:01 +0000";
layers = (
{
background = {
paths = (
{
closed = 1;
nodes = (
"147 0 LINE",
"144 5 OFFCURVE",
"143 13 OFFCURVE",
"143 22 CURVE SMOOTH",
"143 94 OFFCURVE",
"210 270 OFFCURVE",
"240 342 CURVE",
"447 342 LINE SMOOTH",
"461 342 OFFCURVE",
"489 391 OFFCURVE",
"483 391 CURVE SMOOTH",
"261 391 LINE",
"300 483 OFFCURVE",
"344 581 OFFCURVE",
"385 639 CURVE SMOOTH",
"401 662 OFFCURVE",
"423 665 OFFCURVE",
"460 665 CURVE SMOOTH",
"511 665 OFFCURVE",
"556 640 OFFCURVE",
"556 598 CURVE SMOOTH",
"556 575 OFFCURVE",
"543 536 OFFCURVE",
"550 532 CURVE SMOOTH",
"552 531 OFFCURVE",
"555 530 OFFCURVE",
"559 530 CURVE SMOOTH",
"564 530 OFFCURVE",
"571 532 OFFCURVE",
"573 539 CURVE SMOOTH",
"584 568 OFFCURVE",
"618 632 OFFCURVE",
"618 672 CURVE SMOOTH",
"618 678 OFFCURVE",
"617 683 OFFCURVE",
"616 688 CURVE SMOOTH",
"612 700 OFFCURVE",
"600 703 OFFCURVE",
"580 703 CURVE SMOOTH",
"555 703 OFFCURVE",
"518 698 OFFCURVE",
"471 698 CURVE SMOOTH",
"307 698 LINE SMOOTH",
"300 698 OFFCURVE",
"288 698 OFFCURVE",
"273 698 CURVE SMOOTH",
"214 698 OFFCURVE",
"109 694 OFFCURVE",
"65 649 CURVE SMOOTH",
"46 630 OFFCURVE",
"24 596 OFFCURVE",
"11 561 CURVE SMOOTH",
"9 554 OFFCURVE",
"12 548 OFFCURVE",
"15 548 CURVE SMOOTH",
"17 548 OFFCURVE",
"18 549 OFFCURVE",
"19 551 CURVE SMOOTH",
"54 611 OFFCURVE",
"183 645 OFFCURVE",
"290 660 CURVE",
"243 591 OFFCURVE",
"202 493 OFFCURVE",
"159 391 CURVE",
"125 391 LINE SMOOTH",
"108 391 OFFCURVE",
"75 360 OFFCURVE",
"75 348 CURVE SMOOTH",
"75 344 OFFCURVE",
"77 342 OFFCURVE",
"83 342 CURVE SMOOTH",
"138 342 LINE",
"86 215 OFFCURVE",
"40 94 OFFCURVE",
"18 0 CURVE"
);
}
);
};
layerId = "FDC6D5C2-1E82-4E29-8E0D-3EE46E074C54";
paths = (
{
closed = 1;
nodes = (
"147 0 LINE",
"144 5 OFFCURVE",
"143 13 OFFCURVE",
"143 22 CURVE SMOOTH",
"143 94 OFFCURVE",
"210 270 OFFCURVE",
"240 342 CURVE",
"447 342 LINE SMOOTH",
"461 342 OFFCURVE",
"489 391 OFFCURVE",
"483 391 CURVE SMOOTH",
"261 391 LINE",
"300 483 OFFCURVE",
"344 581 OFFCURVE",
"385 639 CURVE SMOOTH",
"401 662 OFFCURVE",
"423 665 OFFCURVE",
"460 665 CURVE SMOOTH",
"511 665 OFFCURVE",
"556 640 OFFCURVE",
"556 598 CURVE SMOOTH",
"556 575 OFFCURVE",
"543 536 OFFCURVE",
"550 532 CURVE SMOOTH",
"552 531 OFFCURVE",
"555 530 OFFCURVE",
"559 530 CURVE SMOOTH",
"564 530 OFFCURVE",
"571 532 OFFCURVE",
"573 539 CURVE SMOOTH",
"584 568 OFFCURVE",
"618 632 OFFCURVE",
"618 672 CURVE SMOOTH",
"618 678 OFFCURVE",
"617 683 OFFCURVE",
"616 688 CURVE SMOOTH",
"612 700 OFFCURVE",
"600 703 OFFCURVE",
"580 703 CURVE SMOOTH",
"555 703 OFFCURVE",
"518 698 OFFCURVE",
"471 698 CURVE SMOOTH",
"307 698 LINE SMOOTH",
"300 698 OFFCURVE",
"288 698 OFFCURVE",
"273 698 CURVE SMOOTH",
"214 698 OFFCURVE",
"109 694 OFFCURVE",
"65 649 CURVE SMOOTH",
"46 630 OFFCURVE",
"24 596 OFFCURVE",
"11 561 CURVE SMOOTH",
"9 554 OFFCURVE",
"12 548 OFFCURVE",
"15 548 CURVE SMOOTH",
"17 548 OFFCURVE",
"18 549 OFFCURVE",
"19 551 CURVE SMOOTH",
"54 611 OFFCURVE",
"183 645 OFFCURVE",
"290 660 CURVE",
"243 591 OFFCURVE",
"202 493 OFFCURVE",
"159 391 CURVE",
"125 391 LINE SMOOTH",
"108 391 OFFCURVE",
"75 360 OFFCURVE",
"75 348 CURVE SMOOTH",
"75 344 OFFCURVE",
"77 342 OFFCURVE",
"83 342 CURVE SMOOTH",
"138 342 LINE",
"86 215 OFFCURVE",
"40 94 OFFCURVE",
"18 0 CURVE"
);
}
);
width = 380;
}
);
leftKerningGroup = H;
note = F.script;
rightKerningGroup = F;
unicode = 0046;
},
{
color = 4;
glyphname = G;
lastChange = "2021-05-06 03:36:42 +0000";
layers = (
{
anchors = (
{
name = bottom;
position = "{305, -28}";
},
{
name = top;
position = "{548, 708}";
}
);
background = {
anchors = (
{
name = bottom;
position = "{305, -28}";
},
{
name = top;
position = "{548, 708}";
}
);
paths = (
{
closed = 1;
nodes = (
"495 -38 OFFCURVE",
"627 36 OFFCURVE",
"702 189 CURVE SMOOTH",
"708 200 OFFCURVE",
"715 219 OFFCURVE",
"722 238 CURVE",
"758 244 OFFCURVE",
"782 262 OFFCURVE",
"792 313 CURVE",
"499 313 LINE SMOOTH",
"469 313 OFFCURVE",
"427 230 OFFCURVE",
"427 230 CURVE",
"459 235 OFFCURVE",
"530 235 OFFCURVE",
"589 235 CURVE SMOOTH",
"608 235 OFFCURVE",
"627 235 OFFCURVE",
"642 235 CURVE",
"634 185 OFFCURVE",
"606 139 OFFCURVE",
"569 101 CURVE SMOOTH",
"536 67 OFFCURVE",
"494 41 OFFCURVE",
"452 26 CURVE SMOOTH",
"418 14 OFFCURVE",
"376 6 OFFCURVE",
"335 6 CURVE SMOOTH",
"280 6 OFFCURVE",
"226 22 OFFCURVE",
"198 70 CURVE SMOOTH",
"181 99 OFFCURVE",
"174 135 OFFCURVE",
"174 174 CURVE SMOOTH",
"174 247 OFFCURVE",
"199 329 OFFCURVE",
"225 383 CURVE SMOOTH",
"285 507 OFFCURVE",
"394 630 OFFCURVE",
"509 661 CURVE SMOOTH",
"525 665 OFFCURVE",
"553 671 OFFCURVE",
"580 671 CURVE SMOOTH",
"620 671 OFFCURVE",
"658 659 OFFCURVE",
"658 613 CURVE SMOOTH",
"658 561 OFFCURVE",
"602 521 OFFCURVE",
"553 521 CURVE SMOOTH",
"544 521 OFFCURVE",
"536 522 OFFCURVE",
"528 525 CURVE",
"520 514 OFFCURVE",
"516 504 OFFCURVE",
"516 495 CURVE SMOOTH",
"516 476 OFFCURVE",
"533 462 OFFCURVE",
"555 460 CURVE SMOOTH",
"622 455 OFFCURVE",
"693 498 OFFCURVE",
"716 556 CURVE SMOOTH",
"722 570 OFFCURVE",
"724 583 OFFCURVE",
"724 596 CURVE SMOOTH",
"724 661 OFFCURVE",
"654 708 OFFCURVE",
"548 708 CURVE SMOOTH",
"521 708 OFFCURVE",
"492 705 OFFCURVE",
"462 699 CURVE SMOOTH",
"224 651 OFFCURVE",
"51 393 OFFCURVE",
"51 196 CURVE SMOOTH",
"51 117 OFFCURVE",
"79 47 OFFCURVE",
"142 5 CURVE SMOOTH",
"187 -24 OFFCURVE",
"261 -38 OFFCURVE",
"323 -38 CURVE SMOOTH"
);
}
);
};
layerId = "FDC6D5C2-1E82-4E29-8E0D-3EE46E074C54";
paths = (
{
closed = 1;
nodes = (
"495 -38 OFFCURVE",
"627 36 OFFCURVE",
"702 189 CURVE SMOOTH",
"708 200 OFFCURVE",
"715 219 OFFCURVE",
"722 238 CURVE",
"758 244 OFFCURVE",
"782 262 OFFCURVE",
"792 313 CURVE",
"499 313 LINE SMOOTH",
"469 313 OFFCURVE",
"427 230 OFFCURVE",
"427 230 CURVE",
"459 235 OFFCURVE",
"530 235 OFFCURVE",
"589 235 CURVE SMOOTH",
"608 235 OFFCURVE",
"627 235 OFFCURVE",
"642 235 CURVE",
"634 185 OFFCURVE",
"606 139 OFFCURVE",
"569 101 CURVE SMOOTH",
"536 67 OFFCURVE",
"494 41 OFFCURVE",
"452 26 CURVE SMOOTH",
"418 14 OFFCURVE",
"376 6 OFFCURVE",
"335 6 CURVE SMOOTH",
"280 6 OFFCURVE",
"226 22 OFFCURVE",
"198 70 CURVE SMOOTH",
"181 99 OFFCURVE",
"174 135 OFFCURVE",
"174 174 CURVE SMOOTH",
"174 247 OFFCURVE",
"199 329 OFFCURVE",
"225 383 CURVE SMOOTH",
"285 507 OFFCURVE",
"394 630 OFFCURVE",
"509 661 CURVE SMOOTH",
"525 665 OFFCURVE",
"553 671 OFFCURVE",
"580 671 CURVE SMOOTH",
"620 671 OFFCURVE",
"658 659 OFFCURVE",
"658 613 CURVE SMOOTH",
"658 561 OFFCURVE",
"602 521 OFFCURVE",
"553 521 CURVE SMOOTH",
"544 521 OFFCURVE",
"536 522 OFFCURVE",
"528 525 CURVE",
"520 514 OFFCURVE",
"516 504 OFFCURVE",
"516 495 CURVE SMOOTH",
"516 476 OFFCURVE",
"533 462 OFFCURVE",
"555 460 CURVE SMOOTH",
"622 455 OFFCURVE",
"693 498 OFFCURVE",
"716 556 CURVE SMOOTH",
"722 570 OFFCURVE",
"724 583 OFFCURVE",
"724 596 CURVE SMOOTH",
"724 661 OFFCURVE",
"654 708 OFFCURVE",
"548 708 CURVE SMOOTH",
"521 708 OFFCURVE",
"492 705 OFFCURVE",
"462 699 CURVE SMOOTH",
"224 651 OFFCURVE",
"51 393 OFFCURVE",
"51 196 CURVE SMOOTH",
"51 117 OFFCURVE",
"79 47 OFFCURVE",
"142 5 CURVE SMOOTH",
"187 -24 OFFCURVE",
"261 -38 OFFCURVE",
"323 -38 CURVE SMOOTH"
);
}
);
width = 740;
}
);
leftKerningGroup = O;
note = G.script;
rightKerningGroup = G;
unicode = 0047;
},
{
color = 4;
glyphname = H;
lastChange = "2021-05-06 03:32:27 +0000";
layers = (
{
background = {
paths = (
{
closed = 1;
nodes = (
"591 -8 OFFCURVE",
"652 13 OFFCURVE",
"676 40 CURVE SMOOTH",
"679 43 OFFCURVE",
"677 49 OFFCURVE",
"674 49 CURVE SMOOTH",
"674 49 OFFCURVE",
"673 49 OFFCURVE",
"673 49 CURVE SMOOTH",
"657 40 OFFCURVE",
"644 36 OFFCURVE",
"634 36 CURVE SMOOTH",
"606 36 OFFCURVE",
"597 65 OFFCURVE",
"597 95 CURVE SMOOTH",
"597 105 OFFCURVE",
"598 115 OFFCURVE",
"600 125 CURVE SMOOTH",
"617 230 OFFCURVE",
"681 391 OFFCURVE",
"732 498 CURVE SMOOTH",
"766 571 OFFCURVE",
"821 670 OFFCURVE",
"857 698 CURVE",
"793 698 LINE SMOOTH",
"731 698 OFFCURVE",
"718 673 OFFCURVE",
"696 630 CURVE SMOOTH",
"676 593 OFFCURVE",
"629 495 OFFCURVE",
"585 391 CURVE",
"302 391 LINE",
"344 486 OFFCURVE",
"424 653 OFFCURVE",
"483 698 CURVE",
"304 698 LINE SMOOTH",
"288 698 OFFCURVE",
"273 698 OFFCURVE",
"257 698 CURVE SMOOTH",
"196 698 OFFCURVE",
"140 694 OFFCURVE",
"96 649 CURVE SMOOTH",
"77 630 OFFCURVE",
"58 604 OFFCURVE",
"46 569 CURVE SMOOTH",
"45 566 OFFCURVE",
"44 562 OFFCURVE",
"44 560 CURVE SMOOTH",
"44 551 OFFCURVE",
"49 546 OFFCURVE",
"53 546 CURVE SMOOTH",
"55 546 OFFCURVE",
"56 547 OFFCURVE",
"57 549 CURVE SMOOTH",
"77 612 OFFCURVE",
"226 659 OFFCURVE",
"331 661 CURVE",
"322 651 OFFCURVE",
"315 638 OFFCURVE",
"306 622 CURVE SMOOTH",
"260 539 OFFCURVE",
"229 461 OFFCURVE",
"192 373 CURVE SMOOTH",
"136 240 OFFCURVE",
"81 100 OFFCURVE",
"58 0 CURVE",
"187 0 LINE",
"184 5 OFFCURVE",
"183 13 OFFCURVE",
"183 22 CURVE SMOOTH",
"183 94 OFFCURVE",
"251 270 OFFCURVE",
"282 342 CURVE",
"565 342 LINE",
"531 258 OFFCURVE",
"504 184 OFFCURVE",
"493 127 CURVE SMOOTH",
"489 102 OFFCURVE",
"484 78 OFFCURVE",
"484 56 CURVE SMOOTH",
"484 19 OFFCURVE",
"497 -8 OFFCURVE",
"546 -8 CURVE SMOOTH"
);
}
);
};
layerId = "FDC6D5C2-1E82-4E29-8E0D-3EE46E074C54";
paths = (
{
closed = 1;
nodes = (
"591 -8 OFFCURVE",
"652 13 OFFCURVE",
"676 40 CURVE SMOOTH",
"679 43 OFFCURVE",
"677 49 OFFCURVE",
"674 49 CURVE SMOOTH",
"674 49 OFFCURVE",
"673 49 OFFCURVE",
"673 49 CURVE SMOOTH",
"657 40 OFFCURVE",
"644 36 OFFCURVE",
"634 36 CURVE SMOOTH",
"606 36 OFFCURVE",
"597 65 OFFCURVE",
"597 95 CURVE SMOOTH",
"597 105 OFFCURVE",
"598 115 OFFCURVE",
"600 125 CURVE SMOOTH",
"617 230 OFFCURVE",
"681 391 OFFCURVE",
"732 498 CURVE SMOOTH",
"766 571 OFFCURVE",
"821 670 OFFCURVE",
"857 698 CURVE",
"793 698 LINE SMOOTH",
"731 698 OFFCURVE",
"718 673 OFFCURVE",
"696 630 CURVE SMOOTH",
"676 593 OFFCURVE",
"629 495 OFFCURVE",
"585 391 CURVE",
"302 391 LINE",
"344 486 OFFCURVE",
"424 653 OFFCURVE",
"483 698 CURVE",
"304 698 LINE SMOOTH",
"288 698 OFFCURVE",
"273 698 OFFCURVE",
"257 698 CURVE SMOOTH",
"196 698 OFFCURVE",
"140 694 OFFCURVE",
"96 649 CURVE SMOOTH",
"77 630 OFFCURVE",
"58 604 OFFCURVE",
"46 569 CURVE SMOOTH",
"45 566 OFFCURVE",
"44 562 OFFCURVE",
"44 560 CURVE SMOOTH",
"44 551 OFFCURVE",
"49 546 OFFCURVE",
"53 546 CURVE SMOOTH",
"55 546 OFFCURVE",
"56 547 OFFCURVE",
"57 549 CURVE SMOOTH",
"77 612 OFFCURVE",
"226 659 OFFCURVE",
"331 661 CURVE",
"322 651 OFFCURVE",
"315 638 OFFCURVE",
"306 622 CURVE SMOOTH",
"260 539 OFFCURVE",
"229 461 OFFCURVE",
"192 373 CURVE SMOOTH",
"136 240 OFFCURVE",
"81 100 OFFCURVE",
"58 0 CURVE",
"187 0 LINE",
"184 5 OFFCURVE",
"183 13 OFFCURVE",
"183 22 CURVE SMOOTH",
"183 94 OFFCURVE",
"251 270 OFFCURVE",
"282 342 CURVE",
"565 342 LINE",
"531 258 OFFCURVE",
"504 184 OFFCURVE",
"493 127 CURVE SMOOTH",
"489 102 OFFCURVE",
"484 78 OFFCURVE",
"484 56 CURVE SMOOTH",
"484 19 OFFCURVE",
"497 -8 OFFCURVE",
"546 -8 CURVE SMOOTH"
);
}
);
width = 680;
}
);
leftKerningGroup = H;
note = H.script;
rightKerningGroup = H;
unicode = 0048;
},
{
color = 4;
glyphname = I;
lastChange = "2021-05-06 03:10:02 +0000";
layers = (
{
anchors = (
{
name = bottom;
position = "{99, 0}";
},
{
name = ogonek;
position = "{116, 11}";
},
{
name = top;
position = "{393, 706}";
},
{
name = topleft;
position = "{40, 706}";
}
);
background = {
anchors = (
{
name = bottom;
position = "{99, 0}";
},
{
name = ogonek;
position = "{116, 11}";
},
{
name = top;
position = "{393, 706}";
},
{
name = topleft;
position = "{40, 706}";
}
);
paths = (
{
closed = 1;
nodes = (
"167 0 LINE",
"165 5 OFFCURVE",
"163 12 OFFCURVE",
"163 22 CURVE SMOOTH",
"163 101 OFFCURVE",
"250 318 OFFCURVE",
"273 370 CURVE SMOOTH",
"312 459 OFFCURVE",
"400 650 OFFCURVE",
"463 698 CURVE",
"284 698 LINE SMOOTH",
"268 698 OFFCURVE",
"253 698 OFFCURVE",
"237 698 CURVE SMOOTH",
"176 698 OFFCURVE",
"120 694 OFFCURVE",
"76 649 CURVE SMOOTH",
"57 630 OFFCURVE",
"38 604 OFFCURVE",
"26 569 CURVE SMOOTH",
"25 566 OFFCURVE",
"24 562 OFFCURVE",
"24 560 CURVE SMOOTH",
"24 551 OFFCURVE",
"29 546 OFFCURVE",
"33 546 CURVE SMOOTH",
"35 546 OFFCURVE",
"36 547 OFFCURVE",
"37 549 CURVE SMOOTH",
"57 612 OFFCURVE",
"206 659 OFFCURVE",
"311 661 CURVE",
"302 651 OFFCURVE",
"295 638 OFFCURVE",
"286 622 CURVE SMOOTH",
"240 539 OFFCURVE",
"209 461 OFFCURVE",
"172 373 CURVE SMOOTH",
"116 240 OFFCURVE",
"61 100 OFFCURVE",
"38 0 CURVE"
);
}
);
};
layerId = "FDC6D5C2-1E82-4E29-8E0D-3EE46E074C54";
paths = (
{
closed = 1;
nodes = (
"167 0 LINE",
"165 5 OFFCURVE",
"163 12 OFFCURVE",
"163 22 CURVE SMOOTH",
"163 101 OFFCURVE",
"250 318 OFFCURVE",
"273 370 CURVE SMOOTH",
"312 459 OFFCURVE",
"400 650 OFFCURVE",
"463 698 CURVE",
"284 698 LINE SMOOTH",
"268 698 OFFCURVE",
"253 698 OFFCURVE",
"237 698 CURVE SMOOTH",
"176 698 OFFCURVE",
"120 694 OFFCURVE",
"76 649 CURVE SMOOTH",
"57 630 OFFCURVE",
"38 604 OFFCURVE",
"26 569 CURVE SMOOTH",
"25 566 OFFCURVE",
"24 562 OFFCURVE",
"24 560 CURVE SMOOTH",
"24 551 OFFCURVE",
"29 546 OFFCURVE",
"33 546 CURVE SMOOTH",
"35 546 OFFCURVE",
"36 547 OFFCURVE",
"37 549 CURVE SMOOTH",
"57 612 OFFCURVE",
"206 659 OFFCURVE",
"311 661 CURVE",
"302 651 OFFCURVE",
"295 638 OFFCURVE",
"286 622 CURVE SMOOTH",
"240 539 OFFCURVE",
"209 461 OFFCURVE",
"172 373 CURVE SMOOTH",
"116 240 OFFCURVE",
"61 100 OFFCURVE",
"38 0 CURVE"
);
}
);
width = 280;
}
);
leftKerningGroup = H;
note = I.script;
rightKerningGroup = N;
unicode = 0049;
},
{
color = 4;
glyphname = J;
lastChange = "2021-05-06 01:49:29 +0000";
layers = (
{
background = {
paths = (
{
closed = 1;
nodes = (
"235 -170 OFFCURVE",
"346 263 OFFCURVE",
"394 399 CURVE SMOOTH",
"468 607 OFFCURVE",
"485 619 OFFCURVE",
"587 697 CURVE",
"362 698 LINE SMOOTH",
"346 698 OFFCURVE",
"331 698 OFFCURVE",
"315 698 CURVE SMOOTH",
"254 698 OFFCURVE",
"198 694 OFFCURVE",
"154 649 CURVE SMOOTH",
"135 630 OFFCURVE",
"116 604 OFFCURVE",
"104 569 CURVE SMOOTH",
"103 566 OFFCURVE",
"102 562 OFFCURVE",
"102 560 CURVE SMOOTH",
"102 551 OFFCURVE",
"107 546 OFFCURVE",
"111 546 CURVE SMOOTH",
"113 546 OFFCURVE",
"114 547 OFFCURVE",
"115 549 CURVE SMOOTH",
"132 600 OFFCURVE",
"241 643 OFFCURVE",
"332 657 CURVE SMOOTH",
"345 659 OFFCURVE",
"370 660 OFFCURVE",
"398 660 CURVE SMOOTH",
"431 660 OFFCURVE",
"468 658 OFFCURVE",
"490 652 CURVE",
"424 629 OFFCURVE",
"339 455 OFFCURVE",
"307 375 CURVE SMOOTH",
"282 313 OFFCURVE",
"193 97 OFFCURVE",
"108 -6 CURVE SMOOTH",
"84 -35 OFFCURVE",
"49 -64 OFFCURVE",
"9 -64 CURVE SMOOTH",
"-16 -64 OFFCURVE",
"-40 -50 OFFCURVE",
"-40 -9 CURVE SMOOTH",
"-40 -7 OFFCURVE",
"-40 -5 OFFCURVE",
"-40 -3 CURVE",
"-77 -7 OFFCURVE",
"-85 -54 OFFCURVE",
"-85 -73 CURVE SMOOTH",
"-85 -132 OFFCURVE",
"-44 -170 OFFCURVE",
"18 -170 CURVE SMOOTH"
);
}
);
};
layerId = "FDC6D5C2-1E82-4E29-8E0D-3EE46E074C54";
paths = (
{
closed = 1;
nodes = (
"235 -170 OFFCURVE",
"346 263 OFFCURVE",
"394 399 CURVE SMOOTH",
"468 607 OFFCURVE",
"485 619 OFFCURVE",
"587 697 CURVE",
"362 698 LINE SMOOTH",
"346 698 OFFCURVE",
"331 698 OFFCURVE",
"315 698 CURVE SMOOTH",
"254 698 OFFCURVE",
"198 694 OFFCURVE",
"154 649 CURVE SMOOTH",
"135 630 OFFCURVE",
"116 604 OFFCURVE",
"104 569 CURVE SMOOTH",
"103 566 OFFCURVE",
"102 562 OFFCURVE",
"102 560 CURVE SMOOTH",
"102 551 OFFCURVE",
"107 546 OFFCURVE",
"111 546 CURVE SMOOTH",
"113 546 OFFCURVE",
"114 547 OFFCURVE",
"115 549 CURVE SMOOTH",
"132 600 OFFCURVE",
"241 643 OFFCURVE",
"332 657 CURVE SMOOTH",
"345 659 OFFCURVE",
"370 660 OFFCURVE",
"398 660 CURVE SMOOTH",
"431 660 OFFCURVE",
"468 658 OFFCURVE",
"490 652 CURVE",
"424 629 OFFCURVE",
"339 455 OFFCURVE",
"307 375 CURVE SMOOTH",
"282 313 OFFCURVE",
"193 97 OFFCURVE",
"108 -6 CURVE SMOOTH",
"84 -35 OFFCURVE",
"49 -64 OFFCURVE",
"9 -64 CURVE SMOOTH",
"-16 -64 OFFCURVE",
"-40 -50 OFFCURVE",
"-40 -9 CURVE SMOOTH",
"-40 -7 OFFCURVE",
"-40 -5 OFFCURVE",
"-40 -3 CURVE",
"-77 -7 OFFCURVE",
"-85 -54 OFFCURVE",
"-85 -73 CURVE SMOOTH",
"-85 -132 OFFCURVE",
"-44 -170 OFFCURVE",
"18 -170 CURVE SMOOTH"
);
}
);
width = 389;
}
);
leftKerningGroup = J;
note = J.script;
rightKerningGroup = J;
unicode = 004A;
},
{
color = 4;
glyphname = K;
lastChange = "2021-05-06 03:39:40 +0000";
layers = (
{
anchors = (
{
name = bottom;
position = "{320, 0}";
},
{
name = top;
position = "{590, 706}";
}
);
background = {
paths = (
{
closed = 1;
nodes = (
"180 0 LINE",
"178 5 OFFCURVE",
"176 13 OFFCURVE",
"176 23 CURVE SMOOTH",
"176 79 OFFCURVE",
"215 194 OFFCURVE",
"235 222 CURVE SMOOTH",
"260 258 OFFCURVE",
"294 298 OFFCURVE",
"331 335 CURVE",
"346 245 OFFCURVE",
"473 2 OFFCURVE",
"534 2 CURVE",
"534 2 OFFCURVE",
"579 -1 OFFCURVE",
"619 -1 CURVE SMOOTH",
"638 -1 OFFCURVE",
"657 0 OFFCURVE",
"667 2 CURVE",
"589 54 OFFCURVE",
"445 242 OFFCURVE",
"398 398 CURVE",
"430 427 OFFCURVE",
"461 452 OFFCURVE",
"487 472 CURVE SMOOTH",
"563 531 OFFCURVE",
"646 587 OFFCURVE",
"729 633 CURVE SMOOTH",
"789 666 OFFCURVE",
"840 687 OFFCURVE",
"871 687 CURVE SMOOTH",
"878 687 OFFCURVE",
"878 696 OFFCURVE",
"871 698 CURVE SMOOTH",
"853 703 OFFCURVE",
"833 706 OFFCURVE",
"811 706 CURVE SMOOTH",
"768 706 OFFCURVE",
"717 694 OFFCURVE",
"660 661 CURVE SMOOTH",
"504 569 OFFCURVE",
"331 410 OFFCURVE",
"249 292 CURVE",
"290 396 OFFCURVE",
"403 641 OFFCURVE",
"478 698 CURVE",
"298 698 LINE SMOOTH",
"282 698 OFFCURVE",
"267 698 OFFCURVE",
"252 698 CURVE SMOOTH",
"191 698 OFFCURVE",
"134 694 OFFCURVE",
"90 649 CURVE SMOOTH",
"72 630 OFFCURVE",
"53 604 OFFCURVE",
"41 569 CURVE SMOOTH",
"40 565 OFFCURVE",
"39 562 OFFCURVE",
"39 559 CURVE SMOOTH",
"39 551 OFFCURVE",
"43 546 OFFCURVE",
"47 546 CURVE SMOOTH",
"49 546 OFFCURVE",
"50 547 OFFCURVE",
"51 549 CURVE SMOOTH",
"71 612 OFFCURVE",
"221 659 OFFCURVE",
"325 661 CURVE",
"320 654 OFFCURVE",
"310 641 OFFCURVE",
"308 637 CURVE",
"212 501 OFFCURVE",
"83 122 OFFCURVE",
"51 0 CURVE"
);
}
);
};
layerId = "FDC6D5C2-1E82-4E29-8E0D-3EE46E074C54";
paths = (
{
closed = 1;
nodes = (
"180 0 LINE",
"178 5 OFFCURVE",
"176 13 OFFCURVE",
"176 23 CURVE SMOOTH",
"176 79 OFFCURVE",
"215 194 OFFCURVE",
"235 222 CURVE SMOOTH",
"260 258 OFFCURVE",
"294 298 OFFCURVE",
"331 335 CURVE",
"346 245 OFFCURVE",
"473 2 OFFCURVE",
"534 2 CURVE",
"534 2 OFFCURVE",
"579 -1 OFFCURVE",
"619 -1 CURVE SMOOTH",
"638 -1 OFFCURVE",
"657 0 OFFCURVE",
"667 2 CURVE",
"589 54 OFFCURVE",
"445 242 OFFCURVE",
"398 398 CURVE",
"430 427 OFFCURVE",
"461 452 OFFCURVE",
"487 472 CURVE SMOOTH",
"563 531 OFFCURVE",
"646 587 OFFCURVE",
"729 633 CURVE SMOOTH",
"789 666 OFFCURVE",
"840 687 OFFCURVE",
"871 687 CURVE SMOOTH",
"878 687 OFFCURVE",
"878 696 OFFCURVE",
"871 698 CURVE SMOOTH",
"853 703 OFFCURVE",
"833 706 OFFCURVE",
"811 706 CURVE SMOOTH",
"768 706 OFFCURVE",
"717 694 OFFCURVE",
"660 661 CURVE SMOOTH",
"504 569 OFFCURVE",
"331 410 OFFCURVE",
"249 292 CURVE",
"290 396 OFFCURVE",
"403 641 OFFCURVE",
"478 698 CURVE",
"298 698 LINE SMOOTH",
"282 698 OFFCURVE",
"267 698 OFFCURVE",
"252 698 CURVE SMOOTH",
"191 698 OFFCURVE",
"134 694 OFFCURVE",
"90 649 CURVE SMOOTH",
"72 630 OFFCURVE",
"53 604 OFFCURVE",
"41 569 CURVE SMOOTH",
"40 565 OFFCURVE",
"39 562 OFFCURVE",
"39 559 CURVE SMOOTH",
"39 551 OFFCURVE",
"43 546 OFFCURVE",
"47 546 CURVE SMOOTH",
"49 546 OFFCURVE",
"50 547 OFFCURVE",
"51 549 CURVE SMOOTH",
"71 612 OFFCURVE",
"221 659 OFFCURVE",
"325 661 CURVE",
"320 654 OFFCURVE",
"310 641 OFFCURVE",
"308 637 CURVE",
"212 501 OFFCURVE",
"83 122 OFFCURVE",
"51 0 CURVE"
);
}
);
width = 640;
}
);
leftKerningGroup = H;
note = K.script;
rightKerningGroup = K;
unicode = 004B;
},
{
color = 4;
glyphname = L;
lastChange = "2021-05-06 03:40:09 +0000";
layers = (
{
anchors = (
{
name = bottom;
position = "{225, 0}";
},
{
name = center;
position = "{277, 353}";
},
{
name = top;
position = "{356, 706}";
},
{
name = topright;
position = "{470, 706}";
}
);
background = {
anchors = (
{
name = bottom;
position = "{225, 0}";
},
{
name = center;
position = "{277, 353}";
},
{
name = top;
position = "{356, 706}";
},
{
name = topright;
position = "{470, 706}";
}
);
paths = (
{
closed = 1;
nodes = (
"320 0 LINE SMOOTH",
"333 0 OFFCURVE",
"347 0 OFFCURVE",
"362 0 CURVE SMOOTH",
"421 0 OFFCURVE",
"486 4 OFFCURVE",
"523 49 CURVE SMOOTH",
"538 68 OFFCURVE",
"553 94 OFFCURVE",
"564 129 CURVE SMOOTH",
"565 134 OFFCURVE",
"566 138 OFFCURVE",
"566 141 CURVE SMOOTH",
"566 149 OFFCURVE",
"563 152 OFFCURVE",
"559 152 CURVE SMOOTH",
"557 152 OFFCURVE",
"555 150 OFFCURVE",
"554 148 CURVE SMOOTH",
"532 104 OFFCURVE",
"481 75 OFFCURVE",
"422 58 CURVE SMOOTH",
"352 38 OFFCURVE",
"279 34 OFFCURVE",
"208 34 CURVE SMOOTH",
"153 34 OFFCURVE",
"137 62 OFFCURVE",
"137 99 CURVE SMOOTH",
"137 105 OFFCURVE",
"137 111 OFFCURVE",
"138 118 CURVE SMOOTH",
"151 220 OFFCURVE",
"270 453 OFFCURVE",
"316 536 CURVE SMOOTH",
"358 611 OFFCURVE",
"400 675 OFFCURVE",
"430 698 CURVE",
"250 698 LINE SMOOTH",
"234 698 OFFCURVE",
"219 698 OFFCURVE",
"203 698 CURVE SMOOTH",
"142 698 OFFCURVE",
"86 694 OFFCURVE",
"42 649 CURVE SMOOTH",
"23 630 OFFCURVE",
"5 604 OFFCURVE",
"-8 569 CURVE SMOOTH",
"-9 566 OFFCURVE",
"-10 562 OFFCURVE",
"-10 560 CURVE SMOOTH",
"-10 551 OFFCURVE",
"-5 546 OFFCURVE",
"-1 546 CURVE SMOOTH",
"1 546 OFFCURVE",
"2 547 OFFCURVE",
"3 549 CURVE SMOOTH",
"23 612 OFFCURVE",
"172 659 OFFCURVE",
"277 661 CURVE",
"271 654 OFFCURVE",
"261 635 OFFCURVE",
"258 630 CURVE SMOOTH",
"178 486 OFFCURVE",
"61 268 OFFCURVE",
"29 127 CURVE SMOOTH",
"23 100 OFFCURVE",
"19 76 OFFCURVE",
"19 56 CURVE SMOOTH",
"19 21 OFFCURVE",
"31 0 OFFCURVE",
"59 0 CURVE SMOOTH"
);
}
);
};
layerId = "FDC6D5C2-1E82-4E29-8E0D-3EE46E074C54";
paths = (
{
closed = 1;
nodes = (
"320 0 LINE SMOOTH",
"333 0 OFFCURVE",
"347 0 OFFCURVE",
"362 0 CURVE SMOOTH",
"421 0 OFFCURVE",
"486 4 OFFCURVE",
"523 49 CURVE SMOOTH",
"538 68 OFFCURVE",
"553 94 OFFCURVE",
"564 129 CURVE SMOOTH",
"565 134 OFFCURVE",
"566 138 OFFCURVE",
"566 141 CURVE SMOOTH",
"566 149 OFFCURVE",
"563 152 OFFCURVE",
"559 152 CURVE SMOOTH",
"557 152 OFFCURVE",
"555 150 OFFCURVE",
"554 148 CURVE SMOOTH",
"532 104 OFFCURVE",
"481 75 OFFCURVE",
"422 58 CURVE SMOOTH",
"352 38 OFFCURVE",
"279 34 OFFCURVE",
"208 34 CURVE SMOOTH",
"153 34 OFFCURVE",
"137 62 OFFCURVE",
"137 99 CURVE SMOOTH",
"137 105 OFFCURVE",
"137 111 OFFCURVE",
"138 118 CURVE SMOOTH",
"151 220 OFFCURVE",
"270 453 OFFCURVE",
"316 536 CURVE SMOOTH",
"358 611 OFFCURVE",
"400 675 OFFCURVE",
"430 698 CURVE",
"250 698 LINE SMOOTH",
"234 698 OFFCURVE",
"219 698 OFFCURVE",
"203 698 CURVE SMOOTH",
"142 698 OFFCURVE",
"86 694 OFFCURVE",
"42 649 CURVE SMOOTH",
"23 630 OFFCURVE",
"5 604 OFFCURVE",
"-8 569 CURVE SMOOTH",
"-9 566 OFFCURVE",
"-10 562 OFFCURVE",
"-10 560 CURVE SMOOTH",
"-10 551 OFFCURVE",
"-5 546 OFFCURVE",
"-1 546 CURVE SMOOTH",
"1 546 OFFCURVE",
"2 547 OFFCURVE",
"3 549 CURVE SMOOTH",
"23 612 OFFCURVE",
"172 659 OFFCURVE",
"277 661 CURVE",
"271 654 OFFCURVE",
"261 635 OFFCURVE",
"258 630 CURVE SMOOTH",
"178 486 OFFCURVE",
"61 268 OFFCURVE",
"29 127 CURVE SMOOTH",
"23 100 OFFCURVE",
"19 76 OFFCURVE",
"19 56 CURVE SMOOTH",
"19 21 OFFCURVE",
"31 0 OFFCURVE",
"59 0 CURVE SMOOTH"
);
}
);
width = 570;
}
);
leftKerningGroup = L;
note = L.script;
rightKerningGroup = L;
unicode = 004C;
},
{
color = 4;
glyphname = M;
lastChange = "2021-05-06 03:11:28 +0000";
layers = (
{
background = {
paths = (
{
closed = 1;
nodes = (
"748 -8 OFFCURVE",
"809 13 OFFCURVE",
"834 40 CURVE SMOOTH",
"837 43 OFFCURVE",
"835 49 OFFCURVE",
"832 49 CURVE SMOOTH",
"832 49 OFFCURVE",
"831 49 OFFCURVE",
"831 49 CURVE SMOOTH",
"815 40 OFFCURVE",
"802 36 OFFCURVE",
"792 36 CURVE SMOOTH",
"765 36 OFFCURVE",
"757 62 OFFCURVE",
"757 91 CURVE SMOOTH",
"757 103 OFFCURVE",
"758 114 OFFCURVE",
"760 125 CURVE SMOOTH",
"780 230 OFFCURVE",
"839 374 OFFCURVE",
"892 482 CURVE SMOOTH",
"928 554 OFFCURVE",
"985 665 OFFCURVE",
"1028 698 CURVE",
"966 698 LINE SMOOTH",
"919 698 OFFCURVE",
"868 686 OFFCURVE",
"838 651 CURVE SMOOTH",
"785 588 OFFCURVE",
"551 306 OFFCURVE",
"468 202 CURVE",
"470 222 OFFCURVE",
"471 245 OFFCURVE",
"471 263 CURVE SMOOTH",
"471 281 OFFCURVE",
"470 295 OFFCURVE",
"470 298 CURVE SMOOTH",
"468 397 OFFCURVE",
"459 592 OFFCURVE",
"449 647 CURVE SMOOTH",
"438 707 OFFCURVE",
"391 698 OFFCURVE",
"348 698 CURVE SMOOTH",
"298 698 LINE SMOOTH",
"282 698 OFFCURVE",
"267 698 OFFCURVE",
"251 698 CURVE SMOOTH",
"190 698 OFFCURVE",
"134 694 OFFCURVE",
"90 649 CURVE SMOOTH",
"72 630 OFFCURVE",
"53 604 OFFCURVE",
"41 569 CURVE SMOOTH",
"40 565 OFFCURVE",
"39 562 OFFCURVE",
"39 559 CURVE SMOOTH",
"39 551 OFFCURVE",
"43 546 OFFCURVE",
"47 546 CURVE SMOOTH",
"49 546 OFFCURVE",
"50 547 OFFCURVE",
"51 549 CURVE SMOOTH",
"71 612 OFFCURVE",
"212 672 OFFCURVE",
"330 669 CURVE",
"311 632 OFFCURVE",
"125 224 OFFCURVE",
"38 0 CURVE",
"130 0 LINE",
"114 67 OFFCURVE",
"327 548 OFFCURVE",
"353 597 CURVE",
"366 517 OFFCURVE",
"373 405 OFFCURVE",
"373 308 CURVE SMOOTH",
"373 212 OFFCURVE",
"366 130 OFFCURVE",
"348 107 CURVE",
"369 97 OFFCURVE",
"388 92 OFFCURVE",
"405 92 CURVE SMOOTH",
"439 92 OFFCURVE",
"448 103 OFFCURVE",
"499 169 CURVE SMOOTH",
"590 287 OFFCURVE",
"669 393 OFFCURVE",
"785 523 CURVE SMOOTH",
"803 544 OFFCURVE",
"822 561 OFFCURVE",
"839 577 CURVE",
"780 465 OFFCURVE",
"668 241 OFFCURVE",
"643 127 CURVE SMOOTH",
"638 105 OFFCURVE",
"635 83 OFFCURVE",
"635 64 CURVE SMOOTH",
"635 23 OFFCURVE",
"650 -8 OFFCURVE",
"702 -8 CURVE SMOOTH"
);
}
);
};
layerId = "FDC6D5C2-1E82-4E29-8E0D-3EE46E074C54";
paths = (
{
closed = 1;
nodes = (
"748 -8 OFFCURVE",
"809 13 OFFCURVE",
"834 40 CURVE SMOOTH",
"837 43 OFFCURVE",
"835 49 OFFCURVE",
"832 49 CURVE SMOOTH",
"832 49 OFFCURVE",
"831 49 OFFCURVE",
"831 49 CURVE SMOOTH",
"815 40 OFFCURVE",
"802 36 OFFCURVE",
"792 36 CURVE SMOOTH",
"765 36 OFFCURVE",
"757 62 OFFCURVE",
"757 91 CURVE SMOOTH",
"757 103 OFFCURVE",
"758 114 OFFCURVE",
"760 125 CURVE SMOOTH",
"780 230 OFFCURVE",
"839 374 OFFCURVE",
"892 482 CURVE SMOOTH",
"928 554 OFFCURVE",
"985 665 OFFCURVE",
"1028 698 CURVE",
"966 698 LINE SMOOTH",
"919 698 OFFCURVE",
"868 686 OFFCURVE",
"838 651 CURVE SMOOTH",
"785 588 OFFCURVE",
"551 306 OFFCURVE",
"468 202 CURVE",
"470 222 OFFCURVE",
"471 245 OFFCURVE",
"471 263 CURVE SMOOTH",
"471 281 OFFCURVE",
"470 295 OFFCURVE",
"470 298 CURVE SMOOTH",
"468 397 OFFCURVE",
"459 592 OFFCURVE",
"449 647 CURVE SMOOTH",
"438 707 OFFCURVE",
"391 698 OFFCURVE",
"348 698 CURVE SMOOTH",
"298 698 LINE SMOOTH",
"282 698 OFFCURVE",
"267 698 OFFCURVE",
"251 698 CURVE SMOOTH",
"190 698 OFFCURVE",
"134 694 OFFCURVE",
"90 649 CURVE SMOOTH",
"72 630 OFFCURVE",
"53 604 OFFCURVE",
"41 569 CURVE SMOOTH",
"40 565 OFFCURVE",
"39 562 OFFCURVE",
"39 559 CURVE SMOOTH",
"39 551 OFFCURVE",
"43 546 OFFCURVE",
"47 546 CURVE SMOOTH",
"49 546 OFFCURVE",
"50 547 OFFCURVE",
"51 549 CURVE SMOOTH",
"71 612 OFFCURVE",
"212 672 OFFCURVE",
"330 669 CURVE",
"311 632 OFFCURVE",
"125 224 OFFCURVE",
"38 0 CURVE",
"130 0 LINE",
"114 67 OFFCURVE",
"327 548 OFFCURVE",
"353 597 CURVE",
"366 517 OFFCURVE",
"373 405 OFFCURVE",
"373 308 CURVE SMOOTH",
"373 212 OFFCURVE",
"366 130 OFFCURVE",
"348 107 CURVE",
"369 97 OFFCURVE",
"388 92 OFFCURVE",
"405 92 CURVE SMOOTH",
"439 92 OFFCURVE",
"448 103 OFFCURVE",
"499 169 CURVE SMOOTH",
"590 287 OFFCURVE",
"669 393 OFFCURVE",
"785 523 CURVE SMOOTH",
"803 544 OFFCURVE",
"822 561 OFFCURVE",
"839 577 CURVE",
"780 465 OFFCURVE",
"668 241 OFFCURVE",
"643 127 CURVE SMOOTH",
"638 105 OFFCURVE",
"635 83 OFFCURVE",
"635 64 CURVE SMOOTH",
"635 23 OFFCURVE",
"650 -8 OFFCURVE",
"702 -8 CURVE SMOOTH"
);
}
);
width = 840;
}
);
leftKerningGroup = H;
note = M.script;
rightKerningGroup = H;
unicode = 004D;
},
{
color = 4;
glyphname = N;
lastChange = "2021-05-06 03:41:04 +0000";
layers = (
{
anchors = (
{
name = bottom;
position = "{299, 0}";
},
{
name = top;
position = "{560, 706}";
}
);
background = {
anchors = (
{
name = bottom;
position = "{299, 0}";
},
{
name = top;
position = "{560, 706}";
}
);
paths = (
{
closed = 1;
nodes = (
"130 0 LINE",
"117 55 OFFCURVE",
"258 390 OFFCURVE",
"323 534 CURVE",
"327 486 OFFCURVE",
"343 419 OFFCURVE",
"382 328 CURVE SMOOTH",
"471 119 OFFCURVE",
"496 80 OFFCURVE",
"499 0 CURVE",
"562 0 LINE",
"560 5 OFFCURVE",
"560 11 OFFCURVE",
"560 18 CURVE SMOOTH",
"560 99 OFFCURVE",
"646 323 OFFCURVE",
"730 494 CURVE SMOOTH",
"779 595 OFFCURVE",
"820 672 OFFCURVE",
"858 697 CURVE",
"847 697 OFFCURVE",
"810 703 OFFCURVE",
"786 703 CURVE SMOOTH",
"775 703 OFFCURVE",
"767 701 OFFCURVE",
"765 698 CURVE SMOOTH",
"710 572 OFFCURVE",
"581 283 OFFCURVE",
"542 184 CURVE",
"538 214 OFFCURVE",
"546 221 OFFCURVE",
"506 327 CURVE SMOOTH",
"495 358 OFFCURVE",
"480 393 OFFCURVE",
"463 434 CURVE SMOOTH",
"418 539 OFFCURVE",
"406 603 OFFCURVE",
"406 642 CURVE SMOOTH",
"406 679 OFFCURVE",
"417 693 OFFCURVE",
"420 698 CURVE",
"298 698 LINE SMOOTH",
"282 698 OFFCURVE",
"267 698 OFFCURVE",
"251 698 CURVE SMOOTH",
"190 698 OFFCURVE",
"134 694 OFFCURVE",
"90 649 CURVE SMOOTH",
"72 630 OFFCURVE",
"53 604 OFFCURVE",
"41 569 CURVE SMOOTH",
"40 565 OFFCURVE",
"39 562 OFFCURVE",
"39 559 CURVE SMOOTH",
"39 551 OFFCURVE",
"43 546 OFFCURVE",
"47 546 CURVE SMOOTH",
"49 546 OFFCURVE",
"50 547 OFFCURVE",
"51 549 CURVE SMOOTH",
"71 612 OFFCURVE",
"212 672 OFFCURVE",
"330 669 CURVE",
"311 632 OFFCURVE",
"125 224 OFFCURVE",
"38 0 CURVE"
);
}
);
};
layerId = "FDC6D5C2-1E82-4E29-8E0D-3EE46E074C54";
paths = (
{
closed = 1;
nodes = (
"130 0 LINE",
"117 55 OFFCURVE",
"258 390 OFFCURVE",
"323 534 CURVE",
"327 486 OFFCURVE",
"343 419 OFFCURVE",
"382 328 CURVE SMOOTH",
"471 119 OFFCURVE",
"496 80 OFFCURVE",
"499 0 CURVE",
"562 0 LINE",
"560 5 OFFCURVE",
"560 11 OFFCURVE",
"560 18 CURVE SMOOTH",
"560 99 OFFCURVE",
"646 323 OFFCURVE",
"730 494 CURVE SMOOTH",
"779 595 OFFCURVE",
"820 672 OFFCURVE",
"858 697 CURVE",
"847 697 OFFCURVE",
"810 703 OFFCURVE",
"786 703 CURVE SMOOTH",
"775 703 OFFCURVE",
"767 701 OFFCURVE",
"765 698 CURVE SMOOTH",
"710 572 OFFCURVE",
"581 283 OFFCURVE",
"542 184 CURVE",
"538 214 OFFCURVE",
"546 221 OFFCURVE",
"506 327 CURVE SMOOTH",
"495 358 OFFCURVE",
"480 393 OFFCURVE",
"463 434 CURVE SMOOTH",
"418 539 OFFCURVE",
"406 603 OFFCURVE",
"406 642 CURVE SMOOTH",
"406 679 OFFCURVE",
"417 693 OFFCURVE",
"420 698 CURVE",
"298 698 LINE SMOOTH",
"282 698 OFFCURVE",
"267 698 OFFCURVE",
"251 698 CURVE SMOOTH",
"190 698 OFFCURVE",
"134 694 OFFCURVE",
"90 649 CURVE SMOOTH",
"72 630 OFFCURVE",
"53 604 OFFCURVE",
"41 569 CURVE SMOOTH",
"40 565 OFFCURVE",
"39 562 OFFCURVE",
"39 559 CURVE SMOOTH",
"39 551 OFFCURVE",
"43 546 OFFCURVE",
"47 546 CURVE SMOOTH",
"49 546 OFFCURVE",
"50 547 OFFCURVE",
"51 549 CURVE SMOOTH",
"71 612 OFFCURVE",
"212 672 OFFCURVE",
"330 669 CURVE",
"311 632 OFFCURVE",
"125 224 OFFCURVE",
"38 0 CURVE"
);
}
);
width = 640;
}
);
leftKerningGroup = N;
note = N.script;
rightKerningGroup = N;
unicode = 004E;
},
{
color = 4;
glyphname = O;
lastChange = "2021-05-06 03:36:17 +0000";
layers = (
{
anchors = (
{
name = bottom;
position = "{282, -38}";
},
{
name = center;
position = "{452, 353}";
},
{
name = ogonek;
position = "{321, -21}";
},
{
name = top;
position = "{575, 708}";
},
{
name = topleft;
position = "{90, 706}";
},
{
name = topright;
position = "{720, 641}";
}
);
background = {
anchors = (
{
name = bottom;
position = "{282, -38}";
},
{
name = center;
position = "{452, 353}";
},
{
name = ogonek;
position = "{321, -21}";
},
{
name = top;
position = "{575, 708}";
},
{
name = topleft;
position = "{90, 706}";
},
{
name = topright;
position = "{720, 641}";
}
);
paths = (
{
closed = 1;
nodes = (
"537 -32 OFFCURVE",
"704 112 OFFCURVE",
"788 303 CURVE SMOOTH",
"815 364 OFFCURVE",
"829 425 OFFCURVE",
"829 481 CURVE SMOOTH",
"829 609 OFFCURVE",
"753 708 OFFCURVE",
"575 708 CURVE SMOOTH",
"309 708 OFFCURVE",
"73 455 OFFCURVE",
"73 187 CURVE SMOOTH",
"73 27 OFFCURVE",
"173 -32 OFFCURVE",
"321 -32 CURVE SMOOTH"
);
},
{
closed = 1;
nodes = (
"383 13 OFFCURVE",
"358 9 OFFCURVE",
"335 9 CURVE SMOOTH",
"229 9 OFFCURVE",
"190 90 OFFCURVE",
"190 186 CURVE SMOOTH",
"190 257 OFFCURVE",
"211 336 OFFCURVE",
"243 400 CURVE SMOOTH",
"280 473 OFFCURVE",
"337 540 OFFCURVE",
"401 591 CURVE SMOOTH",
"453 631 OFFCURVE",
"531 662 OFFCURVE",
"600 662 CURVE SMOOTH",
"667 662 OFFCURVE",
"726 632 OFFCURVE",
"741 551 CURVE SMOOTH",
"744 535 OFFCURVE",
"746 517 OFFCURVE",
"746 499 CURVE SMOOTH",
"746 441 OFFCURVE",
"731 374 OFFCURVE",
"704 309 CURVE SMOOTH",
"650 177 OFFCURVE",
"530 53 OFFCURVE",
"412 21 CURVE SMOOTH"
);
}
);
};
layerId = "FDC6D5C2-1E82-4E29-8E0D-3EE46E074C54";
paths = (
{
closed = 1;
nodes = (
"537 -32 OFFCURVE",
"704 112 OFFCURVE",
"788 303 CURVE SMOOTH",
"815 364 OFFCURVE",
"829 425 OFFCURVE",
"829 481 CURVE SMOOTH",
"829 609 OFFCURVE",
"753 708 OFFCURVE",
"575 708 CURVE SMOOTH",
"309 708 OFFCURVE",
"73 455 OFFCURVE",
"73 187 CURVE SMOOTH",
"73 27 OFFCURVE",
"173 -32 OFFCURVE",
"321 -32 CURVE SMOOTH"
);
},
{
closed = 1;
nodes = (
"383 13 OFFCURVE",
"358 9 OFFCURVE",
"335 9 CURVE SMOOTH",
"229 9 OFFCURVE",
"190 90 OFFCURVE",
"190 186 CURVE SMOOTH",
"190 257 OFFCURVE",
"211 336 OFFCURVE",
"243 400 CURVE SMOOTH",
"280 473 OFFCURVE",
"337 540 OFFCURVE",
"401 591 CURVE SMOOTH",
"453 631 OFFCURVE",
"531 662 OFFCURVE",
"600 662 CURVE SMOOTH",
"667 662 OFFCURVE",
"726 632 OFFCURVE",
"741 551 CURVE SMOOTH",
"744 535 OFFCURVE",
"746 517 OFFCURVE",
"746 499 CURVE SMOOTH",
"746 441 OFFCURVE",
"731 374 OFFCURVE",
"704 309 CURVE SMOOTH",
"650 177 OFFCURVE",
"530 53 OFFCURVE",
"412 21 CURVE SMOOTH"
);
}
);
width = 783;
}
);
leftKerningGroup = O;
note = O.script;
rightKerningGroup = O;
unicode = 004F;
},
{
color = 4;
glyphname = P;
lastChange = "2021-05-06 03:13:46 +0000";
layers = (
{
background = {
paths = (
{
closed = 1;
nodes = (
"157 0 LINE",
"154 5 OFFCURVE",
"153 13 OFFCURVE",
"153 22 CURVE SMOOTH",
"153 82 OFFCURVE",
"202 219 OFFCURVE",
"236 305 CURVE",
"251 303 OFFCURVE",
"266 303 OFFCURVE",
"282 303 CURVE SMOOTH",
"354 303 OFFCURVE",
"435 318 OFFCURVE",
"495 341 CURVE SMOOTH",
"582 374 OFFCURVE",
"655 442 OFFCURVE",
"664 548 CURVE SMOOTH",
"671 626 OFFCURVE",
"617 698 OFFCURVE",
"480 698 CURVE SMOOTH",
"274 698 LINE SMOOTH",
"258 698 OFFCURVE",
"243 698 OFFCURVE",
"227 698 CURVE SMOOTH",
"166 698 OFFCURVE",
"110 694 OFFCURVE",
"66 649 CURVE SMOOTH",
"47 630 OFFCURVE",
"28 604 OFFCURVE",
"16 569 CURVE SMOOTH",
"15 566 OFFCURVE",
"14 562 OFFCURVE",
"14 560 CURVE SMOOTH",
"14 551 OFFCURVE",
"19 546 OFFCURVE",
"23 546 CURVE SMOOTH",
"25 546 OFFCURVE",
"26 547 OFFCURVE",
"27 549 CURVE SMOOTH",
"47 612 OFFCURVE",
"196 659 OFFCURVE",
"301 661 CURVE",
"292 651 OFFCURVE",
"285 638 OFFCURVE",
"276 622 CURVE SMOOTH",
"230 539 OFFCURVE",
"199 461 OFFCURVE",
"162 373 CURVE SMOOTH",
"106 240 OFFCURVE",
"51 100 OFFCURVE",
"28 0 CURVE"
);
},
{
closed = 1;
nodes = (
"263 370 LINE SMOOTH",
"296 446 OFFCURVE",
"365 596 OFFCURVE",
"423 668 CURVE",
"441 667 OFFCURVE",
"457 666 OFFCURVE",
"473 662 CURVE SMOOTH",
"534 648 OFFCURVE",
"561 599 OFFCURVE",
"561 545 CURVE SMOOTH",
"561 502 OFFCURVE",
"543 455 OFFCURVE",
"512 420 CURVE SMOOTH",
"448 348 OFFCURVE",
"333 318 OFFCURVE",
"242 321 CURVE"
);
}
);
};
layerId = "FDC6D5C2-1E82-4E29-8E0D-3EE46E074C54";
paths = (
{
closed = 1;
nodes = (
"157 0 LINE",
"154 5 OFFCURVE",
"153 13 OFFCURVE",
"153 22 CURVE SMOOTH",
"153 82 OFFCURVE",
"202 219 OFFCURVE",
"236 305 CURVE",
"251 303 OFFCURVE",
"266 303 OFFCURVE",
"282 303 CURVE SMOOTH",
"354 303 OFFCURVE",
"435 318 OFFCURVE",
"495 341 CURVE SMOOTH",
"582 374 OFFCURVE",
"655 442 OFFCURVE",
"664 548 CURVE SMOOTH",
"671 626 OFFCURVE",
"617 698 OFFCURVE",
"480 698 CURVE SMOOTH",
"274 698 LINE SMOOTH",
"258 698 OFFCURVE",
"243 698 OFFCURVE",
"227 698 CURVE SMOOTH",
"166 698 OFFCURVE",
"110 694 OFFCURVE",
"66 649 CURVE SMOOTH",
"47 630 OFFCURVE",
"28 604 OFFCURVE",
"16 569 CURVE SMOOTH",
"15 566 OFFCURVE",
"14 562 OFFCURVE",
"14 560 CURVE SMOOTH",
"14 551 OFFCURVE",
"19 546 OFFCURVE",
"23 546 CURVE SMOOTH",
"25 546 OFFCURVE",
"26 547 OFFCURVE",
"27 549 CURVE SMOOTH",
"47 612 OFFCURVE",
"196 659 OFFCURVE",
"301 661 CURVE",
"292 651 OFFCURVE",
"285 638 OFFCURVE",
"276 622 CURVE SMOOTH",
"230 539 OFFCURVE",
"199 461 OFFCURVE",
"162 373 CURVE SMOOTH",
"106 240 OFFCURVE",
"51 100 OFFCURVE",
"28 0 CURVE"
);
},
{
closed = 1;
nodes = (
"263 370 LINE SMOOTH",
"296 446 OFFCURVE",
"365 596 OFFCURVE",
"423 668 CURVE",
"441 667 OFFCURVE",
"457 666 OFFCURVE",
"473 662 CURVE SMOOTH",
"534 648 OFFCURVE",
"561 599 OFFCURVE",
"561 545 CURVE SMOOTH",
"561 502 OFFCURVE",
"543 455 OFFCURVE",
"512 420 CURVE SMOOTH",
"448 348 OFFCURVE",
"333 318 OFFCURVE",
"242 321 CURVE"
);
}
);
width = 491;
}
);
leftKerningGroup = H;
note = P.script;
rightKerningGroup = P;
unicode = 0050;
},
{
color = 4;
glyphname = Q;
lastChange = "2021-05-06 03:41:56 +0000";
layers = (
{
background = {
paths = (
{
closed = 1;
nodes = (
"598 -277 OFFCURVE",
"612 -280 OFFCURVE",
"625 -280 CURVE SMOOTH",
"640 -280 OFFCURVE",
"654 -277 OFFCURVE",
"667 -272 CURVE SMOOTH",
"696 -260 OFFCURVE",
"719 -232 OFFCURVE",
"719 -202 CURVE SMOOTH",
"719 -193 OFFCURVE",
"716 -183 OFFCURVE",
"711 -173 CURVE",
"701 -183 OFFCURVE",
"687 -189 OFFCURVE",
"676 -189 CURVE SMOOTH",
"644 -189 OFFCURVE",
"627 -168 OFFCURVE",
"616 -141 CURVE SMOOTH",
"600 -99 OFFCURVE",
"598 -54 OFFCURVE",
"584 -7 CURVE SMOOTH",
"580 7 OFFCURVE",
"574 20 OFFCURVE",
"568 33 CURVE",
"669 93 OFFCURVE",
"748 190 OFFCURVE",
"798 303 CURVE SMOOTH",
"825 364 OFFCURVE",
"839 425 OFFCURVE",
"839 481 CURVE SMOOTH",
"839 609 OFFCURVE",
"764 708 OFFCURVE",
"585 708 CURVE SMOOTH",
"319 708 OFFCURVE",
"83 455 OFFCURVE",
"83 187 CURVE SMOOTH",
"83 27 OFFCURVE",
"183 -32 OFFCURVE",
"331 -32 CURVE SMOOTH",
"388 -32 OFFCURVE",
"442 -22 OFFCURVE",
"492 -3 CURVE",
"500 -50 OFFCURVE",
"502 -96 OFFCURVE",
"509 -145 CURVE SMOOTH",
"517 -195 OFFCURVE",
"532 -255 OFFCURVE",
"586 -273 CURVE SMOOTH"
);
},
{
closed = 1;
nodes = (
"394 13 OFFCURVE",
"368 10 OFFCURVE",
"346 10 CURVE SMOOTH",
"242 10 OFFCURVE",
"203 86 OFFCURVE",
"203 179 CURVE SMOOTH",
"203 252 OFFCURVE",
"226 334 OFFCURVE",
"261 400 CURVE SMOOTH",
"299 473 OFFCURVE",
"358 540 OFFCURVE",
"424 591 CURVE SMOOTH",
"476 631 OFFCURVE",
"551 662 OFFCURVE",
"616 662 CURVE SMOOTH",
"681 662 OFFCURVE",
"736 632 OFFCURVE",
"751 551 CURVE SMOOTH",
"754 535 OFFCURVE",
"756 517 OFFCURVE",
"756 499 CURVE SMOOTH",
"756 441 OFFCURVE",
"741 374 OFFCURVE",
"714 309 CURVE SMOOTH",
"678 220 OFFCURVE",
"613 136 OFFCURVE",
"538 80 CURVE",
"513 108 OFFCURVE",
"480 127 OFFCURVE",
"440 127 CURVE SMOOTH",
"428 127 OFFCURVE",
"415 126 OFFCURVE",
"402 122 CURVE SMOOTH",
"390 119 OFFCURVE",
"380 108 OFFCURVE",
"380 101 CURVE SMOOTH",
"380 98 OFFCURVE",
"383 95 OFFCURVE",
"389 95 CURVE SMOOTH",
"393 95 OFFCURVE",
"397 96 OFFCURVE",
"402 97 CURVE SMOOTH",
"406 98 OFFCURVE",
"411 99 OFFCURVE",
"416 99 CURVE SMOOTH",
"440 99 OFFCURVE",
"467 81 OFFCURVE",
"481 44 CURVE",
"461 34 OFFCURVE",
"442 26 OFFCURVE",
"422 21 CURVE SMOOTH"
);
}
);
};
layerId = "FDC6D5C2-1E82-4E29-8E0D-3EE46E074C54";
paths = (
{
closed = 1;
nodes = (
"598 -277 OFFCURVE",
"612 -280 OFFCURVE",
"625 -280 CURVE SMOOTH",
"640 -280 OFFCURVE",
"654 -277 OFFCURVE",
"667 -272 CURVE SMOOTH",
"696 -260 OFFCURVE",
"719 -232 OFFCURVE",
"719 -202 CURVE SMOOTH",
"719 -193 OFFCURVE",
"716 -183 OFFCURVE",
"711 -173 CURVE",
"701 -183 OFFCURVE",
"687 -189 OFFCURVE",
"676 -189 CURVE SMOOTH",
"644 -189 OFFCURVE",
"627 -168 OFFCURVE",
"616 -141 CURVE SMOOTH",
"600 -99 OFFCURVE",
"598 -54 OFFCURVE",
"584 -7 CURVE SMOOTH",
"580 7 OFFCURVE",
"574 20 OFFCURVE",
"568 33 CURVE",
"669 93 OFFCURVE",
"748 190 OFFCURVE",
"798 303 CURVE SMOOTH",
"825 364 OFFCURVE",
"839 425 OFFCURVE",
"839 481 CURVE SMOOTH",
"839 609 OFFCURVE",
"764 708 OFFCURVE",
"585 708 CURVE SMOOTH",
"319 708 OFFCURVE",
"83 455 OFFCURVE",
"83 187 CURVE SMOOTH",
"83 27 OFFCURVE",
"183 -32 OFFCURVE",
"331 -32 CURVE SMOOTH",
"388 -32 OFFCURVE",
"442 -22 OFFCURVE",
"492 -3 CURVE",
"500 -50 OFFCURVE",
"502 -96 OFFCURVE",
"509 -145 CURVE SMOOTH",
"517 -195 OFFCURVE",
"532 -255 OFFCURVE",
"586 -273 CURVE SMOOTH"
);
},
{
closed = 1;
nodes = (
"394 13 OFFCURVE",
"368 10 OFFCURVE",
"346 10 CURVE SMOOTH",
"242 10 OFFCURVE",
"203 86 OFFCURVE",
"203 179 CURVE SMOOTH",
"203 252 OFFCURVE",
"226 334 OFFCURVE",
"261 400 CURVE SMOOTH",
"299 473 OFFCURVE",
"358 540 OFFCURVE",
"424 591 CURVE SMOOTH",
"476 631 OFFCURVE",
"551 662 OFFCURVE",
"616 662 CURVE SMOOTH",
"681 662 OFFCURVE",
"736 632 OFFCURVE",
"751 551 CURVE SMOOTH",
"754 535 OFFCURVE",
"756 517 OFFCURVE",
"756 499 CURVE SMOOTH",
"756 441 OFFCURVE",
"741 374 OFFCURVE",
"714 309 CURVE SMOOTH",
"678 220 OFFCURVE",
"613 136 OFFCURVE",
"538 80 CURVE",
"513 108 OFFCURVE",
"480 127 OFFCURVE",
"440 127 CURVE SMOOTH",
"428 127 OFFCURVE",
"415 126 OFFCURVE",
"402 122 CURVE SMOOTH",
"390 119 OFFCURVE",
"380 108 OFFCURVE",
"380 101 CURVE SMOOTH",
"380 98 OFFCURVE",
"383 95 OFFCURVE",
"389 95 CURVE SMOOTH",
"393 95 OFFCURVE",
"397 96 OFFCURVE",
"402 97 CURVE SMOOTH",
"406 98 OFFCURVE",
"411 99 OFFCURVE",
"416 99 CURVE SMOOTH",
"440 99 OFFCURVE",
"467 81 OFFCURVE",
"481 44 CURVE",
"461 34 OFFCURVE",
"442 26 OFFCURVE",
"422 21 CURVE SMOOTH"
);
}
);
width = 763;
}
);
leftKerningGroup = O;
note = Q.script;
rightKerningGroup = O;
unicode = 0051;
},
{
color = 4;
glyphname = R;
lastChange = "2021-05-06 03:42:14 +0000";
layers = (
{
anchors = (
{
name = bottom;
position = "{266, 0}";
},
{
name = top;
position = "{416, 706}";
}
);
background = {
anchors = (
{
name = bottom;
position = "{266, 0}";
},
{
name = top;
position = "{416, 706}";
}
);
paths = (
{
closed = 1;
nodes = (
"147 0 LINE",
"144 5 OFFCURVE",
"143 13 OFFCURVE",
"143 22 CURVE SMOOTH",
"143 96 OFFCURVE",
"215 277 OFFCURVE",
"237 332 CURVE SMOOTH",
"279 434 OFFCURVE",
"350 587 OFFCURVE",
"410 668 CURVE",
"428 667 OFFCURVE",
"447 666 OFFCURVE",
"463 662 CURVE SMOOTH",
"523 648 OFFCURVE",
"549 603 OFFCURVE",
"549 554 CURVE SMOOTH",
"549 462 OFFCURVE",
"479 408 OFFCURVE",
"398 383 CURVE SMOOTH",
"370 375 OFFCURVE",
"339 369 OFFCURVE",
"307 365 CURVE SMOOTH",
"296 364 OFFCURVE",
"294 357 OFFCURVE",
"294 349 CURVE SMOOTH",
"294 344 OFFCURVE",
"295 340 OFFCURVE",
"295 336 CURVE SMOOTH",
"307 263 OFFCURVE",
"392 2 OFFCURVE",
"474 2 CURVE",
"474 2 OFFCURVE",
"515 -1 OFFCURVE",
"551 -1 CURVE SMOOTH",
"570 -1 OFFCURVE",
"587 0 OFFCURVE",
"597 2 CURVE",
"532 71 OFFCURVE",
"434 183 OFFCURVE",
"387 346 CURVE",
"419 352 LINE SMOOTH",
"527 372 OFFCURVE",
"645 438 OFFCURVE",
"645 562 CURVE SMOOTH",
"645 602 OFFCURVE",
"629 641 OFFCURVE",
"590 666 CURVE SMOOTH",
"560 686 OFFCURVE",
"516 698 OFFCURVE",
"460 698 CURVE SMOOTH",
"264 698 LINE SMOOTH",
"248 698 OFFCURVE",
"233 698 OFFCURVE",
"217 698 CURVE SMOOTH",
"156 698 OFFCURVE",
"100 694 OFFCURVE",
"56 649 CURVE SMOOTH",
"37 630 OFFCURVE",
"18 604 OFFCURVE",
"6 569 CURVE SMOOTH",
"5 566 OFFCURVE",
"4 562 OFFCURVE",
"4 560 CURVE SMOOTH",
"4 551 OFFCURVE",
"9 546 OFFCURVE",
"13 546 CURVE SMOOTH",
"15 546 OFFCURVE",
"16 547 OFFCURVE",
"17 549 CURVE SMOOTH",
"37 612 OFFCURVE",
"186 659 OFFCURVE",
"291 661 CURVE",
"282 651 OFFCURVE",
"275 638 OFFCURVE",
"266 622 CURVE SMOOTH",
"220 539 OFFCURVE",
"189 461 OFFCURVE",
"152 373 CURVE SMOOTH",
"96 240 OFFCURVE",
"41 100 OFFCURVE",
"18 0 CURVE"
);
}
);
};
layerId = "FDC6D5C2-1E82-4E29-8E0D-3EE46E074C54";
paths = (
{
closed = 1;
nodes = (
"147 0 LINE",
"144 5 OFFCURVE",
"143 13 OFFCURVE",
"143 22 CURVE SMOOTH",
"143 96 OFFCURVE",
"215 277 OFFCURVE",
"237 332 CURVE SMOOTH",
"279 434 OFFCURVE",
"350 587 OFFCURVE",
"410 668 CURVE",
"428 667 OFFCURVE",
"447 666 OFFCURVE",
"463 662 CURVE SMOOTH",
"523 648 OFFCURVE",
"549 603 OFFCURVE",
"549 554 CURVE SMOOTH",
"549 462 OFFCURVE",
"479 408 OFFCURVE",
"398 383 CURVE SMOOTH",
"370 375 OFFCURVE",
"339 369 OFFCURVE",
"307 365 CURVE SMOOTH",
"296 364 OFFCURVE",
"294 357 OFFCURVE",
"294 349 CURVE SMOOTH",
"294 344 OFFCURVE",
"295 340 OFFCURVE",
"295 336 CURVE SMOOTH",
"307 263 OFFCURVE",
"392 2 OFFCURVE",
"474 2 CURVE",
"474 2 OFFCURVE",
"515 -1 OFFCURVE",
"551 -1 CURVE SMOOTH",
"570 -1 OFFCURVE",
"587 0 OFFCURVE",
"597 2 CURVE",
"532 71 OFFCURVE",
"434 183 OFFCURVE",
"387 346 CURVE",
"419 352 LINE SMOOTH",
"527 372 OFFCURVE",
"645 438 OFFCURVE",
"645 562 CURVE SMOOTH",
"645 602 OFFCURVE",
"629 641 OFFCURVE",
"590 666 CURVE SMOOTH",
"560 686 OFFCURVE",
"516 698 OFFCURVE",
"460 698 CURVE SMOOTH",
"264 698 LINE SMOOTH",
"248 698 OFFCURVE",
"233 698 OFFCURVE",
"217 698 CURVE SMOOTH",
"156 698 OFFCURVE",
"100 694 OFFCURVE",
"56 649 CURVE SMOOTH",
"37 630 OFFCURVE",
"18 604 OFFCURVE",
"6 569 CURVE SMOOTH",
"5 566 OFFCURVE",
"4 562 OFFCURVE",
"4 560 CURVE SMOOTH",
"4 551 OFFCURVE",
"9 546 OFFCURVE",
"13 546 CURVE SMOOTH",
"15 546 OFFCURVE",
"16 547 OFFCURVE",
"17 549 CURVE SMOOTH",
"37 612 OFFCURVE",
"186 659 OFFCURVE",
"291 661 CURVE",
"282 651 OFFCURVE",
"275 638 OFFCURVE",
"266 622 CURVE SMOOTH",
"220 539 OFFCURVE",
"189 461 OFFCURVE",
"152 373 CURVE SMOOTH",
"96 240 OFFCURVE",
"41 100 OFFCURVE",
"18 0 CURVE"
);
}
);
width = 610;
}
);
leftKerningGroup = H;
note = R.script;
rightKerningGroup = R;
unicode = 0052;
},
{
color = 4;
glyphname = S;
lastChange = "2021-05-05 04:49:43 +0000";
layers = (
{
anchors = (
{
name = bottom;
position = "{247, -8}";
},
{
name = top;
position = "{448, 716}";
}
);
background = {
anchors = (
{
name = bottom;
position = "{247, -8}";
},
{
name = top;
position = "{448, 716}";
}
);
paths = (
{
closed = 1;
nodes = (
"408 -20 OFFCURVE",
"533 83 OFFCURVE",
"533 205 CURVE SMOOTH",
"533 258 OFFCURVE",
"510 314 OFFCURVE",
"456 368 CURVE SMOOTH",
"419 405 OFFCURVE",
"355 457 OFFCURVE",
"324 504 CURVE SMOOTH",
"311 524 OFFCURVE",
"305 544 OFFCURVE",
"305 564 CURVE SMOOTH",
"305 625 OFFCURVE",
"360 681 OFFCURVE",
"439 681 CURVE SMOOTH",
"483 681 OFFCURVE",
"521 659 OFFCURVE",
"521 623 CURVE SMOOTH",
"521 615 OFFCURVE",
"519 607 OFFCURVE",
"516 599 CURVE SMOOTH",
"508 577 OFFCURVE",
"478 557 OFFCURVE",
"454 557 CURVE",
"453 551 OFFCURVE",
"452 546 OFFCURVE",
"452 542 CURVE SMOOTH",
"452 510 OFFCURVE",
"477 498 OFFCURVE",
"507 498 CURVE SMOOTH",
"513 498 OFFCURVE",
"518 498 OFFCURVE",
"524 499 CURVE SMOOTH",
"572 506 OFFCURVE",
"611 558 OFFCURVE",
"611 610 CURVE SMOOTH",
"611 663 OFFCURVE",
"569 716 OFFCURVE",
"448 716 CURVE SMOOTH",
"383 716 OFFCURVE",
"320 702 OFFCURVE",
"274 662 CURVE SMOOTH",
"232 627 OFFCURVE",
"210 575 OFFCURVE",
"210 523 CURVE SMOOTH",
"210 440 OFFCURVE",
"263 390 OFFCURVE",
"317 333 CURVE SMOOTH",
"343 305 OFFCURVE",
"377 274 OFFCURVE",
"395 233 CURVE SMOOTH",
"405 209 OFFCURVE",
"410 187 OFFCURVE",
"410 165 CURVE SMOOTH",
"410 80 OFFCURVE",
"336 17 OFFCURVE",
"259 17 CURVE SMOOTH",
"201 17 OFFCURVE",
"163 49 OFFCURVE",
"163 94 CURVE SMOOTH",
"163 109 OFFCURVE",
"168 127 OFFCURVE",
"178 144 CURVE SMOOTH",
"181 150 OFFCURVE",
"193 163 OFFCURVE",
"198 167 CURVE",
"190 183 OFFCURVE",
"167 197 OFFCURVE",
"141 197 CURVE SMOOTH",
"135 197 OFFCURVE",
"129 196 OFFCURVE",
"123 195 CURVE SMOOTH",
"74 183 OFFCURVE",
"52 144 OFFCURVE",
"52 104 CURVE SMOOTH",
"52 72 OFFCURVE",
"66 39 OFFCURVE",
"93 19 CURVE SMOOTH",
"131 -9 OFFCURVE",
"191 -20 OFFCURVE",
"258 -20 CURVE SMOOTH"
);
}
);
};
layerId = "FDC6D5C2-1E82-4E29-8E0D-3EE46E074C54";
paths = (
{
closed = 1;
nodes = (
"408 -20 OFFCURVE",
"533 83 OFFCURVE",
"533 205 CURVE SMOOTH",
"533 258 OFFCURVE",
"510 314 OFFCURVE",
"456 368 CURVE SMOOTH",
"419 405 OFFCURVE",
"355 457 OFFCURVE",
"324 504 CURVE SMOOTH",
"311 524 OFFCURVE",
"305 544 OFFCURVE",
"305 564 CURVE SMOOTH",
"305 625 OFFCURVE",
"360 681 OFFCURVE",
"439 681 CURVE SMOOTH",
"483 681 OFFCURVE",
"521 659 OFFCURVE",
"521 623 CURVE SMOOTH",
"521 615 OFFCURVE",
"519 607 OFFCURVE",
"516 599 CURVE SMOOTH",
"508 577 OFFCURVE",
"478 557 OFFCURVE",
"454 557 CURVE",
"453 551 OFFCURVE",
"452 546 OFFCURVE",
"452 542 CURVE SMOOTH",
"452 510 OFFCURVE",
"477 498 OFFCURVE",
"507 498 CURVE SMOOTH",
"513 498 OFFCURVE",
"518 498 OFFCURVE",
"524 499 CURVE SMOOTH",
"572 506 OFFCURVE",
"611 558 OFFCURVE",
"611 610 CURVE SMOOTH",
"611 663 OFFCURVE",
"569 716 OFFCURVE",
"448 716 CURVE SMOOTH",
"383 716 OFFCURVE",
"320 702 OFFCURVE",
"274 662 CURVE SMOOTH",
"232 627 OFFCURVE",
"210 575 OFFCURVE",
"210 523 CURVE SMOOTH",
"210 440 OFFCURVE",
"263 390 OFFCURVE",
"317 333 CURVE SMOOTH",
"343 305 OFFCURVE",
"377 274 OFFCURVE",
"395 233 CURVE SMOOTH",
"405 209 OFFCURVE",
"410 187 OFFCURVE",
"410 165 CURVE SMOOTH",
"410 80 OFFCURVE",
"336 17 OFFCURVE",
"259 17 CURVE SMOOTH",
"201 17 OFFCURVE",
"163 49 OFFCURVE",
"163 94 CURVE SMOOTH",
"163 109 OFFCURVE",
"168 127 OFFCURVE",
"178 144 CURVE SMOOTH",
"181 150 OFFCURVE",
"193 163 OFFCURVE",
"198 167 CURVE",
"190 183 OFFCURVE",
"167 197 OFFCURVE",
"141 197 CURVE SMOOTH",
"135 197 OFFCURVE",
"129 196 OFFCURVE",
"123 195 CURVE SMOOTH",
"74 183 OFFCURVE",
"52 144 OFFCURVE",
"52 104 CURVE SMOOTH",
"52 72 OFFCURVE",
"66 39 OFFCURVE",
"93 19 CURVE SMOOTH",
"131 -9 OFFCURVE",
"191 -20 OFFCURVE",
"258 -20 CURVE SMOOTH"
);
}
);
width = 523;
}
);
leftKerningGroup = S;
note = S.script;
rightKerningGroup = S;
unicode = 0053;
},
{
color = 4;
glyphname = T;
lastChange = "2021-05-06 03:18:29 +0000";
layers = (
{
anchors = (
{
name = bottom;
position = "{207, 0}";
},
{
name = center;
position = "{241, 353}";
},
{
name = top;
position = "{432, 706}";
}
);
background = {
anchors = (
{
name = bottom;
position = "{207, 0}";
},
{
name = center;
position = "{241, 353}";
},
{
name = top;
position = "{432, 706}";
}
);
paths = (
{
closed = 1;
nodes = (
"237 -22 OFFCURVE",
"274 -5 OFFCURVE",
"297 14 CURVE SMOOTH",
"322 34 OFFCURVE",
"353 67 OFFCURVE",
"365 85 CURVE SMOOTH",
"380 106 OFFCURVE",
"385 122 OFFCURVE",
"385 132 CURVE SMOOTH",
"385 138 OFFCURVE",
"383 142 OFFCURVE",
"379 142 CURVE SMOOTH",
"376 142 OFFCURVE",
"373 140 OFFCURVE",
"370 136 CURVE SMOOTH",
"335 89 OFFCURVE",
"308 71 OFFCURVE",
"290 71 CURVE SMOOTH",
"269 71 OFFCURVE",
"259 92 OFFCURVE",
"259 117 CURVE SMOOTH",
"259 121 OFFCURVE",
"259 126 OFFCURVE",
"260 130 CURVE SMOOTH",
"271 217 OFFCURVE",
"340 390 OFFCURVE",
"390 497 CURVE SMOOTH",
"412 543 OFFCURVE",
"447 614 OFFCURVE",
"460 633 CURVE",
"476 634 OFFCURVE",
"544 627 OFFCURVE",
"604 627 CURVE SMOOTH",
"628 627 OFFCURVE",
"650 628 OFFCURVE",
"668 631 CURVE SMOOTH",
"722 640 OFFCURVE",
"757 671 OFFCURVE",
"757 699 CURVE SMOOTH",
"757 704 OFFCURVE",
"756 709 OFFCURVE",
"754 713 CURVE",
"733 691 OFFCURVE",
"682 685 OFFCURVE",
"624 685 CURVE SMOOTH",
"558 685 OFFCURVE",
"483 693 OFFCURVE",
"436 696 CURVE SMOOTH",
"387 699 OFFCURVE",
"321 706 OFFCURVE",
"254 706 CURVE SMOOTH",
"167 706 OFFCURVE",
"81 693 OFFCURVE",
"34 638 CURVE SMOOTH",
"15 616 OFFCURVE",
"0 581 OFFCURVE",
"0 544 CURVE SMOOTH",
"0 522 OFFCURVE",
"5 500 OFFCURVE",
"19 479 CURVE SMOOTH",
"21 476 OFFCURVE",
"25 474 OFFCURVE",
"28 474 CURVE SMOOTH",
"33 474 OFFCURVE",
"38 478 OFFCURVE",
"38 484 CURVE SMOOTH",
"38 486 OFFCURVE",
"38 487 OFFCURVE",
"37 489 CURVE SMOOTH",
"33 501 OFFCURVE",
"31 513 OFFCURVE",
"31 526 CURVE SMOOTH",
"31 549 OFFCURVE",
"39 572 OFFCURVE",
"61 592 CURVE SMOOTH",
"106 633 OFFCURVE",
"184 640 OFFCURVE",
"257 640 CURVE SMOOTH",
"300 640 OFFCURVE",
"341 637 OFFCURVE",
"372 638 CURVE",
"308 519 OFFCURVE",
"188 254 OFFCURVE",
"161 126 CURVE SMOOTH",
"157 108 OFFCURVE",
"152 80 OFFCURVE",
"152 54 CURVE SMOOTH",
"152 15 OFFCURVE",
"163 -22 OFFCURVE",
"207 -22 CURVE SMOOTH"
);
}
);
};
layerId = "FDC6D5C2-1E82-4E29-8E0D-3EE46E074C54";
paths = (
{
closed = 1;
nodes = (
"237 -22 OFFCURVE",
"274 -5 OFFCURVE",
"297 14 CURVE SMOOTH",
"322 34 OFFCURVE",
"353 67 OFFCURVE",
"365 85 CURVE SMOOTH",
"380 106 OFFCURVE",
"385 122 OFFCURVE",
"385 132 CURVE SMOOTH",
"385 138 OFFCURVE",
"383 142 OFFCURVE",
"379 142 CURVE SMOOTH",
"376 142 OFFCURVE",
"373 140 OFFCURVE",
"370 136 CURVE SMOOTH",
"335 89 OFFCURVE",
"308 71 OFFCURVE",
"290 71 CURVE SMOOTH",
"269 71 OFFCURVE",
"259 92 OFFCURVE",
"259 117 CURVE SMOOTH",
"259 121 OFFCURVE",
"259 126 OFFCURVE",
"260 130 CURVE SMOOTH",
"271 217 OFFCURVE",
"340 390 OFFCURVE",
"390 497 CURVE SMOOTH",
"412 543 OFFCURVE",
"447 614 OFFCURVE",
"460 633 CURVE",
"476 634 OFFCURVE",
"544 627 OFFCURVE",
"604 627 CURVE SMOOTH",
"628 627 OFFCURVE",
"650 628 OFFCURVE",
"668 631 CURVE SMOOTH",
"722 640 OFFCURVE",
"757 671 OFFCURVE",
"757 699 CURVE SMOOTH",
"757 704 OFFCURVE",
"756 709 OFFCURVE",
"754 713 CURVE",
"733 691 OFFCURVE",
"682 685 OFFCURVE",
"624 685 CURVE SMOOTH",
"558 685 OFFCURVE",
"483 693 OFFCURVE",
"436 696 CURVE SMOOTH",
"387 699 OFFCURVE",
"321 706 OFFCURVE",
"254 706 CURVE SMOOTH",
"167 706 OFFCURVE",
"81 693 OFFCURVE",
"34 638 CURVE SMOOTH",
"15 616 OFFCURVE",
"0 581 OFFCURVE",
"0 544 CURVE SMOOTH",
"0 522 OFFCURVE",
"5 500 OFFCURVE",
"19 479 CURVE SMOOTH",
"21 476 OFFCURVE",
"25 474 OFFCURVE",
"28 474 CURVE SMOOTH",
"33 474 OFFCURVE",
"38 478 OFFCURVE",
"38 484 CURVE SMOOTH",
"38 486 OFFCURVE",
"38 487 OFFCURVE",
"37 489 CURVE SMOOTH",
"33 501 OFFCURVE",
"31 513 OFFCURVE",
"31 526 CURVE SMOOTH",
"31 549 OFFCURVE",
"39 572 OFFCURVE",
"61 592 CURVE SMOOTH",
"106 633 OFFCURVE",
"184 640 OFFCURVE",
"257 640 CURVE SMOOTH",
"300 640 OFFCURVE",
"341 637 OFFCURVE",
"372 638 CURVE",
"308 519 OFFCURVE",
"188 254 OFFCURVE",
"161 126 CURVE SMOOTH",
"157 108 OFFCURVE",
"152 80 OFFCURVE",
"152 54 CURVE SMOOTH",
"152 15 OFFCURVE",
"163 -22 OFFCURVE",
"207 -22 CURVE SMOOTH"
);
}
);
width = 399;
}
);
leftKerningGroup = T;
note = T.script;
rightKerningGroup = T;
unicode = 0054;
},
{
color = 4;
glyphname = U;
lastChange = "2021-05-06 01:50:37 +0000";
layers = (
{
anchors = (
{
name = bottom;
position = "{284, 0}";
},
{
name = ogonek;
position = "{596, 15}";
},
{
name = top;
position = "{614, 706}";
},
{
name = topright;
position = "{808, 678}";
}
);
background = {
anchors = (
{
name = bottom;
position = "{284, 0}";
},
{
name = ogonek;
position = "{596, 15}";
},
{
name = top;
position = "{614, 706}";
},
{
name = topright;
position = "{808, 678}";
}
);
paths = (
{
closed = 1;
nodes = (
"614 -8 OFFCURVE",
"673 13 OFFCURVE",
"698 40 CURVE",
"700 43 OFFCURVE",
"698 49 OFFCURVE",
"696 49 CURVE SMOOTH",
"696 49 OFFCURVE",
"695 49 OFFCURVE",
"695 49 CURVE SMOOTH",
"679 40 OFFCURVE",
"665 36 OFFCURVE",
"655 36 CURVE SMOOTH",
"628 36 OFFCURVE",
"620 62 OFFCURVE",
"620 91 CURVE SMOOTH",
"620 103 OFFCURVE",
"621 114 OFFCURVE",
"623 125 CURVE SMOOTH",
"643 230 OFFCURVE",
"702 374 OFFCURVE",
"755 482 CURVE SMOOTH",
"791 554 OFFCURVE",
"849 665 OFFCURVE",
"892 698 CURVE",
"830 698 LINE SMOOTH",
"783 698 OFFCURVE",
"749 662 OFFCURVE",
"703 577 CURVE SMOOTH",
"633 446 OFFCURVE",
"382 59 OFFCURVE",
"258 56 CURVE SMOOTH",
"219 55 OFFCURVE",
"205 82 OFFCURVE",
"205 119 CURVE SMOOTH",
"205 185 OFFCURVE",
"247 282 OFFCURVE",
"260 312 CURVE SMOOTH",
"295 398 OFFCURVE",
"410 645 OFFCURVE",
"480 698 CURVE",
"300 698 LINE SMOOTH",
"284 698 OFFCURVE",
"269 698 OFFCURVE",
"253 698 CURVE SMOOTH",
"192 698 OFFCURVE",
"136 694 OFFCURVE",
"92 649 CURVE SMOOTH",
"73 630 OFFCURVE",
"55 604 OFFCURVE",
"42 569 CURVE SMOOTH",
"41 566 OFFCURVE",
"40 562 OFFCURVE",
"40 560 CURVE SMOOTH",
"40 551 OFFCURVE",
"45 546 OFFCURVE",
"49 546 CURVE SMOOTH",
"51 546 OFFCURVE",
"52 547 OFFCURVE",
"53 549 CURVE SMOOTH",
"73 612 OFFCURVE",
"222 659 OFFCURVE",
"327 661 CURVE",
"321 654 OFFCURVE",
"311 635 OFFCURVE",
"308 630 CURVE SMOOTH",
"248 522 OFFCURVE",
"178 377 OFFCURVE",
"140 259 CURVE SMOOTH",
"119 194 OFFCURVE",
"110 143 OFFCURVE",
"110 104 CURVE SMOOTH",
"110 23 OFFCURVE",
"152 -7 OFFCURVE",
"224 -7 CURVE SMOOTH",
"277 -7 OFFCURVE",
"345 26 OFFCURVE",
"406 93 CURVE SMOOTH",
"457 148 OFFCURVE",
"552 287 OFFCURVE",
"596 353 CURVE",
"569 294 OFFCURVE",
"522 178 OFFCURVE",
"513 135 CURVE SMOOTH",
"508 111 OFFCURVE",
"504 87 OFFCURVE",
"504 66 CURVE SMOOTH",
"504 24 OFFCURVE",
"519 -8 OFFCURVE",
"568 -8 CURVE SMOOTH"
);
}
);
};
layerId = "FDC6D5C2-1E82-4E29-8E0D-3EE46E074C54";
paths = (
{
closed = 1;
nodes = (
"614 -8 OFFCURVE",
"673 13 OFFCURVE",
"698 40 CURVE",
"700 43 OFFCURVE",
"698 49 OFFCURVE",
"696 49 CURVE SMOOTH",
"696 49 OFFCURVE",
"695 49 OFFCURVE",
"695 49 CURVE SMOOTH",
"679 40 OFFCURVE",
"665 36 OFFCURVE",
"655 36 CURVE SMOOTH",
"628 36 OFFCURVE",
"620 62 OFFCURVE",
"620 91 CURVE SMOOTH",
"620 103 OFFCURVE",
"621 114 OFFCURVE",
"623 125 CURVE SMOOTH",
"643 230 OFFCURVE",
"702 374 OFFCURVE",
"755 482 CURVE SMOOTH",
"791 554 OFFCURVE",
"849 665 OFFCURVE",
"892 698 CURVE",
"830 698 LINE SMOOTH",
"783 698 OFFCURVE",
"749 662 OFFCURVE",
"703 577 CURVE SMOOTH",
"633 446 OFFCURVE",
"382 59 OFFCURVE",
"258 56 CURVE SMOOTH",
"219 55 OFFCURVE",
"205 82 OFFCURVE",
"205 119 CURVE SMOOTH",
"205 185 OFFCURVE",
"247 282 OFFCURVE",
"260 312 CURVE SMOOTH",
"295 398 OFFCURVE",
"410 645 OFFCURVE",
"480 698 CURVE",
"300 698 LINE SMOOTH",
"284 698 OFFCURVE",
"269 698 OFFCURVE",
"253 698 CURVE SMOOTH",
"192 698 OFFCURVE",
"136 694 OFFCURVE",
"92 649 CURVE SMOOTH",
"73 630 OFFCURVE",
"55 604 OFFCURVE",
"42 569 CURVE SMOOTH",
"41 566 OFFCURVE",
"40 562 OFFCURVE",
"40 560 CURVE SMOOTH",
"40 551 OFFCURVE",
"45 546 OFFCURVE",
"49 546 CURVE SMOOTH",
"51 546 OFFCURVE",
"52 547 OFFCURVE",
"53 549 CURVE SMOOTH",
"73 612 OFFCURVE",
"222 659 OFFCURVE",
"327 661 CURVE",
"321 654 OFFCURVE",
"311 635 OFFCURVE",
"308 630 CURVE SMOOTH",
"248 522 OFFCURVE",
"178 377 OFFCURVE",
"140 259 CURVE SMOOTH",
"119 194 OFFCURVE",
"110 143 OFFCURVE",
"110 104 CURVE SMOOTH",
"110 23 OFFCURVE",
"152 -7 OFFCURVE",
"224 -7 CURVE SMOOTH",
"277 -7 OFFCURVE",
"345 26 OFFCURVE",
"406 93 CURVE SMOOTH",
"457 148 OFFCURVE",
"552 287 OFFCURVE",
"596 353 CURVE",
"569 294 OFFCURVE",
"522 178 OFFCURVE",
"513 135 CURVE SMOOTH",
"508 111 OFFCURVE",
"504 87 OFFCURVE",
"504 66 CURVE SMOOTH",
"504 24 OFFCURVE",
"519 -8 OFFCURVE",
"568 -8 CURVE SMOOTH"
);
}
);
width = 710;
}
);
leftKerningGroup = U;
note = U.script;
rightKerningGroup = H;
unicode = 0055;
},
{
color = 4;
glyphname = V;
lastChange = "2021-05-06 03:23:42 +0000";
layers = (
{
background = {
paths = (
{
closed = 1;
nodes = (
"182 0 LINE SMOOTH",
"185 0 OFFCURVE",
"188 0 OFFCURVE",
"191 1 CURVE SMOOTH",
"231 9 OFFCURVE",
"255 56 OFFCURVE",
"281 97 CURVE SMOOTH",
"398 278 OFFCURVE",
"620 617 OFFCURVE",
"670 698 CURVE",
"580 698 LINE",
"535 595 OFFCURVE",
"351 268 OFFCURVE",
"239 111 CURVE",
"243 157 OFFCURVE",
"251 286 OFFCURVE",
"251 409 CURVE SMOOTH",
"251 486 OFFCURVE",
"248 561 OFFCURVE",
"239 612 CURVE SMOOTH",
"229 663 OFFCURVE",
"210 711 OFFCURVE",
"170 711 CURVE SMOOTH",
"157 711 OFFCURVE",
"141 706 OFFCURVE",
"123 693 CURVE SMOOTH",
"87 668 OFFCURVE",
"50 624 OFFCURVE",
"40 591 CURVE SMOOTH",
"39 588 OFFCURVE",
"43 582 OFFCURVE",
"45 585 CURVE SMOOTH",
"62 611 OFFCURVE",
"76 620 OFFCURVE",
"88 620 CURVE SMOOTH",
"111 620 OFFCURVE",
"126 585 OFFCURVE",
"132 555 CURVE SMOOTH",
"144 497 OFFCURVE",
"148 426 OFFCURVE",
"148 356 CURVE SMOOTH",
"148 305 OFFCURVE",
"146 255 OFFCURVE",
"144 209 CURVE SMOOTH",
"140 135 OFFCURVE",
"142 46 OFFCURVE",
"118 0 CURVE"
);
}
);
};
layerId = "FDC6D5C2-1E82-4E29-8E0D-3EE46E074C54";
paths = (
{
closed = 1;
nodes = (
"182 0 LINE SMOOTH",
"185 0 OFFCURVE",
"188 0 OFFCURVE",
"191 1 CURVE SMOOTH",
"231 9 OFFCURVE",
"255 56 OFFCURVE",
"281 97 CURVE SMOOTH",
"398 278 OFFCURVE",
"620 617 OFFCURVE",
"670 698 CURVE",
"580 698 LINE",
"535 595 OFFCURVE",
"351 268 OFFCURVE",
"239 111 CURVE",
"243 157 OFFCURVE",
"251 286 OFFCURVE",
"251 409 CURVE SMOOTH",
"251 486 OFFCURVE",
"248 561 OFFCURVE",
"239 612 CURVE SMOOTH",
"229 663 OFFCURVE",
"210 711 OFFCURVE",
"170 711 CURVE SMOOTH",
"157 711 OFFCURVE",
"141 706 OFFCURVE",
"123 693 CURVE SMOOTH",
"87 668 OFFCURVE",
"50 624 OFFCURVE",
"40 591 CURVE SMOOTH",
"39 588 OFFCURVE",
"43 582 OFFCURVE",
"45 585 CURVE SMOOTH",
"62 611 OFFCURVE",
"76 620 OFFCURVE",
"88 620 CURVE SMOOTH",
"111 620 OFFCURVE",
"126 585 OFFCURVE",
"132 555 CURVE SMOOTH",
"144 497 OFFCURVE",
"148 426 OFFCURVE",
"148 356 CURVE SMOOTH",
"148 305 OFFCURVE",
"146 255 OFFCURVE",
"144 209 CURVE SMOOTH",
"140 135 OFFCURVE",
"142 46 OFFCURVE",
"118 0 CURVE"
);
}
);
width = 450;
}
);
leftKerningGroup = V;
note = V.script;
rightKerningGroup = V;
unicode = 0056;
},
{
color = 4;
glyphname = W;
lastChange = "2021-05-06 03:43:02 +0000";
layers = (
{
anchors = (
{
name = bottom;
position = "{452, 0}";
},
{
name = top;
position = "{707, 706}";
}
);
background = {
anchors = (
{
name = bottom;
position = "{452, 0}";
},
{
name = top;
position = "{707, 706}";
}
);
paths = (
{
closed = 1;
nodes = (
"241 -4 OFFCURVE",
"310 14 OFFCURVE",
"388 104 CURVE SMOOTH",
"450 176 OFFCURVE",
"503 271 OFFCURVE",
"543 350 CURVE",
"532 295 OFFCURVE",
"525 241 OFFCURVE",
"525 192 CURVE SMOOTH",
"525 94 OFFCURVE",
"552 19 OFFCURVE",
"621 8 CURVE SMOOTH",
"631 7 OFFCURVE",
"640 6 OFFCURVE",
"650 6 CURVE SMOOTH",
"745 6 OFFCURVE",
"838 75 OFFCURVE",
"892 134 CURVE SMOOTH",
"1011 265 OFFCURVE",
"1111 467 OFFCURVE",
"1103 607 CURVE SMOOTH",
"1099 682 OFFCURVE",
"1043 709 OFFCURVE",
"994 709 CURVE SMOOTH",
"955 709 OFFCURVE",
"920 692 OFFCURVE",
"916 668 CURVE",
"930 673 OFFCURVE",
"942 675 OFFCURVE",
"952 675 CURVE SMOOTH",
"992 675 OFFCURVE",
"1006 641 OFFCURVE",
"1006 596 CURVE SMOOTH",
"1006 526 OFFCURVE",
"973 427 OFFCURVE",
"954 376 CURVE SMOOTH",
"903 236 OFFCURVE",
"814 63 OFFCURVE",
"707 63 CURVE SMOOTH",
"651 63 OFFCURVE",
"621 117 OFFCURVE",
"621 205 CURVE SMOOTH",
"621 246 OFFCURVE",
"627 295 OFFCURVE",
"640 350 CURVE SMOOTH",
"669 473 OFFCURVE",
"724 575 OFFCURVE",
"768 635 CURVE",
"762 640 OFFCURVE",
"765 643 OFFCURVE",
"756 644 CURVE SMOOTH",
"751 645 OFFCURVE",
"746 645 OFFCURVE",
"741 645 CURVE SMOOTH",
"681 645 OFFCURVE",
"620 590 OFFCURVE",
"596 544 CURVE SMOOTH",
"556 468 OFFCURVE",
"527 368 OFFCURVE",
"473 287 CURVE SMOOTH",
"395 172 OFFCURVE",
"305 63 OFFCURVE",
"251 63 CURVE SMOOTH",
"204 63 OFFCURVE",
"188 101 OFFCURVE",
"188 151 CURVE SMOOTH",
"188 220 OFFCURVE",
"218 313 OFFCURVE",
"238 361 CURVE SMOOTH",
"296 506 OFFCURVE",
"380 623 OFFCURVE",
"435 656 CURVE SMOOTH",
"452 667 OFFCURVE",
"480 698 OFFCURVE",
"469 698 CURVE SMOOTH",
"311 698 LINE SMOOTH",
"297 698 OFFCURVE",
"281 698 OFFCURVE",
"264 698 CURVE SMOOTH",
"188 698 OFFCURVE",
"89 693 OFFCURVE",
"39 636 CURVE SMOOTH",
"23 618 OFFCURVE",
"10 593 OFFCURVE",
"10 566 CURVE SMOOTH",
"10 544 OFFCURVE",
"19 520 OFFCURVE",
"41 497 CURVE",
"40 561 OFFCURVE",
"77 609 OFFCURVE",
"148 625 CURVE SMOOTH",
"200 637 OFFCURVE",
"294 641 OFFCURVE",
"370 656 CURVE",
"354 650 OFFCURVE",
"339 642 OFFCURVE",
"325 629 CURVE SMOOTH",
"202 519 OFFCURVE",
"94 304 OFFCURVE",
"84 172 CURVE SMOOTH",
"83 162 OFFCURVE",
"83 152 OFFCURVE",
"83 143 CURVE SMOOTH",
"83 31 OFFCURVE",
"137 -3 OFFCURVE",
"191 -4 CURVE SMOOTH"
);
}
);
};
layerId = "FDC6D5C2-1E82-4E29-8E0D-3EE46E074C54";
paths = (
{
closed = 1;
nodes = (
"241 -4 OFFCURVE",
"310 14 OFFCURVE",
"388 104 CURVE SMOOTH",
"450 176 OFFCURVE",
"503 271 OFFCURVE",
"543 350 CURVE",
"532 295 OFFCURVE",
"525 241 OFFCURVE",
"525 192 CURVE SMOOTH",
"525 94 OFFCURVE",
"552 19 OFFCURVE",
"621 8 CURVE SMOOTH",
"631 7 OFFCURVE",
"640 6 OFFCURVE",
"650 6 CURVE SMOOTH",
"745 6 OFFCURVE",
"838 75 OFFCURVE",
"892 134 CURVE SMOOTH",
"1011 265 OFFCURVE",
"1111 467 OFFCURVE",
"1103 607 CURVE SMOOTH",
"1099 682 OFFCURVE",
"1043 709 OFFCURVE",
"994 709 CURVE SMOOTH",
"955 709 OFFCURVE",
"920 692 OFFCURVE",
"916 668 CURVE",
"930 673 OFFCURVE",
"942 675 OFFCURVE",
"952 675 CURVE SMOOTH",
"992 675 OFFCURVE",
"1006 641 OFFCURVE",
"1006 596 CURVE SMOOTH",
"1006 526 OFFCURVE",
"973 427 OFFCURVE",
"954 376 CURVE SMOOTH",
"903 236 OFFCURVE",
"814 63 OFFCURVE",
"707 63 CURVE SMOOTH",
"651 63 OFFCURVE",
"621 117 OFFCURVE",
"621 205 CURVE SMOOTH",
"621 246 OFFCURVE",
"627 295 OFFCURVE",
"640 350 CURVE SMOOTH",
"669 473 OFFCURVE",
"724 575 OFFCURVE",
"768 635 CURVE",
"762 640 OFFCURVE",
"765 643 OFFCURVE",
"756 644 CURVE SMOOTH",
"751 645 OFFCURVE",
"746 645 OFFCURVE",
"741 645 CURVE SMOOTH",
"681 645 OFFCURVE",
"620 590 OFFCURVE",
"596 544 CURVE SMOOTH",
"556 468 OFFCURVE",
"527 368 OFFCURVE",
"473 287 CURVE SMOOTH",
"395 172 OFFCURVE",
"305 63 OFFCURVE",
"251 63 CURVE SMOOTH",
"204 63 OFFCURVE",
"188 101 OFFCURVE",
"188 151 CURVE SMOOTH",
"188 220 OFFCURVE",
"218 313 OFFCURVE",
"238 361 CURVE SMOOTH",
"296 506 OFFCURVE",
"380 623 OFFCURVE",
"435 656 CURVE SMOOTH",
"452 667 OFFCURVE",
"480 698 OFFCURVE",
"469 698 CURVE SMOOTH",
"311 698 LINE SMOOTH",
"297 698 OFFCURVE",
"281 698 OFFCURVE",
"264 698 CURVE SMOOTH",
"188 698 OFFCURVE",
"89 693 OFFCURVE",
"39 636 CURVE SMOOTH",
"23 618 OFFCURVE",
"10 593 OFFCURVE",
"10 566 CURVE SMOOTH",
"10 544 OFFCURVE",
"19 520 OFFCURVE",
"41 497 CURVE",
"40 561 OFFCURVE",
"77 609 OFFCURVE",
"148 625 CURVE SMOOTH",
"200 637 OFFCURVE",
"294 641 OFFCURVE",
"370 656 CURVE",
"354 650 OFFCURVE",
"339 642 OFFCURVE",
"325 629 CURVE SMOOTH",
"202 519 OFFCURVE",
"94 304 OFFCURVE",
"84 172 CURVE SMOOTH",
"83 162 OFFCURVE",
"83 152 OFFCURVE",
"83 143 CURVE SMOOTH",
"83 31 OFFCURVE",
"137 -3 OFFCURVE",
"191 -4 CURVE SMOOTH"
);
}
);
width = 1000;
}
);
leftKerningGroup = W;
note = W.script;
rightKerningGroup = W;
unicode = 0057;
},
{
color = 4;
glyphname = X;
lastChange = "2021-05-06 03:43:57 +0000";
layers = (
{
background = {
paths = (
{
closed = 1;
nodes = (
"108 0 LINE",
"185 94 OFFCURVE",
"268 188 OFFCURVE",
"355 280 CURVE",
"430 0 LINE",
"571 0 LINE",
"559 15 OFFCURVE",
"537 67 OFFCURVE",
"494 205 CURVE SMOOTH",
"477 258 OFFCURVE",
"461 316 OFFCURVE",
"446 373 CURVE",
"558 486 OFFCURVE",
"674 595 OFFCURVE",
"790 695 CURVE",
"775 695 OFFCURVE",
"757 697 OFFCURVE",
"738 697 CURVE SMOOTH",
"713 697 OFFCURVE",
"688 694 OFFCURVE",
"675 679 CURVE SMOOTH",
"597 590 OFFCURVE",
"517 504 OFFCURVE",
"434 419 CURVE",
"421 473 OFFCURVE",
"405 541 OFFCURVE",
"393 596 CURVE SMOOTH",
"380 655 OFFCURVE",
"371 697 OFFCURVE",
"319 697 CURVE SMOOTH",
"303 697 OFFCURVE",
"284 693 OFFCURVE",
"259 685 CURVE SMOOTH",
"211 669 OFFCURVE",
"171 636 OFFCURVE",
"145 611 CURVE SMOOTH",
"140 607 OFFCURVE",
"144 591 OFFCURVE",
"149 591 CURVE SMOOTH",
"150 591 OFFCURVE",
"151 591 OFFCURVE",
"152 592 CURVE SMOOTH",
"184 624 OFFCURVE",
"212 631 OFFCURVE",
"230 631 CURVE SMOOTH",
"259 631 OFFCURVE",
"271 608 OFFCURVE",
"276 588 CURVE SMOOTH",
"343 327 LINE",
"232 215 OFFCURVE",
"117 107 OFFCURVE",
"0 0 CURVE"
);
}
);
};
layerId = "FDC6D5C2-1E82-4E29-8E0D-3EE46E074C54";
paths = (
{
closed = 1;
nodes = (
"108 0 LINE",
"185 94 OFFCURVE",
"268 188 OFFCURVE",
"355 280 CURVE",
"430 0 LINE",
"571 0 LINE",
"559 15 OFFCURVE",
"537 67 OFFCURVE",
"494 205 CURVE SMOOTH",
"477 258 OFFCURVE",
"461 316 OFFCURVE",
"446 373 CURVE",
"558 486 OFFCURVE",
"674 595 OFFCURVE",
"790 695 CURVE",
"775 695 OFFCURVE",
"757 697 OFFCURVE",
"738 697 CURVE SMOOTH",
"713 697 OFFCURVE",
"688 694 OFFCURVE",
"675 679 CURVE SMOOTH",
"597 590 OFFCURVE",
"517 504 OFFCURVE",
"434 419 CURVE",
"421 473 OFFCURVE",
"405 541 OFFCURVE",
"393 596 CURVE SMOOTH",
"380 655 OFFCURVE",
"371 697 OFFCURVE",
"319 697 CURVE SMOOTH",
"303 697 OFFCURVE",
"284 693 OFFCURVE",
"259 685 CURVE SMOOTH",
"211 669 OFFCURVE",
"171 636 OFFCURVE",
"145 611 CURVE SMOOTH",
"140 607 OFFCURVE",
"144 591 OFFCURVE",
"149 591 CURVE SMOOTH",
"150 591 OFFCURVE",
"151 591 OFFCURVE",
"152 592 CURVE SMOOTH",
"184 624 OFFCURVE",
"212 631 OFFCURVE",
"230 631 CURVE SMOOTH",
"259 631 OFFCURVE",
"271 608 OFFCURVE",
"276 588 CURVE SMOOTH",
"343 327 LINE",
"232 215 OFFCURVE",
"117 107 OFFCURVE",
"0 0 CURVE"
);
}
);
width = 560;
}
);
leftKerningGroup = X;
note = X.script;
rightKerningGroup = X;
unicode = 0058;
},
{
color = 4;
glyphname = Y;
lastChange = "2021-05-06 03:45:31 +0000";
layers = (
{
anchors = (
{
name = bottom;
position = "{265, 0}";
},
{
name = top;
position = "{446, 706}";
},
{
name = topleft;
position = "{20, 706}";
}
);
background = {
anchors = (
{
name = bottom;
position = "{265, 0}";
},
{
name = top;
position = "{446, 706}";
},
{
name = topleft;
position = "{20, 706}";
}
);
paths = (
{
closed = 1;
nodes = (
"328 0 LINE",
"325 5 OFFCURVE",
"324 13 OFFCURVE",
"324 23 CURVE SMOOTH",
"324 38 OFFCURVE",
"327 57 OFFCURVE",
"332 80 CURVE SMOOTH",
"367 246 OFFCURVE",
"472 412 OFFCURVE",
"560 515 CURVE SMOOTH",
"626 592 OFFCURVE",
"697 657 OFFCURVE",
"756 698 CURVE",
"741 698 OFFCURVE",
"720 699 OFFCURVE",
"699 699 CURVE SMOOTH",
"665 699 OFFCURVE",
"631 696 OFFCURVE",
"617 678 CURVE SMOOTH",
"548 588 OFFCURVE",
"449 441 OFFCURVE",
"374 337 CURVE",
"357 405 OFFCURVE",
"334 490 OFFCURVE",
"314 559 CURVE SMOOTH",
"289 642 OFFCURVE",
"264 692 OFFCURVE",
"197 695 CURVE SMOOTH",
"93 700 OFFCURVE",
"49 645 OFFCURVE",
"5 557 CURVE SMOOTH",
"3 553 OFFCURVE",
"5 540 OFFCURVE",
"9 540 CURVE SMOOTH",
"10 540 OFFCURVE",
"10 540 OFFCURVE",
"11 541 CURVE",
"53 597 OFFCURVE",
"87 619 OFFCURVE",
"115 619 CURVE SMOOTH",
"160 619 OFFCURVE",
"191 564 OFFCURVE",
"216 497 CURVE SMOOTH",
"241 429 OFFCURVE",
"265 354 OFFCURVE",
"273 297 CURVE SMOOTH",
"274 290 OFFCURVE",
"274 283 OFFCURVE",
"274 276 CURVE SMOOTH",
"274 244 OFFCURVE",
"266 206 OFFCURVE",
"251 167 CURVE SMOOTH",
"229 106 OFFCURVE",
"210 48 OFFCURVE",
"199 0 CURVE"
);
}
);
};
layerId = "FDC6D5C2-1E82-4E29-8E0D-3EE46E074C54";
paths = (
{
closed = 1;
nodes = (
"328 0 LINE",
"325 5 OFFCURVE",
"324 13 OFFCURVE",
"324 23 CURVE SMOOTH",
"324 38 OFFCURVE",
"327 57 OFFCURVE",
"332 80 CURVE SMOOTH",
"367 246 OFFCURVE",
"472 412 OFFCURVE",
"560 515 CURVE SMOOTH",
"626 592 OFFCURVE",
"697 657 OFFCURVE",
"756 698 CURVE",
"741 698 OFFCURVE",
"720 699 OFFCURVE",
"699 699 CURVE SMOOTH",
"665 699 OFFCURVE",
"631 696 OFFCURVE",
"617 678 CURVE SMOOTH",
"548 588 OFFCURVE",
"449 441 OFFCURVE",
"374 337 CURVE",
"357 405 OFFCURVE",
"334 490 OFFCURVE",
"314 559 CURVE SMOOTH",
"289 642 OFFCURVE",
"264 692 OFFCURVE",
"197 695 CURVE SMOOTH",
"93 700 OFFCURVE",
"49 645 OFFCURVE",
"5 557 CURVE SMOOTH",
"3 553 OFFCURVE",
"5 540 OFFCURVE",
"9 540 CURVE SMOOTH",
"10 540 OFFCURVE",
"10 540 OFFCURVE",
"11 541 CURVE",
"53 597 OFFCURVE",
"87 619 OFFCURVE",
"115 619 CURVE SMOOTH",
"160 619 OFFCURVE",
"191 564 OFFCURVE",
"216 497 CURVE SMOOTH",
"241 429 OFFCURVE",
"265 354 OFFCURVE",
"273 297 CURVE SMOOTH",
"274 290 OFFCURVE",
"274 283 OFFCURVE",
"274 276 CURVE SMOOTH",
"274 244 OFFCURVE",
"266 206 OFFCURVE",
"251 167 CURVE SMOOTH",
"229 106 OFFCURVE",
"210 48 OFFCURVE",
"199 0 CURVE"
);
}
);
width = 684;
}
);
leftKerningGroup = Y;
note = Y.script;
rightKerningGroup = Y;
unicode = 0059;
},
{
color = 4;
glyphname = Z;
lastChange = "2021-05-06 03:46:44 +0000";
layers = (
{
anchors = (
{
name = bottom;
position = "{290, 0}";
},
{
name = center;
position = "{339, 353}";
},
{
name = top;
position = "{583, 706}";
}
);
background = {
anchors = (
{
name = bottom;
position = "{290, 0}";
},
{
name = center;
position = "{339, 353}";
},
{
name = top;
position = "{583, 706}";
}
);
paths = (
{
closed = 1;
nodes = (
"624 -6 OFFCURVE",
"680 62 OFFCURVE",
"680 114 CURVE SMOOTH",
"680 152 OFFCURVE",
"646 182 OFFCURVE",
"609 183 CURVE SMOOTH",
"606 183 OFFCURVE",
"598 174 OFFCURVE",
"600 173 CURVE SMOOTH",
"610 166 OFFCURVE",
"614 156 OFFCURVE",
"614 144 CURVE SMOOTH",
"614 88 OFFCURVE",
"557 72 OFFCURVE",
"489 72 CURVE SMOOTH",
"408 72 OFFCURVE",
"311 95 OFFCURVE",
"275 103 CURVE SMOOTH",
"241 111 OFFCURVE",
"211 119 OFFCURVE",
"193 128 CURVE",
"271 205 OFFCURVE",
"352 285 OFFCURVE",
"432 362 CURVE SMOOTH",
"547 472 OFFCURVE",
"676 590 OFFCURVE",
"800 698 CURVE",
"793 701 OFFCURVE",
"783 702 OFFCURVE",
"771 702 CURVE SMOOTH",
"742 702 OFFCURVE",
"704 693 OFFCURVE",
"685 677 CURVE SMOOTH",
"675 669 OFFCURVE",
"654 665 OFFCURVE",
"626 665 CURVE SMOOTH",
"581 665 OFFCURVE",
"518 674 OFFCURVE",
"452 689 CURVE SMOOTH",
"425 695 OFFCURVE",
"390 701 OFFCURVE",
"356 701 CURVE SMOOTH",
"325 701 OFFCURVE",
"295 696 OFFCURVE",
"273 683 CURVE SMOOTH",
"240 663 OFFCURVE",
"181 589 OFFCURVE",
"181 530 CURVE SMOOTH",
"181 525 OFFCURVE",
"181 521 OFFCURVE",
"182 516 CURVE SMOOTH",
"183 512 OFFCURVE",
"185 510 OFFCURVE",
"188 510 CURVE SMOOTH",
"193 510 OFFCURVE",
"198 514 OFFCURVE",
"198 516 CURVE SMOOTH",
"202 564 OFFCURVE",
"253 601 OFFCURVE",
"290 601 CURVE SMOOTH",
"331 600 OFFCURVE",
"416 588 OFFCURVE",
"470 588 CURVE SMOOTH",
"518 588 OFFCURVE",
"600 607 OFFCURVE",
"648 628 CURVE",
"558 538 OFFCURVE",
"479 463 OFFCURVE",
"377 366 CURVE SMOOTH",
"270 264 OFFCURVE",
"139 145 OFFCURVE",
"31 78 CURVE SMOOTH",
"9 65 OFFCURVE",
"0 46 OFFCURVE",
"0 29 CURVE SMOOTH",
"0 7 OFFCURVE",
"15 -11 OFFCURVE",
"36 -11 CURVE SMOOTH",
"48 -11 OFFCURVE",
"63 -5 OFFCURVE",
"78 10 CURVE SMOOTH",
"116 47 OFFCURVE",
"136 88 OFFCURVE",
"176 88 CURVE SMOOTH",
"189 88 OFFCURVE",
"203 84 OFFCURVE",
"221 75 CURVE SMOOTH",
"243 63 OFFCURVE",
"314 35 OFFCURVE",
"337 23 CURVE SMOOTH",
"381 0 OFFCURVE",
"443 -13 OFFCURVE",
"499 -13 CURVE SMOOTH",
"507 -13 OFFCURVE",
"515 -12 OFFCURVE",
"522 -12 CURVE SMOOTH"
);
}
);
};
layerId = "FDC6D5C2-1E82-4E29-8E0D-3EE46E074C54";
paths = (
{
closed = 1;
nodes = (
"624 -6 OFFCURVE",
"680 62 OFFCURVE",
"680 114 CURVE SMOOTH",
"680 152 OFFCURVE",
"646 182 OFFCURVE",
"609 183 CURVE SMOOTH",
"606 183 OFFCURVE",
"598 174 OFFCURVE",
"600 173 CURVE SMOOTH",
"610 166 OFFCURVE",
"614 156 OFFCURVE",
"614 144 CURVE SMOOTH",
"614 88 OFFCURVE",
"557 72 OFFCURVE",
"489 72 CURVE SMOOTH",
"408 72 OFFCURVE",
"311 95 OFFCURVE",
"275 103 CURVE SMOOTH",
"241 111 OFFCURVE",
"211 119 OFFCURVE",
"193 128 CURVE",
"271 205 OFFCURVE",
"352 285 OFFCURVE",
"432 362 CURVE SMOOTH",
"547 472 OFFCURVE",
"676 590 OFFCURVE",
"800 698 CURVE",
"793 701 OFFCURVE",
"783 702 OFFCURVE",
"771 702 CURVE SMOOTH",
"742 702 OFFCURVE",
"704 693 OFFCURVE",
"685 677 CURVE SMOOTH",
"675 669 OFFCURVE",
"654 665 OFFCURVE",
"626 665 CURVE SMOOTH",
"581 665 OFFCURVE",
"518 674 OFFCURVE",
"452 689 CURVE SMOOTH",
"425 695 OFFCURVE",
"390 701 OFFCURVE",
"356 701 CURVE SMOOTH",
"325 701 OFFCURVE",
"295 696 OFFCURVE",
"273 683 CURVE SMOOTH",
"240 663 OFFCURVE",
"181 589 OFFCURVE",
"181 530 CURVE SMOOTH",
"181 525 OFFCURVE",
"181 521 OFFCURVE",
"182 516 CURVE SMOOTH",
"183 512 OFFCURVE",
"185 510 OFFCURVE",
"188 510 CURVE SMOOTH",
"193 510 OFFCURVE",
"198 514 OFFCURVE",
"198 516 CURVE SMOOTH",
"202 564 OFFCURVE",
"253 601 OFFCURVE",
"290 601 CURVE SMOOTH",
"331 600 OFFCURVE",
"416 588 OFFCURVE",
"470 588 CURVE SMOOTH",
"518 588 OFFCURVE",
"600 607 OFFCURVE",
"648 628 CURVE",
"558 538 OFFCURVE",
"479 463 OFFCURVE",
"377 366 CURVE SMOOTH",
"270 264 OFFCURVE",
"139 145 OFFCURVE",
"31 78 CURVE SMOOTH",
"9 65 OFFCURVE",
"0 46 OFFCURVE",
"0 29 CURVE SMOOTH",
"0 7 OFFCURVE",
"15 -11 OFFCURVE",
"36 -11 CURVE SMOOTH",
"48 -11 OFFCURVE",
"63 -5 OFFCURVE",
"78 10 CURVE SMOOTH",
"116 47 OFFCURVE",
"136 88 OFFCURVE",
"176 88 CURVE SMOOTH",
"189 88 OFFCURVE",
"203 84 OFFCURVE",
"221 75 CURVE SMOOTH",
"243 63 OFFCURVE",
"314 35 OFFCURVE",
"337 23 CURVE SMOOTH",
"381 0 OFFCURVE",
"443 -13 OFFCURVE",
"499 -13 CURVE SMOOTH",
"507 -13 OFFCURVE",
"515 -12 OFFCURVE",
"522 -12 CURVE SMOOTH"
);
}
);
width = 683;
}
);
leftKerningGroup = Z;
note = Z.script;
rightKerningGroup = Z;
unicode = 005A;
},
{
glyphname = bracketleft;
lastChange = "2021-05-05 04:49:43 +0000";
layers = (
{
background = {
paths = (
{
closed = 1;
nodes = (
"256 -77 LINE",
"272 -29 LINE",
"119 -29 LINE",
"354 664 LINE",
"507 664 LINE",
"523 712 LINE",
"280 712 LINE",
"261 655 OFFCURVE",
"311 803 OFFCURVE",
"13 -77 CURVE"
);
}
);
};
layerId = "FDC6D5C2-1E82-4E29-8E0D-3EE46E074C54";
paths = (
{
closed = 1;
nodes = (
"256 -77 LINE",
"272 -29 LINE",
"119 -29 LINE",
"354 664 LINE",
"507 664 LINE",
"523 712 LINE",
"280 712 LINE",
"261 655 OFFCURVE",
"311 803 OFFCURVE",
"13 -77 CURVE"
);
}
);
width = 455;
}
);
note = bracketleft;
unicode = 005B;
},
{
glyphname = backslash;
lastChange = "2021-05-05 04:49:43 +0000";
layers = (
{
background = {
paths = (
{
closed = 1;
nodes = (
"341 -60 OFFCURVE",
"351 -61 OFFCURVE",
"364 -61 CURVE SMOOTH",
"389 -61 OFFCURVE",
"425 -58 OFFCURVE",
"424 -53 CURVE SMOOTH",
"170 699 LINE SMOOTH",
"169 701 OFFCURVE",
"159 702 OFFCURVE",
"146 702 CURVE SMOOTH",
"121 702 OFFCURVE",
"85 699 OFFCURVE",
"86 694 CURVE SMOOTH",
"340 -58 LINE SMOOTH"
);
}
);
};
layerId = "FDC6D5C2-1E82-4E29-8E0D-3EE46E074C54";
paths = (
{
closed = 1;
nodes = (
"341 -60 OFFCURVE",
"351 -61 OFFCURVE",
"364 -61 CURVE SMOOTH",
"389 -61 OFFCURVE",
"425 -58 OFFCURVE",
"424 -53 CURVE SMOOTH",
"170 699 LINE SMOOTH",
"169 701 OFFCURVE",
"159 702 OFFCURVE",
"146 702 CURVE SMOOTH",
"121 702 OFFCURVE",
"85 699 OFFCURVE",
"86 694 CURVE SMOOTH",
"340 -58 LINE SMOOTH"
);
}
);
width = 455;
}
);
note = backslash;
unicode = 005C;
},
{
glyphname = bracketright;
lastChange = "2021-05-05 04:49:43 +0000";
layers = (
{
background = {
paths = (
{
closed = 1;
nodes = (
"256 -77 LINE",
"523 712 LINE",
"280 712 LINE",
"264 664 LINE",
"417 664 LINE",
"182 -29 LINE",
"29 -29 LINE",
"13 -77 LINE"
);
}
);
};
layerId = "FDC6D5C2-1E82-4E29-8E0D-3EE46E074C54";
paths = (
{
closed = 1;
nodes = (
"256 -77 LINE",
"523 712 LINE",
"280 712 LINE",
"264 664 LINE",
"417 664 LINE",
"182 -29 LINE",
"29 -29 LINE",
"13 -77 LINE"
);
}
);
width = 455;
}
);
note = bracketright;
unicode = 005D;
},
{
glyphname = asciicircum;
lastChange = "2021-05-05 04:49:43 +0000";
layers = (
{
background = {
paths = (
{
closed = 1;
nodes = (
"156 457 OFFCURVE",
"180 458 OFFCURVE",
"189 464 CURVE",
"225 482 OFFCURVE",
"341 588 OFFCURVE",
"378 625 CURVE",
"400 577 OFFCURVE",
"445 494 OFFCURVE",
"483 463 CURVE SMOOTH",
"494 454 OFFCURVE",
"532 485 OFFCURVE",
"527 491 CURVE SMOOTH",
"479 551 OFFCURVE",
"445 598 OFFCURVE",
"415 662 CURVE SMOOTH",
"409 673 OFFCURVE",
"405 680 OFFCURVE",
"399 680 CURVE SMOOTH",
"395 680 OFFCURVE",
"388 675 OFFCURVE",
"379 665 CURVE SMOOTH",
"313 594 OFFCURVE",
"240 526 OFFCURVE",
"163 463 CURVE SMOOTH"
);
}
);
};
layerId = "FDC6D5C2-1E82-4E29-8E0D-3EE46E074C54";
paths = (
{
closed = 1;
nodes = (
"156 457 OFFCURVE",
"180 458 OFFCURVE",
"189 464 CURVE",
"225 482 OFFCURVE",
"341 588 OFFCURVE",
"378 625 CURVE",
"400 577 OFFCURVE",
"445 494 OFFCURVE",
"483 463 CURVE SMOOTH",
"494 454 OFFCURVE",
"532 485 OFFCURVE",
"527 491 CURVE SMOOTH",
"479 551 OFFCURVE",
"445 598 OFFCURVE",
"415 662 CURVE SMOOTH",
"409 673 OFFCURVE",
"405 680 OFFCURVE",
"399 680 CURVE SMOOTH",
"395 680 OFFCURVE",
"388 675 OFFCURVE",
"379 665 CURVE SMOOTH",
"313 594 OFFCURVE",
"240 526 OFFCURVE",
"163 463 CURVE SMOOTH"
);
}
);
width = 531;
}
);
note = asciicircum;
unicode = 005E;
},
{
glyphname = underscore;
lastChange = "2021-05-05 04:49:43 +0000";
layers = (
{
background = {
paths = (
{
closed = 1;
nodes = (
"712 -165 LINE SMOOTH",
"726 -165 OFFCURVE",
"766 -100 OFFCURVE",
"758 -100 CURVE SMOOTH",
"0 -100 LINE SMOOTH",
"-15 -100 OFFCURVE",
"-54 -165 OFFCURVE",
"-46 -165 CURVE SMOOTH"
);
}
);
};
layerId = "FDC6D5C2-1E82-4E29-8E0D-3EE46E074C54";
paths = (
{
closed = 1;
nodes = (
"712 -165 LINE SMOOTH",
"726 -165 OFFCURVE",
"766 -100 OFFCURVE",
"758 -100 CURVE SMOOTH",
"0 -100 LINE SMOOTH",
"-15 -100 OFFCURVE",
"-54 -165 OFFCURVE",
"-46 -165 CURVE SMOOTH"
);
}
);
width = 758;
}
);
note = underscore;
unicode = 005F;
},
{
glyphname = grave;
lastChange = "2021-05-05 04:49:43 +0000";
layers = (
{
background = {
paths = (
{
closed = 1;
nodes = (
"506 529 OFFCURVE",
"527 540 OFFCURVE",
"526 543 CURVE",
"511 550 OFFCURVE",
"435 609 OFFCURVE",
"386 644 CURVE SMOOTH",
"372 654 OFFCURVE",
"314 621 OFFCURVE",
"329 615 CURVE SMOOTH",
"401 585 OFFCURVE",
"486 542 OFFCURVE",
"502 531 CURVE SMOOTH"
);
}
);
};
layerId = "FDC6D5C2-1E82-4E29-8E0D-3EE46E074C54";
paths = (
{
closed = 1;
nodes = (
"506 529 OFFCURVE",
"527 540 OFFCURVE",
"526 543 CURVE",
"511 550 OFFCURVE",
"435 609 OFFCURVE",
"386 644 CURVE SMOOTH",
"372 654 OFFCURVE",
"314 621 OFFCURVE",
"329 615 CURVE SMOOTH",
"401 585 OFFCURVE",
"486 542 OFFCURVE",
"502 531 CURVE SMOOTH"
);
}
);
width = 530;
}
);
note = grave;
unicode = 0060;
},
{
glyphname = a;
lastChange = "2021-05-06 03:21:10 +0000";
layers = (
{
anchors = (
{
name = bottom;
position = "{170, 0}";
},
{
name = ogonek;
position = "{355, 21}";
},
{
name = top;
position = "{368, 403}";
}
);
background = {
anchors = (
{
name = bottom;
position = "{170, 0}";
},
{
name = ogonek;
position = "{355, 21}";
},
{
name = top;
position = "{368, 403}";
}
);
paths = (
{
closed = 1;
nodes = (
"420 -6 OFFCURVE",
"507 137 OFFCURVE",
"545 201 CURVE SMOOTH",
"552 213 OFFCURVE",
"555 227 OFFCURVE",
"555 238 CURVE SMOOTH",
"555 248 OFFCURVE",
"553 255 OFFCURVE",
"549 255 CURVE SMOOTH",
"547 255 OFFCURVE",
"545 253 OFFCURVE",
"542 248 CURVE SMOOTH",
"515 196 OFFCURVE",
"481 134 OFFCURVE",
"434 97 CURVE SMOOTH",
"417 83 OFFCURVE",
"403 77 OFFCURVE",
"394 77 CURVE SMOOTH",
"382 77 OFFCURVE",
"377 86 OFFCURVE",
"377 103 CURVE SMOOTH",
"377 113 OFFCURVE",
"378 124 OFFCURVE",
"382 138 CURVE SMOOTH",
"398 200 OFFCURVE",
"429 270 OFFCURVE",
"465 339 CURVE SMOOTH",
"472 353 OFFCURVE",
"494 390 OFFCURVE",
"505 399 CURVE",
"493 398 OFFCURVE",
"459 400 OFFCURVE",
"445 400 CURVE SMOOTH",
"416 400 OFFCURVE",
"392 377 OFFCURVE",
"373 348 CURVE",
"371 346 OFFCURVE",
"369 345 OFFCURVE",
"368 343 CURVE",
"355 391 OFFCURVE",
"305 404 OFFCURVE",
"271 404 CURVE SMOOTH",
"129 404 OFFCURVE",
"28 227 OFFCURVE",
"28 89 CURVE SMOOTH",
"28 21 OFFCURVE",
"57 -3 OFFCURVE",
"95 -3 CURVE SMOOTH",
"141 -3 OFFCURVE",
"190 36 OFFCURVE",
"233 88 CURVE SMOOTH",
"258 117 OFFCURVE",
"283 158 OFFCURVE",
"306 199 CURVE",
"299 178 OFFCURVE",
"295 159 OFFCURVE",
"291 140 CURVE SMOOTH",
"287 119 OFFCURVE",
"285 97 OFFCURVE",
"285 77 CURVE SMOOTH",
"285 30 OFFCURVE",
"298 -6 OFFCURVE",
"339 -6 CURVE SMOOTH"
);
},
{
closed = 1;
nodes = (
"130 84 OFFCURVE",
"125 95 OFFCURVE",
"125 111 CURVE SMOOTH",
"125 164 OFFCURVE",
"175 273 OFFCURVE",
"227 326 CURVE SMOOTH",
"250 349 OFFCURVE",
"286 367 OFFCURVE",
"315 367 CURVE SMOOTH",
"337 367 OFFCURVE",
"355 357 OFFCURVE",
"362 334 CURVE",
"358 327 OFFCURVE",
"332 282 OFFCURVE",
"273 189 CURVE SMOOTH",
"239 136 OFFCURVE",
"186 80 OFFCURVE",
"149 80 CURVE SMOOTH",
"146 80 OFFCURVE",
"143 80 OFFCURVE",
"140 81 CURVE SMOOTH"
);
}
);
};
layerId = "FDC6D5C2-1E82-4E29-8E0D-3EE46E074C54";
paths = (
{
closed = 1;
nodes = (
"420 -6 OFFCURVE",
"507 137 OFFCURVE",
"545 201 CURVE SMOOTH",
"552 213 OFFCURVE",
"555 227 OFFCURVE",
"555 238 CURVE SMOOTH",
"555 248 OFFCURVE",
"553 255 OFFCURVE",
"549 255 CURVE SMOOTH",
"547 255 OFFCURVE",
"545 253 OFFCURVE",
"542 248 CURVE SMOOTH",
"515 196 OFFCURVE",
"481 134 OFFCURVE",
"434 97 CURVE SMOOTH",
"417 83 OFFCURVE",
"403 77 OFFCURVE",
"394 77 CURVE SMOOTH",
"382 77 OFFCURVE",
"377 86 OFFCURVE",
"377 103 CURVE SMOOTH",
"377 113 OFFCURVE",
"378 124 OFFCURVE",
"382 138 CURVE SMOOTH",
"398 200 OFFCURVE",
"429 270 OFFCURVE",
"465 339 CURVE SMOOTH",
"472 353 OFFCURVE",
"494 390 OFFCURVE",
"505 399 CURVE",
"493 398 OFFCURVE",
"459 400 OFFCURVE",
"445 400 CURVE SMOOTH",
"416 400 OFFCURVE",
"392 377 OFFCURVE",
"373 348 CURVE",
"371 346 OFFCURVE",
"369 345 OFFCURVE",
"368 343 CURVE",
"355 391 OFFCURVE",
"305 404 OFFCURVE",
"271 404 CURVE SMOOTH",
"129 404 OFFCURVE",
"28 227 OFFCURVE",
"28 89 CURVE SMOOTH",
"28 21 OFFCURVE",
"57 -3 OFFCURVE",
"95 -3 CURVE SMOOTH",
"141 -3 OFFCURVE",
"190 36 OFFCURVE",
"233 88 CURVE SMOOTH",
"258 117 OFFCURVE",
"283 158 OFFCURVE",
"306 199 CURVE",
"299 178 OFFCURVE",
"295 159 OFFCURVE",
"291 140 CURVE SMOOTH",
"287 119 OFFCURVE",
"285 97 OFFCURVE",
"285 77 CURVE SMOOTH",
"285 30 OFFCURVE",
"298 -6 OFFCURVE",
"339 -6 CURVE SMOOTH"
);
},
{
closed = 1;
nodes = (
"130 84 OFFCURVE",
"125 95 OFFCURVE",
"125 111 CURVE SMOOTH",
"125 164 OFFCURVE",
"175 273 OFFCURVE",
"227 326 CURVE SMOOTH",
"250 349 OFFCURVE",
"286 367 OFFCURVE",
"315 367 CURVE SMOOTH",
"337 367 OFFCURVE",
"355 357 OFFCURVE",
"362 334 CURVE",
"358 327 OFFCURVE",
"332 282 OFFCURVE",
"273 189 CURVE SMOOTH",
"239 136 OFFCURVE",
"186 80 OFFCURVE",
"149 80 CURVE SMOOTH",
"146 80 OFFCURVE",
"143 80 OFFCURVE",
"140 81 CURVE SMOOTH"
);
}
);
width = 473;
}
);
leftKerningGroup = o;
note = a;
rightKerningGroup = n;
unicode = 0061;
},
{
glyphname = b;
lastChange = "2021-05-05 04:49:43 +0000";
layers = (
{
background = {
paths = (
{
closed = 1;
nodes = (
"170 -10 OFFCURVE",
"210 5 OFFCURVE",
"248 31 CURVE SMOOTH",
"264 43 OFFCURVE",
"280 56 OFFCURVE",
"296 72 CURVE",
"305 46 OFFCURVE",
"329 33 OFFCURVE",
"352 33 CURVE SMOOTH",
"355 33 OFFCURVE",
"359 34 OFFCURVE",
"362 34 CURVE SMOOTH",
"430 46 OFFCURVE",
"483 148 OFFCURVE",
"516 202 CURVE SMOOTH",
"523 215 OFFCURVE",
"526 229 OFFCURVE",
"526 240 CURVE SMOOTH",
"526 250 OFFCURVE",
"524 257 OFFCURVE",
"520 257 CURVE SMOOTH",
"518 257 OFFCURVE",
"516 254 OFFCURVE",
"513 249 CURVE SMOOTH",
"496 216 OFFCURVE",
"470 172 OFFCURVE",
"443 138 CURVE SMOOTH",
"427 118 OFFCURVE",
"409 94 OFFCURVE",
"389 81 CURVE SMOOTH",
"379 74 OFFCURVE",
"369 71 OFFCURVE",
"361 71 CURVE SMOOTH",
"342 71 OFFCURVE",
"329 87 OFFCURVE",
"328 108 CURVE",
"376 167 OFFCURVE",
"410 241 OFFCURVE",
"410 312 CURVE SMOOTH",
"410 379 OFFCURVE",
"380 404 OFFCURVE",
"342 404 CURVE SMOOTH",
"297 404 OFFCURVE",
"247 365 OFFCURVE",
"204 313 CURVE SMOOTH",
"182 286 OFFCURVE",
"159 250 OFFCURVE",
"138 213 CURVE",
"184 389 OFFCURVE",
"292 616 OFFCURVE",
"344 654 CURVE",
"338 653 OFFCURVE",
"313 653 OFFCURVE",
"298 653 CURVE SMOOTH",
"282 653 OFFCURVE",
"266 652 OFFCURVE",
"255 649 CURVE SMOOTH",
"231 643 OFFCURVE",
"216 621 OFFCURVE",
"181 554 CURVE SMOOTH",
"126 447 OFFCURVE",
"57 237 OFFCURVE",
"36 149 CURVE SMOOTH",
"28 116 OFFCURVE",
"24 89 OFFCURVE",
"24 67 CURVE SMOOTH",
"24 7 OFFCURVE",
"54 -10 OFFCURVE",
"115 -10 CURVE SMOOTH"
);
},
{
closed = 1;
nodes = (
"123 26 OFFCURVE",
"114 35 OFFCURVE",
"111 49 CURVE SMOOTH",
"110 55 OFFCURVE",
"109 62 OFFCURVE",
"109 68 CURVE SMOOTH",
"109 144 OFFCURVE",
"194 263 OFFCURVE",
"243 300 CURVE SMOOTH",
"259 313 OFFCURVE",
"274 320 OFFCURVE",
"288 320 CURVE SMOOTH",
"291 320 OFFCURVE",
"295 320 OFFCURVE",
"298 319 CURVE SMOOTH",
"308 316 OFFCURVE",
"313 305 OFFCURVE",
"313 290 CURVE SMOOTH",
"313 253 OFFCURVE",
"289 191 OFFCURVE",
"258 139 CURVE SMOOTH",
"228 88 OFFCURVE",
"172 26 OFFCURVE",
"138 26 CURVE SMOOTH"
);
}
);
};
layerId = "FDC6D5C2-1E82-4E29-8E0D-3EE46E074C54";
paths = (
{
closed = 1;
nodes = (
"170 -10 OFFCURVE",
"210 5 OFFCURVE",
"248 31 CURVE SMOOTH",
"264 43 OFFCURVE",
"280 56 OFFCURVE",
"296 72 CURVE",
"305 46 OFFCURVE",
"329 33 OFFCURVE",
"352 33 CURVE SMOOTH",
"355 33 OFFCURVE",
"359 34 OFFCURVE",
"362 34 CURVE SMOOTH",
"430 46 OFFCURVE",
"483 148 OFFCURVE",
"516 202 CURVE SMOOTH",
"523 215 OFFCURVE",
"526 229 OFFCURVE",
"526 240 CURVE SMOOTH",
"526 250 OFFCURVE",
"524 257 OFFCURVE",
"520 257 CURVE SMOOTH",
"518 257 OFFCURVE",
"516 254 OFFCURVE",
"513 249 CURVE SMOOTH",
"496 216 OFFCURVE",
"470 172 OFFCURVE",
"443 138 CURVE SMOOTH",
"427 118 OFFCURVE",
"409 94 OFFCURVE",
"389 81 CURVE SMOOTH",
"379 74 OFFCURVE",
"369 71 OFFCURVE",
"361 71 CURVE SMOOTH",
"342 71 OFFCURVE",
"329 87 OFFCURVE",
"328 108 CURVE",
"376 167 OFFCURVE",
"410 241 OFFCURVE",
"410 312 CURVE SMOOTH",
"410 379 OFFCURVE",
"380 404 OFFCURVE",
"342 404 CURVE SMOOTH",
"297 404 OFFCURVE",
"247 365 OFFCURVE",
"204 313 CURVE SMOOTH",
"182 286 OFFCURVE",
"159 250 OFFCURVE",
"138 213 CURVE",
"184 389 OFFCURVE",
"292 616 OFFCURVE",
"344 654 CURVE",
"338 653 OFFCURVE",
"313 653 OFFCURVE",
"298 653 CURVE SMOOTH",
"282 653 OFFCURVE",
"266 652 OFFCURVE",
"255 649 CURVE SMOOTH",
"231 643 OFFCURVE",
"216 621 OFFCURVE",
"181 554 CURVE SMOOTH",
"126 447 OFFCURVE",
"57 237 OFFCURVE",
"36 149 CURVE SMOOTH",
"28 116 OFFCURVE",
"24 89 OFFCURVE",
"24 67 CURVE SMOOTH",
"24 7 OFFCURVE",
"54 -10 OFFCURVE",
"115 -10 CURVE SMOOTH"
);
},
{
closed = 1;
nodes = (
"123 26 OFFCURVE",
"114 35 OFFCURVE",
"111 49 CURVE SMOOTH",
"110 55 OFFCURVE",
"109 62 OFFCURVE",
"109 68 CURVE SMOOTH",
"109 144 OFFCURVE",
"194 263 OFFCURVE",
"243 300 CURVE SMOOTH",
"259 313 OFFCURVE",
"274 320 OFFCURVE",
"288 320 CURVE SMOOTH",
"291 320 OFFCURVE",
"295 320 OFFCURVE",
"298 319 CURVE SMOOTH",
"308 316 OFFCURVE",
"313 305 OFFCURVE",
"313 290 CURVE SMOOTH",
"313 253 OFFCURVE",
"289 191 OFFCURVE",
"258 139 CURVE SMOOTH",
"228 88 OFFCURVE",
"172 26 OFFCURVE",
"138 26 CURVE SMOOTH"
);
}
);
width = 443;
}
);
note = b;
unicode = 0062;
},
{
glyphname = c;
lastChange = "2021-05-06 03:24:49 +0000";
layers = (
{
anchors = (
{
name = bottom;
position = "{152, 0}";
},
{
name = top;
position = "{284, 398}";
}
);
background = {
anchors = (
{
name = bottom;
position = "{152, 0}";
},
{
name = top;
position = "{284, 398}";
}
);
paths = (
{
closed = 1;
nodes = (
"254 -10 OFFCURVE",
"312 33 OFFCURVE",
"358 92 CURVE SMOOTH",
"384 125 OFFCURVE",
"407 163 OFFCURVE",
"430 201 CURVE SMOOTH",
"437 213 OFFCURVE",
"440 228 OFFCURVE",
"440 239 CURVE SMOOTH",
"440 249 OFFCURVE",
"438 256 OFFCURVE",
"434 256 CURVE SMOOTH",
"432 256 OFFCURVE",
"430 254 OFFCURVE",
"427 249 CURVE SMOOTH",
"411 217 OFFCURVE",
"387 176 OFFCURVE",
"358 139 CURVE SMOOTH",
"314 81 OFFCURVE",
"257 31 OFFCURVE",
"195 31 CURVE SMOOTH",
"145 31 OFFCURVE",
"124 66 OFFCURVE",
"124 115 CURVE SMOOTH",
"124 148 OFFCURVE",
"134 188 OFFCURVE",
"152 227 CURVE SMOOTH",
"187 302 OFFCURVE",
"247 368 OFFCURVE",
"302 368 CURVE SMOOTH",
"322 368 OFFCURVE",
"330 357 OFFCURVE",
"330 342 CURVE SMOOTH",
"330 331 OFFCURVE",
"325 317 OFFCURVE",
"317 306 CURVE SMOOTH",
"307 291 OFFCURVE",
"289 290 OFFCURVE",
"281 289 CURVE",
"280 284 OFFCURVE",
"279 279 OFFCURVE",
"279 275 CURVE SMOOTH",
"279 250 OFFCURVE",
"298 238 OFFCURVE",
"319 238 CURVE SMOOTH",
"358 238 OFFCURVE",
"383 278 OFFCURVE",
"383 318 CURVE SMOOTH",
"383 360 OFFCURVE",
"346 398 OFFCURVE",
"284 398 CURVE SMOOTH",
"184 398 OFFCURVE",
"118 337 OFFCURVE",
"71 253 CURVE SMOOTH",
"48 212 OFFCURVE",
"34 163 OFFCURVE",
"34 118 CURVE SMOOTH",
"34 49 OFFCURVE",
"69 -10 OFFCURVE",
"164 -10 CURVE SMOOTH"
);
}
);
};
layerId = "FDC6D5C2-1E82-4E29-8E0D-3EE46E074C54";
paths = (
{
closed = 1;
nodes = (
"254 -10 OFFCURVE",
"312 33 OFFCURVE",
"358 92 CURVE SMOOTH",
"384 125 OFFCURVE",
"407 163 OFFCURVE",
"430 201 CURVE SMOOTH",
"437 213 OFFCURVE",
"440 228 OFFCURVE",
"440 239 CURVE SMOOTH",
"440 249 OFFCURVE",
"438 256 OFFCURVE",
"434 256 CURVE SMOOTH",
"432 256 OFFCURVE",
"430 254 OFFCURVE",
"427 249 CURVE SMOOTH",
"411 217 OFFCURVE",
"387 176 OFFCURVE",
"358 139 CURVE SMOOTH",
"314 81 OFFCURVE",
"257 31 OFFCURVE",
"195 31 CURVE SMOOTH",
"145 31 OFFCURVE",
"124 66 OFFCURVE",
"124 115 CURVE SMOOTH",
"124 148 OFFCURVE",
"134 188 OFFCURVE",
"152 227 CURVE SMOOTH",
"187 302 OFFCURVE",
"247 368 OFFCURVE",
"302 368 CURVE SMOOTH",
"322 368 OFFCURVE",
"330 357 OFFCURVE",
"330 342 CURVE SMOOTH",
"330 331 OFFCURVE",
"325 317 OFFCURVE",
"317 306 CURVE SMOOTH",
"307 291 OFFCURVE",
"289 290 OFFCURVE",
"281 289 CURVE",
"280 284 OFFCURVE",
"279 279 OFFCURVE",
"279 275 CURVE SMOOTH",
"279 250 OFFCURVE",
"298 238 OFFCURVE",
"319 238 CURVE SMOOTH",
"358 238 OFFCURVE",
"383 278 OFFCURVE",
"383 318 CURVE SMOOTH",
"383 360 OFFCURVE",
"346 398 OFFCURVE",
"284 398 CURVE SMOOTH",
"184 398 OFFCURVE",
"118 337 OFFCURVE",
"71 253 CURVE SMOOTH",
"48 212 OFFCURVE",
"34 163 OFFCURVE",
"34 118 CURVE SMOOTH",
"34 49 OFFCURVE",
"69 -10 OFFCURVE",
"164 -10 CURVE SMOOTH"
);
}
);
width = 358;
}
);
leftKerningGroup = o;
note = c;
rightKerningGroup = c;
unicode = 0063;
},
{
glyphname = d;
lastChange = "2021-05-06 03:17:08 +0000";
layers = (
{
anchors = (
{
name = bottom;
position = "{206, 0}";
},
{
name = center;
position = "{238, 202}";
},
{
name = top;
position = "{238, 948}";
},
{
name = topright;
position = "{595, 653}";
}
);
background = {
anchors = (
{
name = bottom;
position = "{206, 0}";
},
{
name = center;
position = "{238, 202}";
},
{
name = top;
position = "{238, 948}";
},
{
name = topright;
position = "{595, 653}";
}
);
paths = (
{
closed = 1;
nodes = (
"389 -6 OFFCURVE",
"448 55 OFFCURVE",
"476 92 CURVE SMOOTH",
"503 129 OFFCURVE",
"530 171 OFFCURVE",
"549 203 CURVE SMOOTH",
"556 215 OFFCURVE",
"559 228 OFFCURVE",
"559 239 CURVE SMOOTH",
"559 249 OFFCURVE",
"556 257 OFFCURVE",
"552 257 CURVE SMOOTH",
"550 257 OFFCURVE",
"548 254 OFFCURVE",
"545 249 CURVE SMOOTH",
"528 214 OFFCURVE",
"503 173 OFFCURVE",
"476 138 CURVE SMOOTH",
"464 123 OFFCURVE",
"421 77 OFFCURVE",
"397 77 CURVE SMOOTH",
"386 77 OFFCURVE",
"379 86 OFFCURVE",
"379 109 CURVE SMOOTH",
"379 223 OFFCURVE",
"533 604 OFFCURVE",
"601 654 CURVE",
"595 653 OFFCURVE",
"570 653 OFFCURVE",
"554 653 CURVE SMOOTH",
"538 653 OFFCURVE",
"523 652 OFFCURVE",
"511 649 CURVE SMOOTH",
"488 643 OFFCURVE",
"479 631 OFFCURVE",
"446 563 CURVE SMOOTH",
"429 528 OFFCURVE",
"407 460 OFFCURVE",
"375 390 CURVE SMOOTH",
"371 382 OFFCURVE",
"367 371 OFFCURVE",
"361 360 CURVE",
"342 394 OFFCURVE",
"300 404 OFFCURVE",
"271 404 CURVE SMOOTH",
"129 404 OFFCURVE",
"28 227 OFFCURVE",
"28 89 CURVE SMOOTH",
"28 21 OFFCURVE",
"58 -3 OFFCURVE",
"95 -3 CURVE SMOOTH",
"181 -3 OFFCURVE",
"267 120 OFFCURVE",
"318 222 CURVE",
"307 188 OFFCURVE",
"299 159 OFFCURVE",
"296 139 CURVE SMOOTH",
"292 116 OFFCURVE",
"289 94 OFFCURVE",
"289 73 CURVE SMOOTH",
"289 28 OFFCURVE",
"302 -6 OFFCURVE",
"342 -6 CURVE SMOOTH"
);
},
{
closed = 1;
nodes = (
"130 84 OFFCURVE",
"125 95 OFFCURVE",
"125 111 CURVE SMOOTH",
"125 164 OFFCURVE",
"175 273 OFFCURVE",
"227 326 CURVE SMOOTH",
"249 349 OFFCURVE",
"286 366 OFFCURVE",
"316 366 CURVE SMOOTH",
"332 366 OFFCURVE",
"347 361 OFFCURVE",
"356 348 CURVE",
"334 301 OFFCURVE",
"305 240 OFFCURVE",
"290 216 CURVE SMOOTH",
"239 135 OFFCURVE",
"186 80 OFFCURVE",
"149 80 CURVE SMOOTH",
"146 80 OFFCURVE",
"143 80 OFFCURVE",
"140 81 CURVE SMOOTH"
);
}
);
};
layerId = "FDC6D5C2-1E82-4E29-8E0D-3EE46E074C54";
paths = (
{
closed = 1;
nodes = (
"389 -6 OFFCURVE",
"448 55 OFFCURVE",
"476 92 CURVE SMOOTH",
"503 129 OFFCURVE",
"530 171 OFFCURVE",
"549 203 CURVE SMOOTH",
"556 215 OFFCURVE",
"559 228 OFFCURVE",
"559 239 CURVE SMOOTH",
"559 249 OFFCURVE",
"556 257 OFFCURVE",
"552 257 CURVE SMOOTH",
"550 257 OFFCURVE",
"548 254 OFFCURVE",
"545 249 CURVE SMOOTH",
"528 214 OFFCURVE",
"503 173 OFFCURVE",
"476 138 CURVE SMOOTH",
"464 123 OFFCURVE",
"421 77 OFFCURVE",
"397 77 CURVE SMOOTH",
"386 77 OFFCURVE",
"379 86 OFFCURVE",
"379 109 CURVE SMOOTH",
"379 223 OFFCURVE",
"533 604 OFFCURVE",
"601 654 CURVE",
"595 653 OFFCURVE",
"570 653 OFFCURVE",
"554 653 CURVE SMOOTH",
"538 653 OFFCURVE",
"523 652 OFFCURVE",
"511 649 CURVE SMOOTH",
"488 643 OFFCURVE",
"479 631 OFFCURVE",
"446 563 CURVE SMOOTH",
"429 528 OFFCURVE",
"407 460 OFFCURVE",
"375 390 CURVE SMOOTH",
"371 382 OFFCURVE",
"367 371 OFFCURVE",
"361 360 CURVE",
"342 394 OFFCURVE",
"300 404 OFFCURVE",
"271 404 CURVE SMOOTH",
"129 404 OFFCURVE",
"28 227 OFFCURVE",
"28 89 CURVE SMOOTH",
"28 21 OFFCURVE",
"58 -3 OFFCURVE",
"95 -3 CURVE SMOOTH",
"181 -3 OFFCURVE",
"267 120 OFFCURVE",
"318 222 CURVE",
"307 188 OFFCURVE",
"299 159 OFFCURVE",
"296 139 CURVE SMOOTH",
"292 116 OFFCURVE",
"289 94 OFFCURVE",
"289 73 CURVE SMOOTH",
"289 28 OFFCURVE",
"302 -6 OFFCURVE",
"342 -6 CURVE SMOOTH"
);
},
{
closed = 1;
nodes = (
"130 84 OFFCURVE",
"125 95 OFFCURVE",
"125 111 CURVE SMOOTH",
"125 164 OFFCURVE",
"175 273 OFFCURVE",
"227 326 CURVE SMOOTH",
"249 349 OFFCURVE",
"286 366 OFFCURVE",
"316 366 CURVE SMOOTH",
"332 366 OFFCURVE",
"347 361 OFFCURVE",
"356 348 CURVE",
"334 301 OFFCURVE",
"305 240 OFFCURVE",
"290 216 CURVE SMOOTH",
"239 135 OFFCURVE",
"186 80 OFFCURVE",
"149 80 CURVE SMOOTH",
"146 80 OFFCURVE",
"143 80 OFFCURVE",
"140 81 CURVE SMOOTH"
);
}
);
width = 476;
}
);
leftKerningGroup = d;
note = d;
rightKerningGroup = n;
unicode = 0064;
},
{
glyphname = e;
lastChange = "2021-05-06 03:21:46 +0000";
layers = (
{
anchors = (
{
name = bottom;
position = "{150, 0}";
},
{
name = ogonek;
position = "{271, 30}";
},
{
name = top;
position = "{284, 398}";
}
);
background = {
anchors = (
{
name = bottom;
position = "{150, 0}";
},
{
name = ogonek;
position = "{271, 30}";
},
{
name = top;
position = "{284, 398}";
}
);
paths = (
{
closed = 1;
nodes = (
"303 32 OFFCURVE",
"334 60 OFFCURVE",
"358 92 CURVE SMOOTH",
"385 128 OFFCURVE",
"412 170 OFFCURVE",
"431 203 CURVE SMOOTH",
"439 217 OFFCURVE",
"442 232 OFFCURVE",
"442 244 CURVE SMOOTH",
"442 253 OFFCURVE",
"440 260 OFFCURVE",
"436 260 CURVE SMOOTH",
"434 260 OFFCURVE",
"432 258 OFFCURVE",
"429 253 CURVE SMOOTH",
"398 194 OFFCURVE",
"385 172 OFFCURVE",
"358 138 CURVE SMOOTH",
"322 91 OFFCURVE",
"257 31 OFFCURVE",
"195 31 CURVE SMOOTH",
"145 31 OFFCURVE",
"124 66 OFFCURVE",
"124 115 CURVE SMOOTH",
"124 142 OFFCURVE",
"131 174 OFFCURVE",
"143 205 CURVE",
"157 198 OFFCURVE",
"180 194 OFFCURVE",
"206 194 CURVE SMOOTH",
"233 194 OFFCURVE",
"264 198 OFFCURVE",
"291 208 CURVE SMOOTH",
"345 228 OFFCURVE",
"383 267 OFFCURVE",
"383 318 CURVE SMOOTH",
"383 360 OFFCURVE",
"346 398 OFFCURVE",
"284 398 CURVE SMOOTH",
"200 398 OFFCURVE",
"128 346 OFFCURVE",
"83 275 CURVE SMOOTH",
"54 230 OFFCURVE",
"34 173 OFFCURVE",
"34 122 CURVE SMOOTH",
"34 107 OFFCURVE",
"36 92 OFFCURVE",
"40 78 CURVE SMOOTH",
"57 16 OFFCURVE",
"112 -10 OFFCURVE",
"170 -10 CURVE SMOOTH",
"203 -10 OFFCURVE",
"238 -1 OFFCURVE",
"267 14 CURVE SMOOTH"
);
},
{
closed = 1;
nodes = (
"169 230 OFFCURVE",
"167 236 OFFCURVE",
"167 242 CURVE SMOOTH",
"167 268 OFFCURVE",
"209 314 OFFCURVE",
"219 324 CURVE SMOOTH",
"239 344 OFFCURVE",
"261 359 OFFCURVE",
"282 365 CURVE SMOOTH",
"290 367 OFFCURVE",
"297 368 OFFCURVE",
"302 368 CURVE SMOOTH",
"323 368 OFFCURVE",
"331 355 OFFCURVE",
"330 339 CURVE SMOOTH",
"327 302 OFFCURVE",
"304 272 OFFCURVE",
"273 251 CURVE SMOOTH",
"254 237 OFFCURVE",
"225 222 OFFCURVE",
"199 222 CURVE SMOOTH",
"191 222 OFFCURVE",
"183 223 OFFCURVE",
"176 227 CURVE SMOOTH"
);
}
);
};
layerId = "FDC6D5C2-1E82-4E29-8E0D-3EE46E074C54";
paths = (
{
closed = 1;
nodes = (
"303 32 OFFCURVE",
"334 60 OFFCURVE",
"358 92 CURVE SMOOTH",
"385 128 OFFCURVE",
"412 170 OFFCURVE",
"431 203 CURVE SMOOTH",
"439 217 OFFCURVE",
"442 232 OFFCURVE",
"442 244 CURVE SMOOTH",
"442 253 OFFCURVE",
"440 260 OFFCURVE",
"436 260 CURVE SMOOTH",
"434 260 OFFCURVE",
"432 258 OFFCURVE",
"429 253 CURVE SMOOTH",
"398 194 OFFCURVE",
"385 172 OFFCURVE",
"358 138 CURVE SMOOTH",
"322 91 OFFCURVE",
"257 31 OFFCURVE",
"195 31 CURVE SMOOTH",
"145 31 OFFCURVE",
"124 66 OFFCURVE",
"124 115 CURVE SMOOTH",
"124 142 OFFCURVE",
"131 174 OFFCURVE",
"143 205 CURVE",
"157 198 OFFCURVE",
"180 194 OFFCURVE",
"206 194 CURVE SMOOTH",
"233 194 OFFCURVE",
"264 198 OFFCURVE",
"291 208 CURVE SMOOTH",
"345 228 OFFCURVE",
"383 267 OFFCURVE",
"383 318 CURVE SMOOTH",
"383 360 OFFCURVE",
"346 398 OFFCURVE",
"284 398 CURVE SMOOTH",
"200 398 OFFCURVE",
"128 346 OFFCURVE",
"83 275 CURVE SMOOTH",
"54 230 OFFCURVE",
"34 173 OFFCURVE",
"34 122 CURVE SMOOTH",
"34 107 OFFCURVE",
"36 92 OFFCURVE",
"40 78 CURVE SMOOTH",
"57 16 OFFCURVE",
"112 -10 OFFCURVE",
"170 -10 CURVE SMOOTH",
"203 -10 OFFCURVE",
"238 -1 OFFCURVE",
"267 14 CURVE SMOOTH"
);
},
{
closed = 1;
nodes = (
"169 230 OFFCURVE",
"167 236 OFFCURVE",
"167 242 CURVE SMOOTH",
"167 268 OFFCURVE",
"209 314 OFFCURVE",
"219 324 CURVE SMOOTH",
"239 344 OFFCURVE",
"261 359 OFFCURVE",
"282 365 CURVE SMOOTH",
"290 367 OFFCURVE",
"297 368 OFFCURVE",
"302 368 CURVE SMOOTH",
"323 368 OFFCURVE",
"331 355 OFFCURVE",
"330 339 CURVE SMOOTH",
"327 302 OFFCURVE",
"304 272 OFFCURVE",
"273 251 CURVE SMOOTH",
"254 237 OFFCURVE",
"225 222 OFFCURVE",
"199 222 CURVE SMOOTH",
"191 222 OFFCURVE",
"183 223 OFFCURVE",
"176 227 CURVE SMOOTH"
);
}
);
width = 358;
}
);
leftKerningGroup = e;
note = e;
rightKerningGroup = e;
unicode = 0065;
},
